<ttFont>
<head>
    <!-- Most of this table will be recalculated by the compiler -->
    <tableVersion value="1.0"/>
    <fontRevision value="5.0"/>
    <checkSumAdjustment value="0xf1c05884"/>
    <magicNumber value="0x5f0f3cf5"/>
    <flags value="00000000 00001011"/>
    <unitsPerEm value="2048"/>
    <created value="Sun May 15 08:57:39 2005"/>
    <modified value="Fri Apr 15 06:50:33 2011"/>
    <xMin value="-285"/>
    <yMin value="-969"/>
    <xMax value="5109"/>
    <yMax value="2303"/>
    <macStyle value="00000000 00000000"/>
    <lowestRecPPEM value="8"/>
    <fontDirectionHint value="2"/>
    <indexToLocFormat value="1"/>
    <glyphDataFormat value="0"/>
  </head>
    <TTGlyph name=".notdef" xMin="142" yMin="226" xMax="842" yMax="1588">
      <contour>
        <pt x="142" y="226" on="1"/>
        <pt x="142" y="1588" on="1"/>
        <pt x="842" y="1588" on="1"/>
        <pt x="842" y="226" on="1"/>
      </contour>
      <contour>
        <pt x="284" y="368" on="1"/>
        <pt x="700" y="368" on="1"/>
        <pt x="700" y="1447" on="1"/>
        <pt x="284" y="1447" on="1"/>
      </contour>
    </TTGlyph>
    <TTGlyph name=".null" xMin="142" yMin="226" xMax="842" yMax="1588">
      <contour>
        <pt x="142" y="226" on="1"/>
        <pt x="142" y="1588" on="1"/>
        <pt x="842" y="1588" on="1"/>
        <pt x="842" y="226" on="1"/>
      </contour>
      <contour>
        <pt x="284" y="368" on="1"/>
        <pt x="700" y="368" on="1"/>
        <pt x="700" y="1447" on="1"/>
        <pt x="284" y="1447" on="1"/>
      </contour>
    </TTGlyph>
    <TTGlyph name="afii57381" xMin="142" yMin="226" xMax="842" yMax="1588">
      <contour>
        <pt x="142" y="226" on="1"/>
        <pt x="142" y="1588" on="1"/>
        <pt x="842" y="1588" on="1"/>
        <pt x="842" y="226" on="1"/>
      </contour>
      <contour>
        <pt x="284" y="368" on="1"/>
        <pt x="700" y="368" on="1"/>
        <pt x="700" y="1447" on="1"/>
        <pt x="284" y="1447" on="1"/>
      </contour>
    </TTGlyph>
    <TTGlyph name="afii57388" xMin="142" yMin="226" xMax="842" yMax="1588">
      <contour>
        <pt x="142" y="226" on="1"/>
        <pt x="142" y="1588" on="1"/>
        <pt x="842" y="1588" on="1"/>
        <pt x="842" y="226" on="1"/>
      </contour>
      <contour>
        <pt x="284" y="368" on="1"/>
        <pt x="700" y="368" on="1"/>
        <pt x="700" y="1447" on="1"/>
        <pt x="284" y="1447" on="1"/>
      </contour>
    </TTGlyph>
    <TTGlyph name="afii57396" xMin="142" yMin="226" xMax="842" yMax="1588">
      <contour>
        <pt x="142" y="226" on="1"/>
        <pt x="142" y="1588" on="1"/>
        <pt x="842" y="1588" on="1"/>
        <pt x="842" y="226" on="1"/>
      </contour>
      <contour>
        <pt x="284" y="368" on="1"/>
        <pt x="700" y="368" on="1"/>
        <pt x="700" y="1447" on="1"/>
        <pt x="284" y="1447" on="1"/>
      </contour>
    </TTGlyph>
    <TTGlyph name="afii57397" xMin="142" yMin="226" xMax="842" yMax="1588">
      <contour>
        <pt x="142" y="226" on="1"/>
        <pt x="142" y="1588" on="1"/>
        <pt x="842" y="1588" on="1"/>
        <pt x="842" y="226" on="1"/>
      </contour>
      <contour>
        <pt x="284" y="368" on="1"/>
        <pt x="700" y="368" on="1"/>
        <pt x="700" y="1447" on="1"/>
        <pt x="284" y="1447" on="1"/>
      </contour>
    </TTGlyph>
    <TTGlyph name="afii57398" xMin="142" yMin="226" xMax="842" yMax="1588">
      <contour>
        <pt x="142" y="226" on="1"/>
        <pt x="142" y="1588" on="1"/>
        <pt x="842" y="1588" on="1"/>
        <pt x="842" y="226" on="1"/>
      </contour>
      <contour>
        <pt x="284" y="368" on="1"/>
        <pt x="700" y="368" on="1"/>
        <pt x="700" y="1447" on="1"/>
        <pt x="284" y="1447" on="1"/>
      </contour>
    </TTGlyph>
    <TTGlyph name="afii57403" xMin="142" yMin="226" xMax="842" yMax="1588">
      <contour>
        <pt x="142" y="226" on="1"/>
        <pt x="142" y="1588" on="1"/>
        <pt x="842" y="1588" on="1"/>
        <pt x="842" y="226" on="1"/>
      </contour>
      <contour>
        <pt x="284" y="368" on="1"/>
        <pt x="700" y="368" on="1"/>
        <pt x="700" y="1447" on="1"/>
        <pt x="284" y="1447" on="1"/>
      </contour>
    </TTGlyph>
    <TTGlyph name="afii57407" xMin="142" yMin="226" xMax="842" yMax="1588">
      <contour>
        <pt x="142" y="226" on="1"/>
        <pt x="142" y="1588" on="1"/>
        <pt x="842" y="1588" on="1"/>
        <pt x="842" y="226" on="1"/>
      </contour>
      <contour>
        <pt x="284" y="368" on="1"/>
        <pt x="700" y="368" on="1"/>
        <pt x="700" y="1447" on="1"/>
        <pt x="284" y="1447" on="1"/>
      </contour>
    </TTGlyph>
    <TTGlyph name="afii57440" xMin="142" yMin="226" xMax="842" yMax="1588">
      <contour>
        <pt x="142" y="226" on="1"/>
        <pt x="142" y="1588" on="1"/>
        <pt x="842" y="1588" on="1"/>
        <pt x="842" y="226" on="1"/>
      </contour>
      <contour>
        <pt x="284" y="368" on="1"/>
        <pt x="700" y="368" on="1"/>
        <pt x="700" y="1447" on="1"/>
        <pt x="284" y="1447" on="1"/>
      </contour>
    </TTGlyph>
    <TTGlyph name="afii57451" xMin="142" yMin="226" xMax="842" yMax="1588">
      <contour>
        <pt x="142" y="226" on="1"/>
        <pt x="142" y="1588" on="1"/>
        <pt x="842" y="1588" on="1"/>
        <pt x="842" y="226" on="1"/>
      </contour>
      <contour>
        <pt x="284" y="368" on="1"/>
        <pt x="700" y="368" on="1"/>
        <pt x="700" y="1447" on="1"/>
        <pt x="284" y="1447" on="1"/>
      </contour>
    </TTGlyph>
    <TTGlyph name="afii57452" xMin="142" yMin="226" xMax="842" yMax="1588">
      <contour>
        <pt x="142" y="226" on="1"/>
        <pt x="142" y="1588" on="1"/>
        <pt x="842" y="1588" on="1"/>
        <pt x="842" y="226" on="1"/>
      </contour>
      <contour>
        <pt x="284" y="368" on="1"/>
        <pt x="700" y="368" on="1"/>
        <pt x="700" y="1447" on="1"/>
        <pt x="284" y="1447" on="1"/>
      </contour>
    </TTGlyph>
    <TTGlyph name="afii57453" xMin="142" yMin="226" xMax="842" yMax="1588">
      <contour>
        <pt x="142" y="226" on="1"/>
        <pt x="142" y="1588" on="1"/>
        <pt x="842" y="1588" on="1"/>
        <pt x="842" y="226" on="1"/>
      </contour>
      <contour>
        <pt x="284" y="368" on="1"/>
        <pt x="700" y="368" on="1"/>
        <pt x="700" y="1447" on="1"/>
        <pt x="284" y="1447" on="1"/>
      </contour>
    </TTGlyph>
    <TTGlyph name="afii57454" xMin="142" yMin="226" xMax="842" yMax="1588">
      <contour>
        <pt x="142" y="226" on="1"/>
        <pt x="142" y="1588" on="1"/>
        <pt x="842" y="1588" on="1"/>
        <pt x="842" y="226" on="1"/>
      </contour>
      <contour>
        <pt x="284" y="368" on="1"/>
        <pt x="700" y="368" on="1"/>
        <pt x="700" y="1447" on="1"/>
        <pt x="284" y="1447" on="1"/>
      </contour>
    </TTGlyph>
    <TTGlyph name="afii57455" xMin="142" yMin="226" xMax="842" yMax="1588">
      <contour>
        <pt x="142" y="226" on="1"/>
        <pt x="142" y="1588" on="1"/>
        <pt x="842" y="1588" on="1"/>
        <pt x="842" y="226" on="1"/>
      </contour>
      <contour>
        <pt x="284" y="368" on="1"/>
        <pt x="700" y="368" on="1"/>
        <pt x="700" y="1447" on="1"/>
        <pt x="284" y="1447" on="1"/>
      </contour>
    </TTGlyph>
    <TTGlyph name="afii57456" xMin="142" yMin="226" xMax="842" yMax="1588">
      <contour>
        <pt x="142" y="226" on="1"/>
        <pt x="142" y="1588" on="1"/>
        <pt x="842" y="1588" on="1"/>
        <pt x="842" y="226" on="1"/>
      </contour>
      <contour>
        <pt x="284" y="368" on="1"/>
        <pt x="700" y="368" on="1"/>
        <pt x="700" y="1447" on="1"/>
        <pt x="284" y="1447" on="1"/>
      </contour>
    </TTGlyph>
    <TTGlyph name="afii57457" xMin="142" yMin="226" xMax="842" yMax="1588">
      <contour>
        <pt x="142" y="226" on="1"/>
        <pt x="142" y="1588" on="1"/>
        <pt x="842" y="1588" on="1"/>
        <pt x="842" y="226" on="1"/>
      </contour>
      <contour>
        <pt x="284" y="368" on="1"/>
        <pt x="700" y="368" on="1"/>
        <pt x="700" y="1447" on="1"/>
        <pt x="284" y="1447" on="1"/>
      </contour>
    </TTGlyph>
    <TTGlyph name="afii57458" xMin="142" yMin="226" xMax="842" yMax="1588">
      <contour>
        <pt x="142" y="226" on="1"/>
        <pt x="142" y="1588" on="1"/>
        <pt x="842" y="1588" on="1"/>
        <pt x="842" y="226" on="1"/>
      </contour>
      <contour>
        <pt x="284" y="368" on="1"/>
        <pt x="700" y="368" on="1"/>
        <pt x="700" y="1447" on="1"/>
        <pt x="284" y="1447" on="1"/>
      </contour>
    </TTGlyph>
    <TTGlyph name="afii57505" xMin="142" yMin="226" xMax="842" yMax="1588">
      <contour>
        <pt x="142" y="226" on="1"/>
        <pt x="142" y="1588" on="1"/>
        <pt x="842" y="1588" on="1"/>
        <pt x="842" y="226" on="1"/>
      </contour>
      <contour>
        <pt x="284" y="368" on="1"/>
        <pt x="700" y="368" on="1"/>
        <pt x="700" y="1447" on="1"/>
        <pt x="284" y="1447" on="1"/>
      </contour>
    </TTGlyph>
    <TTGlyph name="afii57506" xMin="142" yMin="226" xMax="842" yMax="1588">
      <contour>
        <pt x="142" y="226" on="1"/>
        <pt x="142" y="1588" on="1"/>
        <pt x="842" y="1588" on="1"/>
        <pt x="842" y="226" on="1"/>
      </contour>
      <contour>
        <pt x="284" y="368" on="1"/>
        <pt x="700" y="368" on="1"/>
        <pt x="700" y="1447" on="1"/>
        <pt x="284" y="1447" on="1"/>
      </contour>
    </TTGlyph>
    <TTGlyph name="afii57507" xMin="142" yMin="226" xMax="842" yMax="1588">
      <contour>
        <pt x="142" y="226" on="1"/>
        <pt x="142" y="1588" on="1"/>
        <pt x="842" y="1588" on="1"/>
        <pt x="842" y="226" on="1"/>
      </contour>
      <contour>
        <pt x="284" y="368" on="1"/>
        <pt x="700" y="368" on="1"/>
        <pt x="700" y="1447" on="1"/>
        <pt x="284" y="1447" on="1"/>
      </contour>
    </TTGlyph>
    <TTGlyph name="afii57508" xMin="142" yMin="226" xMax="842" yMax="1588">
      <contour>
        <pt x="142" y="226" on="1"/>
        <pt x="142" y="1588" on="1"/>
        <pt x="842" y="1588" on="1"/>
        <pt x="842" y="226" on="1"/>
      </contour>
      <contour>
        <pt x="284" y="368" on="1"/>
        <pt x="700" y="368" on="1"/>
        <pt x="700" y="1447" on="1"/>
        <pt x="284" y="1447" on="1"/>
      </contour>
    </TTGlyph>
    <TTGlyph name="afii57509" xMin="142" yMin="226" xMax="842" yMax="1588">
      <contour>
        <pt x="142" y="226" on="1"/>
        <pt x="142" y="1588" on="1"/>
        <pt x="842" y="1588" on="1"/>
        <pt x="842" y="226" on="1"/>
      </contour>
      <contour>
        <pt x="284" y="368" on="1"/>
        <pt x="700" y="368" on="1"/>
        <pt x="700" y="1447" on="1"/>
        <pt x="284" y="1447" on="1"/>
      </contour>
    </TTGlyph>
    <TTGlyph name="afii57511" xMin="142" yMin="226" xMax="842" yMax="1588">
      <contour>
        <pt x="142" y="226" on="1"/>
        <pt x="142" y="1588" on="1"/>
        <pt x="842" y="1588" on="1"/>
        <pt x="842" y="226" on="1"/>
      </contour>
      <contour>
        <pt x="284" y="368" on="1"/>
        <pt x="700" y="368" on="1"/>
        <pt x="700" y="1447" on="1"/>
        <pt x="284" y="1447" on="1"/>
      </contour>
    </TTGlyph>
    <TTGlyph name="afii57512" xMin="142" yMin="226" xMax="842" yMax="1588">
      <contour>
        <pt x="142" y="226" on="1"/>
        <pt x="142" y="1588" on="1"/>
        <pt x="842" y="1588" on="1"/>
        <pt x="842" y="226" on="1"/>
      </contour>
      <contour>
        <pt x="284" y="368" on="1"/>
        <pt x="700" y="368" on="1"/>
        <pt x="700" y="1447" on="1"/>
        <pt x="284" y="1447" on="1"/>
      </contour>
    </TTGlyph>
    <TTGlyph name="afii57513" xMin="142" yMin="226" xMax="842" yMax="1588">
      <contour>
        <pt x="142" y="226" on="1"/>
        <pt x="142" y="1588" on="1"/>
        <pt x="842" y="1588" on="1"/>
        <pt x="842" y="226" on="1"/>
      </contour>
      <contour>
        <pt x="284" y="368" on="1"/>
        <pt x="700" y="368" on="1"/>
        <pt x="700" y="1447" on="1"/>
        <pt x="284" y="1447" on="1"/>
      </contour>
    </TTGlyph>
    <TTGlyph name="afii57514" xMin="142" yMin="226" xMax="842" yMax="1588">
      <contour>
        <pt x="142" y="226" on="1"/>
        <pt x="142" y="1588" on="1"/>
        <pt x="842" y="1588" on="1"/>
        <pt x="842" y="226" on="1"/>
      </contour>
      <contour>
        <pt x="284" y="368" on="1"/>
        <pt x="700" y="368" on="1"/>
        <pt x="700" y="1447" on="1"/>
        <pt x="284" y="1447" on="1"/>
      </contour>
    </TTGlyph>
    <TTGlyph name="afii57519" xMin="142" yMin="226" xMax="842" yMax="1588">
      <contour>
        <pt x="142" y="226" on="1"/>
        <pt x="142" y="1588" on="1"/>
        <pt x="842" y="1588" on="1"/>
        <pt x="842" y="226" on="1"/>
      </contour>
      <contour>
        <pt x="284" y="368" on="1"/>
        <pt x="700" y="368" on="1"/>
        <pt x="700" y="1447" on="1"/>
        <pt x="284" y="1447" on="1"/>
      </contour>
    </TTGlyph>
    <TTGlyph name="afii57534" xMin="142" yMin="226" xMax="842" yMax="1588">
      <contour>
        <pt x="142" y="226" on="1"/>
        <pt x="142" y="1588" on="1"/>
        <pt x="842" y="1588" on="1"/>
        <pt x="842" y="226" on="1"/>
      </contour>
      <contour>
        <pt x="284" y="368" on="1"/>
        <pt x="700" y="368" on="1"/>
        <pt x="700" y="1447" on="1"/>
        <pt x="284" y="1447" on="1"/>
      </contour>
    </TTGlyph>
    <TTGlyph name="afii63167" xMin="142" yMin="226" xMax="842" yMax="1588">
      <contour>
        <pt x="142" y="226" on="1"/>
        <pt x="142" y="1588" on="1"/>
        <pt x="842" y="1588" on="1"/>
        <pt x="842" y="226" on="1"/>
      </contour>
      <contour>
        <pt x="284" y="368" on="1"/>
        <pt x="700" y="368" on="1"/>
        <pt x="700" y="1447" on="1"/>
        <pt x="284" y="1447" on="1"/>
      </contour>
    </TTGlyph>
    <TTGlyph name="alefmaksurainitial" xMin="142" yMin="226" xMax="842" yMax="1588">
      <contour>
        <pt x="142" y="226" on="1"/>
        <pt x="142" y="1588" on="1"/>
        <pt x="842" y="1588" on="1"/>
        <pt x="842" y="226" on="1"/>
      </contour>
      <contour>
        <pt x="284" y="368" on="1"/>
        <pt x="700" y="368" on="1"/>
        <pt x="700" y="1447" on="1"/>
        <pt x="284" y="1447" on="1"/>
      </contour>
    </TTGlyph>
    <TTGlyph name="alefwaslafinalarabic" xMin="142" yMin="226" xMax="842" yMax="1588">
      <contour>
        <pt x="142" y="226" on="1"/>
        <pt x="142" y="1588" on="1"/>
        <pt x="842" y="1588" on="1"/>
        <pt x="842" y="226" on="1"/>
      </contour>
      <contour>
        <pt x="284" y="368" on="1"/>
        <pt x="700" y="368" on="1"/>
        <pt x="700" y="1447" on="1"/>
        <pt x="284" y="1447" on="1"/>
      </contour>
    </TTGlyph>
    <TTGlyph name="ampersand" xMin="142" yMin="226" xMax="842" yMax="1588">
      <contour>
        <pt x="142" y="226" on="1"/>
        <pt x="142" y="1588" on="1"/>
        <pt x="842" y="1588" on="1"/>
        <pt x="842" y="226" on="1"/>
      </contour>
      <contour>
        <pt x="284" y="368" on="1"/>
        <pt x="700" y="368" on="1"/>
        <pt x="700" y="1447" on="1"/>
        <pt x="284" y="1447" on="1"/>
      </contour>
    </TTGlyph>
    <TTGlyph name="asterisk" xMin="142" yMin="226" xMax="842" yMax="1588">
      <contour>
        <pt x="142" y="226" on="1"/>
        <pt x="142" y="1588" on="1"/>
        <pt x="842" y="1588" on="1"/>
        <pt x="842" y="226" on="1"/>
      </contour>
      <contour>
        <pt x="284" y="368" on="1"/>
        <pt x="700" y="368" on="1"/>
        <pt x="700" y="1447" on="1"/>
        <pt x="284" y="1447" on="1"/>
      </contour>
    </TTGlyph>
    <TTGlyph name="behmeemisolatedarabic" xMin="142" yMin="226" xMax="842" yMax="1588">
      <contour>
        <pt x="142" y="226" on="1"/>
        <pt x="142" y="1588" on="1"/>
        <pt x="842" y="1588" on="1"/>
        <pt x="842" y="226" on="1"/>
      </contour>
      <contour>
        <pt x="284" y="368" on="1"/>
        <pt x="700" y="368" on="1"/>
        <pt x="700" y="1447" on="1"/>
        <pt x="284" y="1447" on="1"/>
      </contour>
    </TTGlyph>
    <TTGlyph name="behnoonfinalarabic" xMin="142" yMin="226" xMax="842" yMax="1588">
      <contour>
        <pt x="142" y="226" on="1"/>
        <pt x="142" y="1588" on="1"/>
        <pt x="842" y="1588" on="1"/>
        <pt x="842" y="226" on="1"/>
      </contour>
      <contour>
        <pt x="284" y="368" on="1"/>
        <pt x="700" y="368" on="1"/>
        <pt x="700" y="1447" on="1"/>
        <pt x="284" y="1447" on="1"/>
      </contour>
    </TTGlyph>
    <TTGlyph name="colon" xMin="142" yMin="226" xMax="842" yMax="1588">
      <contour>
        <pt x="142" y="226" on="1"/>
        <pt x="142" y="1588" on="1"/>
        <pt x="842" y="1588" on="1"/>
        <pt x="842" y="226" on="1"/>
      </contour>
      <contour>
        <pt x="284" y="368" on="1"/>
        <pt x="700" y="368" on="1"/>
        <pt x="700" y="1447" on="1"/>
        <pt x="284" y="1447" on="1"/>
      </contour>
    </TTGlyph>
    <TTGlyph name="dagger" xMin="142" yMin="226" xMax="842" yMax="1588">
      <contour>
        <pt x="142" y="226" on="1"/>
        <pt x="142" y="1588" on="1"/>
        <pt x="842" y="1588" on="1"/>
        <pt x="842" y="226" on="1"/>
      </contour>
      <contour>
        <pt x="284" y="368" on="1"/>
        <pt x="700" y="368" on="1"/>
        <pt x="700" y="1447" on="1"/>
        <pt x="284" y="1447" on="1"/>
      </contour>
    </TTGlyph>
    <TTGlyph name="dalringfinal" xMin="142" yMin="226" xMax="842" yMax="1588">
      <contour>
        <pt x="142" y="226" on="1"/>
        <pt x="142" y="1588" on="1"/>
        <pt x="842" y="1588" on="1"/>
        <pt x="842" y="226" on="1"/>
      </contour>
      <contour>
        <pt x="284" y="368" on="1"/>
        <pt x="700" y="368" on="1"/>
        <pt x="700" y="1447" on="1"/>
        <pt x="284" y="1447" on="1"/>
      </contour>
    </TTGlyph>
    <TTGlyph name="ddalfinalarabic" xMin="142" yMin="226" xMax="842" yMax="1588">
      <contour>
        <pt x="142" y="226" on="1"/>
        <pt x="142" y="1588" on="1"/>
        <pt x="842" y="1588" on="1"/>
        <pt x="842" y="226" on="1"/>
      </contour>
      <contour>
        <pt x="284" y="368" on="1"/>
        <pt x="700" y="368" on="1"/>
        <pt x="700" y="1447" on="1"/>
        <pt x="284" y="1447" on="1"/>
      </contour>
    </TTGlyph>
    <TTGlyph name="divide" xMin="142" yMin="226" xMax="842" yMax="1588">
      <contour>
        <pt x="142" y="226" on="1"/>
        <pt x="142" y="1588" on="1"/>
        <pt x="842" y="1588" on="1"/>
        <pt x="842" y="226" on="1"/>
      </contour>
      <contour>
        <pt x="284" y="368" on="1"/>
        <pt x="700" y="368" on="1"/>
        <pt x="700" y="1447" on="1"/>
        <pt x="284" y="1447" on="1"/>
      </contour>
    </TTGlyph>
    <TTGlyph name="dollar" xMin="142" yMin="226" xMax="842" yMax="1588">
      <contour>
        <pt x="142" y="226" on="1"/>
        <pt x="142" y="1588" on="1"/>
        <pt x="842" y="1588" on="1"/>
        <pt x="842" y="226" on="1"/>
      </contour>
      <contour>
        <pt x="284" y="368" on="1"/>
        <pt x="700" y="368" on="1"/>
        <pt x="700" y="1447" on="1"/>
        <pt x="284" y="1447" on="1"/>
      </contour>
    </TTGlyph>
    <TTGlyph name="dotlessyehfinalarabic" xMin="142" yMin="226" xMax="842" yMax="1588">
      <contour>
        <pt x="142" y="226" on="1"/>
        <pt x="142" y="1588" on="1"/>
        <pt x="842" y="1588" on="1"/>
        <pt x="842" y="226" on="1"/>
      </contour>
      <contour>
        <pt x="284" y="368" on="1"/>
        <pt x="700" y="368" on="1"/>
        <pt x="700" y="1447" on="1"/>
        <pt x="284" y="1447" on="1"/>
      </contour>
    </TTGlyph>
    <TTGlyph name="dotlessyehinitialarabic" xMin="142" yMin="226" xMax="842" yMax="1588">
      <contour>
        <pt x="142" y="226" on="1"/>
        <pt x="142" y="1588" on="1"/>
        <pt x="842" y="1588" on="1"/>
        <pt x="842" y="226" on="1"/>
      </contour>
      <contour>
        <pt x="284" y="368" on="1"/>
        <pt x="700" y="368" on="1"/>
        <pt x="700" y="1447" on="1"/>
        <pt x="284" y="1447" on="1"/>
      </contour>
    </TTGlyph>
    <TTGlyph name="dotlessyehmedialarabic" xMin="142" yMin="226" xMax="842" yMax="1588">
      <contour>
        <pt x="142" y="226" on="1"/>
        <pt x="142" y="1588" on="1"/>
        <pt x="842" y="1588" on="1"/>
        <pt x="842" y="226" on="1"/>
      </contour>
      <contour>
        <pt x="284" y="368" on="1"/>
        <pt x="700" y="368" on="1"/>
        <pt x="700" y="1447" on="1"/>
        <pt x="284" y="1447" on="1"/>
      </contour>
    </TTGlyph>
    <TTGlyph name="elefmaksuramedial" xMin="142" yMin="226" xMax="842" yMax="1588">
      <contour>
        <pt x="142" y="226" on="1"/>
        <pt x="142" y="1588" on="1"/>
        <pt x="842" y="1588" on="1"/>
        <pt x="842" y="226" on="1"/>
      </contour>
      <contour>
        <pt x="284" y="368" on="1"/>
        <pt x="700" y="368" on="1"/>
        <pt x="700" y="1447" on="1"/>
        <pt x="284" y="1447" on="1"/>
      </contour>
    </TTGlyph>
    <TTGlyph name="ellipsis" xMin="142" yMin="226" xMax="842" yMax="1588">
      <contour>
        <pt x="142" y="226" on="1"/>
        <pt x="142" y="1588" on="1"/>
        <pt x="842" y="1588" on="1"/>
        <pt x="842" y="226" on="1"/>
      </contour>
      <contour>
        <pt x="284" y="368" on="1"/>
        <pt x="700" y="368" on="1"/>
        <pt x="700" y="1447" on="1"/>
        <pt x="284" y="1447" on="1"/>
      </contour>
    </TTGlyph>
    <TTGlyph name="emdash" xMin="2" yMin="-574" xMax="2050" yMax="1733">
      <contour>
        <pt x="1936" y="1007" on="1"/>
        <pt x="1903" y="983" on="1"/>
        <pt x="1903" y="994" on="0"/>
        <pt x="1893" y="1019" on="1"/>
        <pt x="1878" y="1044" on="0"/>
        <pt x="1763" y="1165" on="0"/>
        <pt x="1750" y="1187" on="1"/>
        <pt x="1686" y="1294" on="0"/>
        <pt x="1680" y="1405" on="1"/>
        <pt x="1613" y="1387" on="0"/>
        <pt x="1613" y="1208" on="1"/>
        <pt x="1613" y="1122" on="0"/>
        <pt x="1629" y="1073" on="1"/>
        <pt x="1608" y="1094" on="0"/>
        <pt x="1587" y="1115" on="1"/>
        <pt x="1580" y="1162" on="0"/>
        <pt x="1580" y="1208" on="1"/>
        <pt x="1580" y="1309" on="0"/>
        <pt x="1647" y="1457" on="0"/>
        <pt x="1705" y="1477" on="1"/>
        <pt x="1708" y="1330" on="0"/>
        <pt x="1779" y="1214" on="1"/>
        <pt x="1793" y="1191" on="0"/>
        <pt x="1860" y="1120" on="1"/>
        <pt x="1919" y="1058" on="0"/>
        <pt x="1930" y="1026" on="1"/>
        <pt x="1936" y="998" on="0"/>
      </contour>
      <contour>
        <pt x="1757" y="551" on="1"/>
        <pt x="1757" y="184" on="0"/>
        <pt x="1328" y="-335" on="0"/>
        <pt x="1026" y="-335" on="1"/>
        <pt x="725" y="-335" on="0"/>
        <pt x="296" y="184" on="0"/>
        <pt x="296" y="551" on="1"/>
        <pt x="296" y="906" on="0"/>
        <pt x="502" y="1163" on="1"/>
        <pt x="675" y="1380" on="0"/>
        <pt x="875" y="1416" on="1"/>
        <pt x="917" y="1424" on="0"/>
        <pt x="951" y="1459" on="1"/>
        <pt x="992" y="1500" on="0"/>
        <pt x="992" y="1555" on="1"/>
        <pt x="992" y="1613" on="0"/>
        <pt x="922" y="1697" on="0"/>
        <pt x="875" y="1697" on="1"/>
        <pt x="828" y="1697" on="0"/>
        <pt x="756" y="1613" on="0"/>
        <pt x="756" y="1555" on="1"/>
        <pt x="756" y="1488" on="0"/>
        <pt x="800" y="1443" on="1"/>
        <pt x="710" y="1430" on="0"/>
        <pt x="600" y="1375" on="1"/>
        <pt x="526" y="1337" on="0"/>
        <pt x="470" y="1274" on="1"/>
        <pt x="434" y="1279" on="1"/>
        <pt x="485" y="1351" on="0"/>
        <pt x="595" y="1412" on="1"/>
        <pt x="649" y="1442" on="0"/>
        <pt x="749" y="1466" on="1"/>
        <pt x="726" y="1510" on="0"/>
        <pt x="726" y="1566" on="1"/>
        <pt x="726" y="1639" on="0"/>
        <pt x="773" y="1688" on="1"/>
        <pt x="818" y="1733" on="0"/>
        <pt x="875" y="1733" on="1"/>
        <pt x="935" y="1733" on="0"/>
        <pt x="980" y="1685" on="1"/>
        <pt x="1026" y="1635" on="0"/>
        <pt x="1026" y="1562" on="1"/>
        <pt x="1026" y="1485" on="0"/>
        <pt x="977" y="1434" on="1"/>
        <pt x="996" y="1436" on="0"/>
        <pt x="1026" y="1436" on="1"/>
        <pt x="1059" y="1436" on="0"/>
        <pt x="1075" y="1434" on="1"/>
        <pt x="1026" y="1485" on="0"/>
        <pt x="1026" y="1562" on="1"/>
        <pt x="1026" y="1635" on="0"/>
        <pt x="1072" y="1685" on="1"/>
        <pt x="1117" y="1733" on="0"/>
        <pt x="1177" y="1733" on="1"/>
        <pt x="1235" y="1733" on="0"/>
        <pt x="1280" y="1688" on="1"/>
        <pt x="1328" y="1640" on="0"/>
        <pt x="1328" y="1566" on="1"/>
        <pt x="1328" y="1510" on="0"/>
        <pt x="1304" y="1466" on="1"/>
        <pt x="1401" y="1443" on="0"/>
        <pt x="1457" y="1412" on="1"/>
        <pt x="1566" y="1352" on="0"/>
        <pt x="1619" y="1279" on="1"/>
        <pt x="1583" y="1274" on="1"/>
        <pt x="1523" y="1339" on="0"/>
        <pt x="1452" y="1375" on="1"/>
        <pt x="1340" y="1431" on="0"/>
        <pt x="1252" y="1443" on="1"/>
        <pt x="1294" y="1486" on="0"/>
        <pt x="1294" y="1555" on="1"/>
        <pt x="1294" y="1613" on="0"/>
        <pt x="1225" y="1697" on="0"/>
        <pt x="1177" y="1697" on="1"/>
        <pt x="1131" y="1697" on="0"/>
        <pt x="1061" y="1613" on="0"/>
        <pt x="1061" y="1555" on="1"/>
        <pt x="1061" y="1500" on="0"/>
        <pt x="1101" y="1459" on="1"/>
        <pt x="1135" y="1424" on="0"/>
        <pt x="1177" y="1416" on="1"/>
        <pt x="1378" y="1380" on="0"/>
        <pt x="1552" y="1163" on="1"/>
        <pt x="1757" y="907" on="0"/>
      </contour>
      <contour>
        <pt x="467" y="1115" on="1"/>
        <pt x="422" y="1068" on="0"/>
        <pt x="423" y="1073" on="1"/>
        <pt x="440" y="1123" on="0"/>
        <pt x="440" y="1209" on="1"/>
        <pt x="440" y="1387" on="0"/>
        <pt x="373" y="1405" on="1"/>
        <pt x="367" y="1291" on="0"/>
        <pt x="305" y="1187" on="1"/>
        <pt x="291" y="1165" on="0"/>
        <pt x="175" y="1044" on="0"/>
        <pt x="160" y="1019" on="1"/>
        <pt x="149" y="994" on="0"/>
        <pt x="149" y="983" on="1"/>
        <pt x="118" y="1007" on="1"/>
        <pt x="118" y="1017" on="0"/>
        <pt x="124" y="1026" on="1"/>
        <pt x="135" y="1058" on="0"/>
        <pt x="194" y="1120" on="1"/>
        <pt x="261" y="1191" on="0"/>
        <pt x="275" y="1214" on="1"/>
        <pt x="344" y="1325" on="0"/>
        <pt x="349" y="1477" on="1"/>
        <pt x="406" y="1457" on="0"/>
        <pt x="474" y="1308" on="0"/>
        <pt x="474" y="1207" on="1"/>
        <pt x="474" y="1162" on="0"/>
      </contour>
      <contour>
        <pt x="2050" y="1068" on="1"/>
        <pt x="1996" y="970" on="0"/>
        <pt x="2001" y="789" on="1"/>
        <pt x="2003" y="754" on="0"/>
        <pt x="2038" y="610" on="0"/>
        <pt x="2040" y="580" on="1"/>
        <pt x="2041" y="544" on="0"/>
        <pt x="1991" y="473" on="0"/>
        <pt x="1964" y="473" on="1"/>
        <pt x="1925" y="473" on="0"/>
        <pt x="1908" y="496" on="1"/>
        <pt x="1908" y="53" on="0"/>
        <pt x="1392" y="-574" on="0"/>
        <pt x="1026" y="-574" on="1"/>
        <pt x="661" y="-574" on="0"/>
        <pt x="144" y="53" on="0"/>
        <pt x="144" y="496" on="1"/>
        <pt x="127" y="473" on="0"/>
        <pt x="89" y="473" on="1"/>
        <pt x="64" y="473" on="0"/>
        <pt x="11" y="544" on="0"/>
        <pt x="13" y="580" on="1"/>
        <pt x="14" y="611" on="0"/>
        <pt x="50" y="755" on="0"/>
        <pt x="51" y="789" on="1"/>
        <pt x="57" y="970" on="0"/>
        <pt x="2" y="1068" on="1"/>
        <pt x="163" y="1056" on="0"/>
        <pt x="212" y="911" on="1"/>
        <pt x="209" y="792" on="1"/>
        <pt x="204" y="863" on="0"/>
        <pt x="168" y="928" on="1"/>
        <pt x="124" y="1011" on="0"/>
        <pt x="54" y="1014" on="1"/>
        <pt x="85" y="958" on="0"/>
        <pt x="85" y="789" on="1"/>
        <pt x="85" y="758" on="0"/>
        <pt x="69" y="690" on="1"/>
        <pt x="51" y="618" on="0"/>
        <pt x="49" y="592" on="1"/>
        <pt x="47" y="518" on="0"/>
        <pt x="107" y="518" on="1"/>
        <pt x="138" y="518" on="0"/>
        <pt x="164" y="569" on="1"/>
        <pt x="172" y="582" on="0"/>
        <pt x="182" y="597" on="1"/>
        <pt x="177" y="537" on="0"/>
        <pt x="177" y="496" on="1"/>
        <pt x="177" y="76" on="0"/>
        <pt x="679" y="-521" on="0"/>
        <pt x="1026" y="-521" on="1"/>
        <pt x="1374" y="-521" on="0"/>
        <pt x="1876" y="76" on="0"/>
        <pt x="1876" y="496" on="1"/>
        <pt x="1876" y="537" on="0"/>
        <pt x="1872" y="597" on="1"/>
        <pt x="1881" y="583" on="0"/>
        <pt x="1889" y="569" on="1"/>
        <pt x="1917" y="518" on="0"/>
        <pt x="1946" y="518" on="1"/>
        <pt x="2007" y="518" on="0"/>
        <pt x="2005" y="592" on="1"/>
        <pt x="2003" y="619" on="0"/>
        <pt x="1984" y="690" on="1"/>
        <pt x="1967" y="758" on="0"/>
        <pt x="1967" y="789" on="1"/>
        <pt x="1967" y="955" on="0"/>
        <pt x="2000" y="1014" on="1"/>
        <pt x="1931" y="1011" on="0"/>
        <pt x="1884" y="928" on="1"/>
        <pt x="1848" y="863" on="0"/>
        <pt x="1844" y="792" on="1"/>
        <pt x="1843" y="911" on="1"/>
        <pt x="1891" y="1056" on="0"/>
      </contour>
      <contour>
        <pt x="1720" y="551" on="1"/>
        <pt x="1720" y="897" on="0"/>
        <pt x="1526" y="1135" on="1"/>
        <pt x="1376" y="1320" on="0"/>
        <pt x="1181" y="1375" on="1"/>
        <pt x="1116" y="1393" on="0"/>
        <pt x="1026" y="1393" on="1"/>
        <pt x="938" y="1393" on="0"/>
        <pt x="873" y="1375" on="1"/>
        <pt x="678" y="1320" on="0"/>
        <pt x="527" y="1135" on="1"/>
        <pt x="335" y="898" on="0"/>
        <pt x="335" y="551" on="1"/>
        <pt x="335" y="201" on="0"/>
        <pt x="739" y="-291" on="0"/>
        <pt x="1026" y="-291" on="1"/>
        <pt x="1315" y="-291" on="0"/>
        <pt x="1720" y="201" on="0"/>
      </contour>
      <contour>
        <pt x="1275" y="483" on="1"/>
        <pt x="1275" y="457" on="0"/>
        <pt x="1222" y="388" on="0"/>
        <pt x="1201" y="388" on="1"/>
        <pt x="1174" y="388" on="0"/>
        <pt x="1149" y="421" on="1"/>
        <pt x="1127" y="450" on="0"/>
        <pt x="1127" y="469" on="1"/>
        <pt x="1127" y="488" on="0"/>
        <pt x="1149" y="525" on="1"/>
        <pt x="1173" y="569" on="0"/>
        <pt x="1197" y="569" on="1"/>
        <pt x="1219" y="569" on="0"/>
        <pt x="1275" y="504" on="0"/>
      </contour>
      <contour>
        <pt x="1020" y="778" on="1"/>
        <pt x="1020" y="745" on="0"/>
        <pt x="982" y="698" on="0"/>
        <pt x="963" y="698" on="1"/>
        <pt x="954" y="698" on="0"/>
        <pt x="912" y="709" on="0"/>
        <pt x="900" y="709" on="1"/>
        <pt x="873" y="709" on="0"/>
        <pt x="866" y="705" on="1"/>
        <pt x="856" y="697" on="0"/>
        <pt x="856" y="668" on="1"/>
        <pt x="856" y="644" on="0"/>
        <pt x="893" y="514" on="1"/>
        <pt x="921" y="419" on="0"/>
        <pt x="921" y="313" on="1"/>
        <pt x="921" y="301" on="0"/>
        <pt x="913" y="250" on="0"/>
        <pt x="913" y="241" on="1"/>
        <pt x="908" y="236" on="0"/>
        <pt x="888" y="223" on="0"/>
        <pt x="884" y="217" on="1"/>
        <pt x="866" y="251" on="0"/>
        <pt x="810" y="452" on="1"/>
        <pt x="757" y="643" on="0"/>
        <pt x="757" y="653" on="1"/>
        <pt x="757" y="722" on="0"/>
        <pt x="864" y="849" on="0"/>
        <pt x="921" y="849" on="1"/>
        <pt x="952" y="849" on="0"/>
        <pt x="1020" y="804" on="0"/>
      </contour>
    </TTGlyph>
    <TTGlyph name="endash" xMin="2" yMin="-574" xMax="1026" yMax="1733">
      <contour>
        <pt x="969" y="1007" on="1"/>
        <pt x="953" y="983" on="1"/>
        <pt x="953" y="994" on="0"/>
        <pt x="947" y="1019" on="1"/>
        <pt x="940" y="1044" on="0"/>
        <pt x="882" y="1165" on="0"/>
        <pt x="876" y="1187" on="1"/>
        <pt x="844" y="1294" on="0"/>
        <pt x="841" y="1405" on="1"/>
        <pt x="807" y="1387" on="0"/>
        <pt x="807" y="1208" on="1"/>
        <pt x="807" y="1122" on="0"/>
        <pt x="815" y="1073" on="1"/>
        <pt x="805" y="1094" on="0"/>
        <pt x="794" y="1115" on="1"/>
        <pt x="791" y="1162" on="0"/>
        <pt x="791" y="1208" on="1"/>
        <pt x="791" y="1309" on="0"/>
        <pt x="825" y="1457" on="0"/>
        <pt x="854" y="1477" on="1"/>
        <pt x="855" y="1330" on="0"/>
        <pt x="891" y="1214" on="1"/>
        <pt x="898" y="1191" on="0"/>
        <pt x="931" y="1120" on="1"/>
        <pt x="961" y="1058" on="0"/>
        <pt x="966" y="1026" on="1"/>
        <pt x="969" y="998" on="0"/>
      </contour>
      <contour>
        <pt x="879" y="551" on="1"/>
        <pt x="879" y="184" on="0"/>
        <pt x="665" y="-335" on="0"/>
        <pt x="514" y="-335" on="1"/>
        <pt x="363" y="-335" on="0"/>
        <pt x="149" y="184" on="0"/>
        <pt x="149" y="551" on="1"/>
        <pt x="149" y="906" on="0"/>
        <pt x="252" y="1163" on="1"/>
        <pt x="339" y="1380" on="0"/>
        <pt x="438" y="1416" on="1"/>
        <pt x="460" y="1424" on="0"/>
        <pt x="477" y="1459" on="1"/>
        <pt x="497" y="1500" on="0"/>
        <pt x="497" y="1555" on="1"/>
        <pt x="497" y="1613" on="0"/>
        <pt x="462" y="1697" on="0"/>
        <pt x="438" y="1697" on="1"/>
        <pt x="415" y="1697" on="0"/>
        <pt x="379" y="1613" on="0"/>
        <pt x="379" y="1555" on="1"/>
        <pt x="379" y="1488" on="0"/>
        <pt x="401" y="1443" on="1"/>
        <pt x="356" y="1430" on="0"/>
        <pt x="301" y="1375" on="1"/>
        <pt x="264" y="1337" on="0"/>
        <pt x="236" y="1274" on="1"/>
        <pt x="218" y="1279" on="1"/>
        <pt x="244" y="1351" on="0"/>
        <pt x="299" y="1412" on="1"/>
        <pt x="325" y="1442" on="0"/>
        <pt x="376" y="1466" on="1"/>
        <pt x="364" y="1510" on="0"/>
        <pt x="364" y="1566" on="1"/>
        <pt x="364" y="1639" on="0"/>
        <pt x="388" y="1688" on="1"/>
        <pt x="410" y="1733" on="0"/>
        <pt x="438" y="1733" on="1"/>
        <pt x="468" y="1733" on="0"/>
        <pt x="491" y="1685" on="1"/>
        <pt x="514" y="1635" on="0"/>
        <pt x="514" y="1562" on="1"/>
        <pt x="514" y="1485" on="0"/>
        <pt x="490" y="1434" on="1"/>
        <pt x="499" y="1436" on="0"/>
        <pt x="514" y="1436" on="1"/>
        <pt x="530" y="1436" on="0"/>
        <pt x="538" y="1434" on="1"/>
        <pt x="514" y="1485" on="0"/>
        <pt x="514" y="1562" on="1"/>
        <pt x="514" y="1635" on="0"/>
        <pt x="537" y="1685" on="1"/>
        <pt x="560" y="1733" on="0"/>
        <pt x="590" y="1733" on="1"/>
        <pt x="619" y="1733" on="0"/>
        <pt x="641" y="1688" on="1"/>
        <pt x="665" y="1640" on="0"/>
        <pt x="665" y="1566" on="1"/>
        <pt x="665" y="1510" on="0"/>
        <pt x="653" y="1466" on="1"/>
        <pt x="702" y="1443" on="0"/>
        <pt x="729" y="1412" on="1"/>
        <pt x="784" y="1352" on="0"/>
        <pt x="810" y="1279" on="1"/>
        <pt x="793" y="1274" on="1"/>
        <pt x="763" y="1339" on="0"/>
        <pt x="727" y="1375" on="1"/>
        <pt x="671" y="1431" on="0"/>
        <pt x="627" y="1443" on="1"/>
        <pt x="648" y="1486" on="0"/>
        <pt x="648" y="1555" on="1"/>
        <pt x="648" y="1613" on="0"/>
        <pt x="614" y="1697" on="0"/>
        <pt x="590" y="1697" on="1"/>
        <pt x="566" y="1697" on="0"/>
        <pt x="531" y="1613" on="0"/>
        <pt x="531" y="1555" on="1"/>
        <pt x="531" y="1500" on="0"/>
        <pt x="551" y="1459" on="1"/>
        <pt x="568" y="1424" on="0"/>
        <pt x="590" y="1416" on="1"/>
        <pt x="690" y="1380" on="0"/>
        <pt x="777" y="1163" on="1"/>
        <pt x="879" y="907" on="0"/>
      </contour>
      <contour>
        <pt x="235" y="1115" on="1"/>
        <pt x="212" y="1068" on="0"/>
        <pt x="213" y="1073" on="1"/>
        <pt x="221" y="1123" on="0"/>
        <pt x="221" y="1209" on="1"/>
        <pt x="221" y="1387" on="0"/>
        <pt x="188" y="1405" on="1"/>
        <pt x="185" y="1291" on="0"/>
        <pt x="153" y="1187" on="1"/>
        <pt x="146" y="1165" on="0"/>
        <pt x="88" y="1044" on="0"/>
        <pt x="81" y="1019" on="1"/>
        <pt x="76" y="994" on="0"/>
        <pt x="76" y="983" on="1"/>
        <pt x="60" y="1007" on="1"/>
        <pt x="60" y="1017" on="0"/>
        <pt x="63" y="1026" on="1"/>
        <pt x="68" y="1058" on="0"/>
        <pt x="98" y="1120" on="1"/>
        <pt x="132" y="1191" on="0"/>
        <pt x="139" y="1214" on="1"/>
        <pt x="173" y="1325" on="0"/>
        <pt x="175" y="1477" on="1"/>
        <pt x="204" y="1457" on="0"/>
        <pt x="238" y="1308" on="0"/>
        <pt x="238" y="1207" on="1"/>
        <pt x="238" y="1162" on="0"/>
      </contour>
      <contour>
        <pt x="1026" y="1068" on="1"/>
        <pt x="999" y="970" on="0"/>
        <pt x="1002" y="789" on="1"/>
        <pt x="1003" y="754" on="0"/>
        <pt x="1020" y="610" on="0"/>
        <pt x="1021" y="580" on="1"/>
        <pt x="1021" y="544" on="0"/>
        <pt x="996" y="473" on="0"/>
        <pt x="983" y="473" on="1"/>
        <pt x="963" y="473" on="0"/>
        <pt x="955" y="496" on="1"/>
        <pt x="955" y="53" on="0"/>
        <pt x="697" y="-574" on="0"/>
        <pt x="514" y="-574" on="1"/>
        <pt x="331" y="-574" on="0"/>
        <pt x="73" y="53" on="0"/>
        <pt x="73" y="496" on="1"/>
        <pt x="65" y="473" on="0"/>
        <pt x="46" y="473" on="1"/>
        <pt x="33" y="473" on="0"/>
        <pt x="7" y="544" on="0"/>
        <pt x="7" y="580" on="1"/>
        <pt x="8" y="611" on="0"/>
        <pt x="26" y="755" on="0"/>
        <pt x="27" y="789" on="1"/>
        <pt x="30" y="970" on="0"/>
        <pt x="2" y="1068" on="1"/>
        <pt x="83" y="1056" on="0"/>
        <pt x="107" y="911" on="1"/>
        <pt x="105" y="792" on="1"/>
        <pt x="103" y="863" on="0"/>
        <pt x="85" y="928" on="1"/>
        <pt x="63" y="1011" on="0"/>
        <pt x="28" y="1014" on="1"/>
        <pt x="44" y="958" on="0"/>
        <pt x="44" y="789" on="1"/>
        <pt x="44" y="758" on="0"/>
        <pt x="35" y="690" on="1"/>
        <pt x="26" y="618" on="0"/>
        <pt x="25" y="592" on="1"/>
        <pt x="25" y="518" on="0"/>
        <pt x="54" y="518" on="1"/>
        <pt x="70" y="518" on="0"/>
        <pt x="83" y="569" on="1"/>
        <pt x="87" y="582" on="0"/>
        <pt x="92" y="597" on="1"/>
        <pt x="90" y="537" on="0"/>
        <pt x="90" y="496" on="1"/>
        <pt x="90" y="76" on="0"/>
        <pt x="340" y="-521" on="0"/>
        <pt x="514" y="-521" on="1"/>
        <pt x="688" y="-521" on="0"/>
        <pt x="939" y="76" on="0"/>
        <pt x="939" y="496" on="1"/>
        <pt x="939" y="537" on="0"/>
        <pt x="937" y="597" on="1"/>
        <pt x="942" y="583" on="0"/>
        <pt x="946" y="569" on="1"/>
        <pt x="959" y="518" on="0"/>
        <pt x="974" y="518" on="1"/>
        <pt x="1005" y="518" on="0"/>
        <pt x="1003" y="592" on="1"/>
        <pt x="1003" y="619" on="0"/>
        <pt x="993" y="690" on="1"/>
        <pt x="984" y="758" on="0"/>
        <pt x="984" y="789" on="1"/>
        <pt x="984" y="955" on="0"/>
        <pt x="1001" y="1014" on="1"/>
        <pt x="966" y="1011" on="0"/>
        <pt x="943" y="928" on="1"/>
        <pt x="925" y="863" on="0"/>
        <pt x="923" y="792" on="1"/>
        <pt x="922" y="911" on="1"/>
        <pt x="947" y="1056" on="0"/>
      </contour>
      <contour>
        <pt x="861" y="551" on="1"/>
        <pt x="861" y="897" on="0"/>
        <pt x="764" y="1135" on="1"/>
        <pt x="689" y="1320" on="0"/>
        <pt x="591" y="1375" on="1"/>
        <pt x="559" y="1393" on="0"/>
        <pt x="514" y="1393" on="1"/>
        <pt x="470" y="1393" on="0"/>
        <pt x="437" y="1375" on="1"/>
        <pt x="340" y="1320" on="0"/>
        <pt x="265" y="1135" on="1"/>
        <pt x="168" y="898" on="0"/>
        <pt x="168" y="551" on="1"/>
        <pt x="168" y="201" on="0"/>
        <pt x="370" y="-291" on="0"/>
        <pt x="514" y="-291" on="1"/>
        <pt x="658" y="-291" on="0"/>
        <pt x="861" y="201" on="0"/>
      </contour>
      <contour>
        <pt x="639" y="483" on="1"/>
        <pt x="639" y="457" on="0"/>
        <pt x="612" y="388" on="0"/>
        <pt x="602" y="388" on="1"/>
        <pt x="588" y="388" on="0"/>
        <pt x="575" y="421" on="1"/>
        <pt x="565" y="450" on="0"/>
        <pt x="565" y="469" on="1"/>
        <pt x="565" y="488" on="0"/>
        <pt x="575" y="525" on="1"/>
        <pt x="587" y="569" on="0"/>
        <pt x="600" y="569" on="1"/>
        <pt x="611" y="569" on="0"/>
        <pt x="639" y="504" on="0"/>
      </contour>
      <contour>
        <pt x="511" y="778" on="1"/>
        <pt x="511" y="745" on="0"/>
        <pt x="492" y="698" on="0"/>
        <pt x="482" y="698" on="1"/>
        <pt x="478" y="698" on="0"/>
        <pt x="457" y="709" on="0"/>
        <pt x="451" y="709" on="1"/>
        <pt x="437" y="709" on="0"/>
        <pt x="434" y="705" on="1"/>
        <pt x="429" y="697" on="0"/>
        <pt x="429" y="668" on="1"/>
        <pt x="429" y="644" on="0"/>
        <pt x="447" y="514" on="1"/>
        <pt x="462" y="419" on="0"/>
        <pt x="462" y="313" on="1"/>
        <pt x="462" y="301" on="0"/>
        <pt x="458" y="250" on="0"/>
        <pt x="458" y="241" on="1"/>
        <pt x="455" y="236" on="0"/>
        <pt x="445" y="223" on="0"/>
        <pt x="443" y="217" on="1"/>
        <pt x="434" y="251" on="0"/>
        <pt x="406" y="452" on="1"/>
        <pt x="379" y="643" on="0"/>
        <pt x="379" y="653" on="1"/>
        <pt x="379" y="722" on="0"/>
        <pt x="433" y="849" on="0"/>
        <pt x="462" y="849" on="1"/>
        <pt x="477" y="849" on="0"/>
        <pt x="511" y="804" on="0"/>
      </contour>
    </TTGlyph>
    <TTGlyph name="equal" xMin="142" yMin="226" xMax="842" yMax="1588">
      <contour>
        <pt x="142" y="226" on="1"/>
        <pt x="142" y="1588" on="1"/>
        <pt x="842" y="1588" on="1"/>
        <pt x="842" y="226" on="1"/>
      </contour>
      <contour>
        <pt x="284" y="368" on="1"/>
        <pt x="700" y="368" on="1"/>
        <pt x="700" y="1447" on="1"/>
        <pt x="284" y="1447" on="1"/>
      </contour>
    </TTGlyph>
    <TTGlyph name="exclam" xMin="142" yMin="226" xMax="842" yMax="1588">
      <contour>
        <pt x="142" y="226" on="1"/>
        <pt x="142" y="1588" on="1"/>
        <pt x="842" y="1588" on="1"/>
        <pt x="842" y="226" on="1"/>
      </contour>
      <contour>
        <pt x="284" y="368" on="1"/>
        <pt x="700" y="368" on="1"/>
        <pt x="700" y="1447" on="1"/>
        <pt x="284" y="1447" on="1"/>
      </contour>
    </TTGlyph>
    <TTGlyph name="figuredash" xMin="2" yMin="-574" xMax="2490" yMax="1733">
      <contour>
        <pt x="2351" y="1007" on="1"/>
        <pt x="2312" y="983" on="1"/>
        <pt x="2312" y="994" on="0"/>
        <pt x="2299" y="1019" on="1"/>
        <pt x="2281" y="1044" on="0"/>
        <pt x="2141" y="1165" on="0"/>
        <pt x="2125" y="1187" on="1"/>
        <pt x="2048" y="1294" on="0"/>
        <pt x="2041" y="1405" on="1"/>
        <pt x="1959" y="1387" on="0"/>
        <pt x="1959" y="1208" on="1"/>
        <pt x="1959" y="1122" on="0"/>
        <pt x="1978" y="1073" on="1"/>
        <pt x="1953" y="1094" on="0"/>
        <pt x="1927" y="1115" on="1"/>
        <pt x="1919" y="1162" on="0"/>
        <pt x="1919" y="1208" on="1"/>
        <pt x="1919" y="1309" on="0"/>
        <pt x="2001" y="1457" on="0"/>
        <pt x="2071" y="1477" on="1"/>
        <pt x="2075" y="1330" on="0"/>
        <pt x="2161" y="1214" on="1"/>
        <pt x="2178" y="1191" on="0"/>
        <pt x="2259" y="1120" on="1"/>
        <pt x="2331" y="1058" on="0"/>
        <pt x="2344" y="1026" on="1"/>
        <pt x="2351" y="998" on="0"/>
      </contour>
      <contour>
        <pt x="2134" y="551" on="1"/>
        <pt x="2134" y="184" on="0"/>
        <pt x="1613" y="-335" on="0"/>
        <pt x="1246" y="-335" on="1"/>
        <pt x="880" y="-335" on="0"/>
        <pt x="359" y="184" on="0"/>
        <pt x="359" y="551" on="1"/>
        <pt x="359" y="906" on="0"/>
        <pt x="609" y="1163" on="1"/>
        <pt x="820" y="1380" on="0"/>
        <pt x="1062" y="1416" on="1"/>
        <pt x="1114" y="1424" on="0"/>
        <pt x="1155" y="1459" on="1"/>
        <pt x="1205" y="1500" on="0"/>
        <pt x="1205" y="1555" on="1"/>
        <pt x="1205" y="1613" on="0"/>
        <pt x="1120" y="1697" on="0"/>
        <pt x="1062" y="1697" on="1"/>
        <pt x="1005" y="1697" on="0"/>
        <pt x="918" y="1613" on="0"/>
        <pt x="918" y="1555" on="1"/>
        <pt x="918" y="1488" on="0"/>
        <pt x="972" y="1443" on="1"/>
        <pt x="862" y="1430" on="0"/>
        <pt x="729" y="1375" on="1"/>
        <pt x="639" y="1337" on="0"/>
        <pt x="571" y="1274" on="1"/>
        <pt x="527" y="1279" on="1"/>
        <pt x="589" y="1351" on="0"/>
        <pt x="723" y="1412" on="1"/>
        <pt x="788" y="1442" on="0"/>
        <pt x="910" y="1466" on="1"/>
        <pt x="882" y="1510" on="0"/>
        <pt x="882" y="1566" on="1"/>
        <pt x="882" y="1639" on="0"/>
        <pt x="939" y="1688" on="1"/>
        <pt x="993" y="1733" on="0"/>
        <pt x="1062" y="1733" on="1"/>
        <pt x="1135" y="1733" on="0"/>
        <pt x="1190" y="1685" on="1"/>
        <pt x="1246" y="1635" on="0"/>
        <pt x="1246" y="1562" on="1"/>
        <pt x="1246" y="1485" on="0"/>
        <pt x="1187" y="1434" on="1"/>
        <pt x="1209" y="1436" on="0"/>
        <pt x="1246" y="1436" on="1"/>
        <pt x="1286" y="1436" on="0"/>
        <pt x="1305" y="1434" on="1"/>
        <pt x="1246" y="1485" on="0"/>
        <pt x="1246" y="1562" on="1"/>
        <pt x="1246" y="1635" on="0"/>
        <pt x="1302" y="1685" on="1"/>
        <pt x="1357" y="1733" on="0"/>
        <pt x="1430" y="1733" on="1"/>
        <pt x="1500" y="1733" on="0"/>
        <pt x="1554" y="1688" on="1"/>
        <pt x="1613" y="1640" on="0"/>
        <pt x="1613" y="1566" on="1"/>
        <pt x="1613" y="1510" on="0"/>
        <pt x="1584" y="1466" on="1"/>
        <pt x="1702" y="1443" on="0"/>
        <pt x="1769" y="1412" on="1"/>
        <pt x="1902" y="1352" on="0"/>
        <pt x="1966" y="1279" on="1"/>
        <pt x="1923" y="1274" on="1"/>
        <pt x="1850" y="1339" on="0"/>
        <pt x="1764" y="1375" on="1"/>
        <pt x="1627" y="1431" on="0"/>
        <pt x="1520" y="1443" on="1"/>
        <pt x="1572" y="1486" on="0"/>
        <pt x="1572" y="1555" on="1"/>
        <pt x="1572" y="1613" on="0"/>
        <pt x="1488" y="1697" on="0"/>
        <pt x="1430" y="1697" on="1"/>
        <pt x="1373" y="1697" on="0"/>
        <pt x="1288" y="1613" on="0"/>
        <pt x="1288" y="1555" on="1"/>
        <pt x="1288" y="1500" on="0"/>
        <pt x="1337" y="1459" on="1"/>
        <pt x="1378" y="1424" on="0"/>
        <pt x="1430" y="1416" on="1"/>
        <pt x="1674" y="1380" on="0"/>
        <pt x="1885" y="1163" on="1"/>
        <pt x="2134" y="907" on="0"/>
      </contour>
      <contour>
        <pt x="567" y="1115" on="1"/>
        <pt x="512" y="1068" on="0"/>
        <pt x="514" y="1073" on="1"/>
        <pt x="534" y="1123" on="0"/>
        <pt x="534" y="1209" on="1"/>
        <pt x="534" y="1387" on="0"/>
        <pt x="453" y="1405" on="1"/>
        <pt x="446" y="1291" on="0"/>
        <pt x="370" y="1187" on="1"/>
        <pt x="353" y="1165" on="0"/>
        <pt x="212" y="1044" on="0"/>
        <pt x="194" y="1019" on="1"/>
        <pt x="181" y="994" on="0"/>
        <pt x="181" y="983" on="1"/>
        <pt x="143" y="1007" on="1"/>
        <pt x="143" y="1017" on="0"/>
        <pt x="150" y="1026" on="1"/>
        <pt x="163" y="1058" on="0"/>
        <pt x="235" y="1120" on="1"/>
        <pt x="317" y="1191" on="0"/>
        <pt x="334" y="1214" on="1"/>
        <pt x="417" y="1325" on="0"/>
        <pt x="423" y="1477" on="1"/>
        <pt x="493" y="1457" on="0"/>
        <pt x="575" y="1308" on="0"/>
        <pt x="575" y="1207" on="1"/>
        <pt x="575" y="1162" on="0"/>
      </contour>
      <contour>
        <pt x="2490" y="1068" on="1"/>
        <pt x="2424" y="970" on="0"/>
        <pt x="2431" y="789" on="1"/>
        <pt x="2433" y="754" on="0"/>
        <pt x="2476" y="610" on="0"/>
        <pt x="2478" y="580" on="1"/>
        <pt x="2479" y="544" on="0"/>
        <pt x="2418" y="473" on="0"/>
        <pt x="2386" y="473" on="1"/>
        <pt x="2338" y="473" on="0"/>
        <pt x="2317" y="496" on="1"/>
        <pt x="2317" y="53" on="0"/>
        <pt x="1691" y="-574" on="0"/>
        <pt x="1246" y="-574" on="1"/>
        <pt x="802" y="-574" on="0"/>
        <pt x="175" y="53" on="0"/>
        <pt x="175" y="496" on="1"/>
        <pt x="154" y="473" on="0"/>
        <pt x="108" y="473" on="1"/>
        <pt x="77" y="473" on="0"/>
        <pt x="13" y="544" on="0"/>
        <pt x="15" y="580" on="1"/>
        <pt x="17" y="611" on="0"/>
        <pt x="60" y="755" on="0"/>
        <pt x="62" y="789" on="1"/>
        <pt x="69" y="970" on="0"/>
        <pt x="2" y="1068" on="1"/>
        <pt x="198" y="1056" on="0"/>
        <pt x="257" y="911" on="1"/>
        <pt x="253" y="792" on="1"/>
        <pt x="248" y="863" on="0"/>
        <pt x="204" y="928" on="1"/>
        <pt x="150" y="1011" on="0"/>
        <pt x="65" y="1014" on="1"/>
        <pt x="103" y="958" on="0"/>
        <pt x="103" y="789" on="1"/>
        <pt x="103" y="758" on="0"/>
        <pt x="83" y="690" on="1"/>
        <pt x="61" y="618" on="0"/>
        <pt x="59" y="592" on="1"/>
        <pt x="57" y="518" on="0"/>
        <pt x="129" y="518" on="1"/>
        <pt x="167" y="518" on="0"/>
        <pt x="199" y="569" on="1"/>
        <pt x="209" y="582" on="0"/>
        <pt x="221" y="597" on="1"/>
        <pt x="215" y="537" on="0"/>
        <pt x="215" y="496" on="1"/>
        <pt x="215" y="76" on="0"/>
        <pt x="824" y="-521" on="0"/>
        <pt x="1246" y="-521" on="1"/>
        <pt x="1669" y="-521" on="0"/>
        <pt x="2279" y="76" on="0"/>
        <pt x="2279" y="496" on="1"/>
        <pt x="2279" y="537" on="0"/>
        <pt x="2274" y="597" on="1"/>
        <pt x="2285" y="583" on="0"/>
        <pt x="2295" y="569" on="1"/>
        <pt x="2328" y="518" on="0"/>
        <pt x="2364" y="518" on="1"/>
        <pt x="2438" y="518" on="0"/>
        <pt x="2435" y="592" on="1"/>
        <pt x="2433" y="619" on="0"/>
        <pt x="2410" y="690" on="1"/>
        <pt x="2389" y="758" on="0"/>
        <pt x="2389" y="789" on="1"/>
        <pt x="2389" y="955" on="0"/>
        <pt x="2429" y="1014" on="1"/>
        <pt x="2345" y="1011" on="0"/>
        <pt x="2288" y="928" on="1"/>
        <pt x="2245" y="863" on="0"/>
        <pt x="2240" y="792" on="1"/>
        <pt x="2238" y="911" on="1"/>
        <pt x="2297" y="1056" on="0"/>
      </contour>
      <contour>
        <pt x="2089" y="551" on="1"/>
        <pt x="2089" y="897" on="0"/>
        <pt x="1853" y="1135" on="1"/>
        <pt x="1671" y="1320" on="0"/>
        <pt x="1434" y="1375" on="1"/>
        <pt x="1355" y="1393" on="0"/>
        <pt x="1246" y="1393" on="1"/>
        <pt x="1139" y="1393" on="0"/>
        <pt x="1060" y="1375" on="1"/>
        <pt x="823" y="1320" on="0"/>
        <pt x="640" y="1135" on="1"/>
        <pt x="406" y="898" on="0"/>
        <pt x="406" y="551" on="1"/>
        <pt x="406" y="201" on="0"/>
        <pt x="897" y="-291" on="0"/>
        <pt x="1246" y="-291" on="1"/>
        <pt x="1597" y="-291" on="0"/>
        <pt x="2089" y="201" on="0"/>
      </contour>
      <contour>
        <pt x="1549" y="483" on="1"/>
        <pt x="1549" y="457" on="0"/>
        <pt x="1484" y="388" on="0"/>
        <pt x="1459" y="388" on="1"/>
        <pt x="1426" y="388" on="0"/>
        <pt x="1395" y="421" on="1"/>
        <pt x="1369" y="450" on="0"/>
        <pt x="1369" y="469" on="1"/>
        <pt x="1369" y="488" on="0"/>
        <pt x="1395" y="525" on="1"/>
        <pt x="1424" y="569" on="0"/>
        <pt x="1454" y="569" on="1"/>
        <pt x="1481" y="569" on="0"/>
        <pt x="1549" y="504" on="0"/>
      </contour>
      <contour>
        <pt x="1239" y="778" on="1"/>
        <pt x="1239" y="745" on="0"/>
        <pt x="1193" y="698" on="0"/>
        <pt x="1169" y="698" on="1"/>
        <pt x="1158" y="698" on="0"/>
        <pt x="1107" y="709" on="0"/>
        <pt x="1093" y="709" on="1"/>
        <pt x="1060" y="709" on="0"/>
        <pt x="1052" y="705" on="1"/>
        <pt x="1039" y="697" on="0"/>
        <pt x="1039" y="668" on="1"/>
        <pt x="1039" y="644" on="0"/>
        <pt x="1084" y="514" on="1"/>
        <pt x="1119" y="419" on="0"/>
        <pt x="1119" y="313" on="1"/>
        <pt x="1119" y="301" on="0"/>
        <pt x="1109" y="250" on="0"/>
        <pt x="1109" y="241" on="1"/>
        <pt x="1103" y="236" on="0"/>
        <pt x="1078" y="223" on="0"/>
        <pt x="1074" y="217" on="1"/>
        <pt x="1052" y="251" on="0"/>
        <pt x="984" y="452" on="1"/>
        <pt x="919" y="643" on="0"/>
        <pt x="919" y="653" on="1"/>
        <pt x="919" y="722" on="0"/>
        <pt x="1049" y="849" on="0"/>
        <pt x="1119" y="849" on="1"/>
        <pt x="1156" y="849" on="0"/>
        <pt x="1239" y="804" on="0"/>
      </contour>
    </TTGlyph>
    <TTGlyph name="gaffinalarabic" xMin="142" yMin="226" xMax="842" yMax="1588">
      <contour>
        <pt x="142" y="226" on="1"/>
        <pt x="142" y="1588" on="1"/>
        <pt x="842" y="1588" on="1"/>
        <pt x="842" y="226" on="1"/>
      </contour>
      <contour>
        <pt x="284" y="368" on="1"/>
        <pt x="700" y="368" on="1"/>
        <pt x="700" y="1447" on="1"/>
        <pt x="284" y="1447" on="1"/>
      </contour>
    </TTGlyph>
    <TTGlyph name="gafinitialarabic" xMin="142" yMin="226" xMax="842" yMax="1588">
      <contour>
        <pt x="142" y="226" on="1"/>
        <pt x="142" y="1588" on="1"/>
        <pt x="842" y="1588" on="1"/>
        <pt x="842" y="226" on="1"/>
      </contour>
      <contour>
        <pt x="284" y="368" on="1"/>
        <pt x="700" y="368" on="1"/>
        <pt x="700" y="1447" on="1"/>
        <pt x="284" y="1447" on="1"/>
      </contour>
    </TTGlyph>
    <TTGlyph name="gafmedialarabic" xMin="142" yMin="226" xMax="842" yMax="1588">
      <contour>
        <pt x="142" y="226" on="1"/>
        <pt x="142" y="1588" on="1"/>
        <pt x="842" y="1588" on="1"/>
        <pt x="842" y="226" on="1"/>
      </contour>
      <contour>
        <pt x="284" y="368" on="1"/>
        <pt x="700" y="368" on="1"/>
        <pt x="700" y="1447" on="1"/>
        <pt x="284" y="1447" on="1"/>
      </contour>
    </TTGlyph>
    <TTGlyph name="glyph41" xMin="142" yMin="226" xMax="842" yMax="1588">
      <contour>
        <pt x="142" y="226" on="1"/>
        <pt x="142" y="1588" on="1"/>
        <pt x="842" y="1588" on="1"/>
        <pt x="842" y="226" on="1"/>
      </contour>
      <contour>
        <pt x="284" y="368" on="1"/>
        <pt x="700" y="368" on="1"/>
        <pt x="700" y="1447" on="1"/>
        <pt x="284" y="1447" on="1"/>
      </contour>
    </TTGlyph>
    <TTGlyph name="glyph42" xMin="142" yMin="226" xMax="842" yMax="1588">
      <contour>
        <pt x="142" y="226" on="1"/>
        <pt x="142" y="1588" on="1"/>
        <pt x="842" y="1588" on="1"/>
        <pt x="842" y="226" on="1"/>
      </contour>
      <contour>
        <pt x="284" y="368" on="1"/>
        <pt x="700" y="368" on="1"/>
        <pt x="700" y="1447" on="1"/>
        <pt x="284" y="1447" on="1"/>
      </contour>
    </TTGlyph>
    <TTGlyph name="glyph43" xMin="142" yMin="226" xMax="842" yMax="1588">
      <contour>
        <pt x="142" y="226" on="1"/>
        <pt x="142" y="1588" on="1"/>
        <pt x="842" y="1588" on="1"/>
        <pt x="842" y="226" on="1"/>
      </contour>
      <contour>
        <pt x="284" y="368" on="1"/>
        <pt x="700" y="368" on="1"/>
        <pt x="700" y="1447" on="1"/>
        <pt x="284" y="1447" on="1"/>
      </contour>
    </TTGlyph>
    <TTGlyph name="glyph44" xMin="142" yMin="226" xMax="842" yMax="1588">
      <contour>
        <pt x="142" y="226" on="1"/>
        <pt x="142" y="1588" on="1"/>
        <pt x="842" y="1588" on="1"/>
        <pt x="842" y="226" on="1"/>
      </contour>
      <contour>
        <pt x="284" y="368" on="1"/>
        <pt x="700" y="368" on="1"/>
        <pt x="700" y="1447" on="1"/>
        <pt x="284" y="1447" on="1"/>
      </contour>
    </TTGlyph>
    <TTGlyph name="glyph45" xMin="142" yMin="226" xMax="842" yMax="1588">
      <contour>
        <pt x="142" y="226" on="1"/>
        <pt x="142" y="1588" on="1"/>
        <pt x="842" y="1588" on="1"/>
        <pt x="842" y="226" on="1"/>
      </contour>
      <contour>
        <pt x="284" y="368" on="1"/>
        <pt x="700" y="368" on="1"/>
        <pt x="700" y="1447" on="1"/>
        <pt x="284" y="1447" on="1"/>
      </contour>
    </TTGlyph>
    <TTGlyph name="glyph46" xMin="142" yMin="226" xMax="842" yMax="1588">
      <contour>
        <pt x="142" y="226" on="1"/>
        <pt x="142" y="1588" on="1"/>
        <pt x="842" y="1588" on="1"/>
        <pt x="842" y="226" on="1"/>
      </contour>
      <contour>
        <pt x="284" y="368" on="1"/>
        <pt x="700" y="368" on="1"/>
        <pt x="700" y="1447" on="1"/>
        <pt x="284" y="1447" on="1"/>
      </contour>
    </TTGlyph>
    <TTGlyph name="glyph47" xMin="142" yMin="226" xMax="842" yMax="1588">
      <contour>
        <pt x="142" y="226" on="1"/>
        <pt x="142" y="1588" on="1"/>
        <pt x="842" y="1588" on="1"/>
        <pt x="842" y="226" on="1"/>
      </contour>
      <contour>
        <pt x="284" y="368" on="1"/>
        <pt x="700" y="368" on="1"/>
        <pt x="700" y="1447" on="1"/>
        <pt x="284" y="1447" on="1"/>
      </contour>
    </TTGlyph>
    <TTGlyph name="glyph48" xMin="142" yMin="226" xMax="842" yMax="1588">
      <contour>
        <pt x="142" y="226" on="1"/>
        <pt x="142" y="1588" on="1"/>
        <pt x="842" y="1588" on="1"/>
        <pt x="842" y="226" on="1"/>
      </contour>
      <contour>
        <pt x="284" y="368" on="1"/>
        <pt x="700" y="368" on="1"/>
        <pt x="700" y="1447" on="1"/>
        <pt x="284" y="1447" on="1"/>
      </contour>
    </TTGlyph>
    <TTGlyph name="glyph50" xMin="142" yMin="226" xMax="842" yMax="1588">
      <contour>
        <pt x="142" y="226" on="1"/>
        <pt x="142" y="1588" on="1"/>
        <pt x="842" y="1588" on="1"/>
        <pt x="842" y="226" on="1"/>
      </contour>
      <contour>
        <pt x="284" y="368" on="1"/>
        <pt x="700" y="368" on="1"/>
        <pt x="700" y="1447" on="1"/>
        <pt x="284" y="1447" on="1"/>
      </contour>
    </TTGlyph>
    <TTGlyph name="glyph51" xMin="142" yMin="226" xMax="842" yMax="1588">
      <contour>
        <pt x="142" y="226" on="1"/>
        <pt x="142" y="1588" on="1"/>
        <pt x="842" y="1588" on="1"/>
        <pt x="842" y="226" on="1"/>
      </contour>
      <contour>
        <pt x="284" y="368" on="1"/>
        <pt x="700" y="368" on="1"/>
        <pt x="700" y="1447" on="1"/>
        <pt x="284" y="1447" on="1"/>
      </contour>
    </TTGlyph>
    <TTGlyph name="greater" xMin="142" yMin="226" xMax="842" yMax="1588">
      <contour>
        <pt x="142" y="226" on="1"/>
        <pt x="142" y="1588" on="1"/>
        <pt x="842" y="1588" on="1"/>
        <pt x="842" y="226" on="1"/>
      </contour>
      <contour>
        <pt x="284" y="368" on="1"/>
        <pt x="700" y="368" on="1"/>
        <pt x="700" y="1447" on="1"/>
        <pt x="284" y="1447" on="1"/>
      </contour>
    </TTGlyph>
    <TTGlyph name="hahhamzabovefinal" xMin="142" yMin="226" xMax="842" yMax="1588">
      <contour>
        <pt x="142" y="226" on="1"/>
        <pt x="142" y="1588" on="1"/>
        <pt x="842" y="1588" on="1"/>
        <pt x="842" y="226" on="1"/>
      </contour>
      <contour>
        <pt x="284" y="368" on="1"/>
        <pt x="700" y="368" on="1"/>
        <pt x="700" y="1447" on="1"/>
        <pt x="284" y="1447" on="1"/>
      </contour>
    </TTGlyph>
    <TTGlyph name="hahhamzaboveinitial" xMin="142" yMin="226" xMax="842" yMax="1588">
      <contour>
        <pt x="142" y="226" on="1"/>
        <pt x="142" y="1588" on="1"/>
        <pt x="842" y="1588" on="1"/>
        <pt x="842" y="226" on="1"/>
      </contour>
      <contour>
        <pt x="284" y="368" on="1"/>
        <pt x="700" y="368" on="1"/>
        <pt x="700" y="1447" on="1"/>
        <pt x="284" y="1447" on="1"/>
      </contour>
    </TTGlyph>
    <TTGlyph name="hahhamzabovemedial" xMin="142" yMin="226" xMax="842" yMax="1588">
      <contour>
        <pt x="142" y="226" on="1"/>
        <pt x="142" y="1588" on="1"/>
        <pt x="842" y="1588" on="1"/>
        <pt x="842" y="226" on="1"/>
      </contour>
      <contour>
        <pt x="284" y="368" on="1"/>
        <pt x="700" y="368" on="1"/>
        <pt x="700" y="1447" on="1"/>
        <pt x="284" y="1447" on="1"/>
      </contour>
    </TTGlyph>
    <TTGlyph name="hahthreedotsabovefinal" xMin="142" yMin="226" xMax="842" yMax="1588">
      <contour>
        <pt x="142" y="226" on="1"/>
        <pt x="142" y="1588" on="1"/>
        <pt x="842" y="1588" on="1"/>
        <pt x="842" y="226" on="1"/>
      </contour>
      <contour>
        <pt x="284" y="368" on="1"/>
        <pt x="700" y="368" on="1"/>
        <pt x="700" y="1447" on="1"/>
        <pt x="284" y="1447" on="1"/>
      </contour>
    </TTGlyph>
    <TTGlyph name="hahthreedotsaboveinitial" xMin="142" yMin="226" xMax="842" yMax="1588">
      <contour>
        <pt x="142" y="226" on="1"/>
        <pt x="142" y="1588" on="1"/>
        <pt x="842" y="1588" on="1"/>
        <pt x="842" y="226" on="1"/>
      </contour>
      <contour>
        <pt x="284" y="368" on="1"/>
        <pt x="700" y="368" on="1"/>
        <pt x="700" y="1447" on="1"/>
        <pt x="284" y="1447" on="1"/>
      </contour>
    </TTGlyph>
    <TTGlyph name="hahthreedotsabovemedial" xMin="142" yMin="226" xMax="842" yMax="1588">
      <contour>
        <pt x="142" y="226" on="1"/>
        <pt x="142" y="1588" on="1"/>
        <pt x="842" y="1588" on="1"/>
        <pt x="842" y="226" on="1"/>
      </contour>
      <contour>
        <pt x="284" y="368" on="1"/>
        <pt x="700" y="368" on="1"/>
        <pt x="700" y="1447" on="1"/>
        <pt x="284" y="1447" on="1"/>
      </contour>
    </TTGlyph>
    <TTGlyph name="hehdoachashmeefinalarabic" xMin="142" yMin="226" xMax="842" yMax="1588">
      <contour>
        <pt x="142" y="226" on="1"/>
        <pt x="142" y="1588" on="1"/>
        <pt x="842" y="1588" on="1"/>
        <pt x="842" y="226" on="1"/>
      </contour>
      <contour>
        <pt x="284" y="368" on="1"/>
        <pt x="700" y="368" on="1"/>
        <pt x="700" y="1447" on="1"/>
        <pt x="284" y="1447" on="1"/>
      </contour>
    </TTGlyph>
    <TTGlyph name="hehdoachashmeeinitialarabic" xMin="142" yMin="226" xMax="842" yMax="1588">
      <contour>
        <pt x="142" y="226" on="1"/>
        <pt x="142" y="1588" on="1"/>
        <pt x="842" y="1588" on="1"/>
        <pt x="842" y="226" on="1"/>
      </contour>
      <contour>
        <pt x="284" y="368" on="1"/>
        <pt x="700" y="368" on="1"/>
        <pt x="700" y="1447" on="1"/>
        <pt x="284" y="1447" on="1"/>
      </contour>
    </TTGlyph>
    <TTGlyph name="hehdoachashmeemedialarabic" xMin="142" yMin="226" xMax="842" yMax="1588">
      <contour>
        <pt x="142" y="226" on="1"/>
        <pt x="142" y="1588" on="1"/>
        <pt x="842" y="1588" on="1"/>
        <pt x="842" y="226" on="1"/>
      </contour>
      <contour>
        <pt x="284" y="368" on="1"/>
        <pt x="700" y="368" on="1"/>
        <pt x="700" y="1447" on="1"/>
        <pt x="284" y="1447" on="1"/>
      </contour>
    </TTGlyph>
    <TTGlyph name="hehfinalaltonearabic" xMin="142" yMin="226" xMax="842" yMax="1588">
      <contour>
        <pt x="142" y="226" on="1"/>
        <pt x="142" y="1588" on="1"/>
        <pt x="842" y="1588" on="1"/>
        <pt x="842" y="226" on="1"/>
      </contour>
      <contour>
        <pt x="284" y="368" on="1"/>
        <pt x="700" y="368" on="1"/>
        <pt x="700" y="1447" on="1"/>
        <pt x="284" y="1447" on="1"/>
      </contour>
    </TTGlyph>
    <TTGlyph name="hehhamzaabovefinalarabic" xMin="142" yMin="226" xMax="842" yMax="1588">
      <contour>
        <pt x="142" y="226" on="1"/>
        <pt x="142" y="1588" on="1"/>
        <pt x="842" y="1588" on="1"/>
        <pt x="842" y="226" on="1"/>
      </contour>
      <contour>
        <pt x="284" y="368" on="1"/>
        <pt x="700" y="368" on="1"/>
        <pt x="700" y="1447" on="1"/>
        <pt x="284" y="1447" on="1"/>
      </contour>
    </TTGlyph>
    <TTGlyph name="hehinitialaltonearabic" xMin="142" yMin="226" xMax="842" yMax="1588">
      <contour>
        <pt x="142" y="226" on="1"/>
        <pt x="142" y="1588" on="1"/>
        <pt x="842" y="1588" on="1"/>
        <pt x="842" y="226" on="1"/>
      </contour>
      <contour>
        <pt x="284" y="368" on="1"/>
        <pt x="700" y="368" on="1"/>
        <pt x="700" y="1447" on="1"/>
        <pt x="284" y="1447" on="1"/>
      </contour>
    </TTGlyph>
    <TTGlyph name="hehmedialaltonearabic" xMin="142" yMin="226" xMax="842" yMax="1588">
      <contour>
        <pt x="142" y="226" on="1"/>
        <pt x="142" y="1588" on="1"/>
        <pt x="842" y="1588" on="1"/>
        <pt x="842" y="226" on="1"/>
      </contour>
      <contour>
        <pt x="284" y="368" on="1"/>
        <pt x="700" y="368" on="1"/>
        <pt x="700" y="1447" on="1"/>
        <pt x="284" y="1447" on="1"/>
      </contour>
    </TTGlyph>
    <TTGlyph name="hyphen" xMin="2" yMin="-574" xMax="2490" yMax="1733">
      <contour>
        <pt x="2351" y="1007" on="1"/>
        <pt x="2312" y="983" on="1"/>
        <pt x="2312" y="994" on="0"/>
        <pt x="2299" y="1019" on="1"/>
        <pt x="2281" y="1044" on="0"/>
        <pt x="2141" y="1165" on="0"/>
        <pt x="2125" y="1187" on="1"/>
        <pt x="2048" y="1294" on="0"/>
        <pt x="2041" y="1405" on="1"/>
        <pt x="1959" y="1387" on="0"/>
        <pt x="1959" y="1208" on="1"/>
        <pt x="1959" y="1122" on="0"/>
        <pt x="1978" y="1073" on="1"/>
        <pt x="1953" y="1094" on="0"/>
        <pt x="1927" y="1115" on="1"/>
        <pt x="1919" y="1162" on="0"/>
        <pt x="1919" y="1208" on="1"/>
        <pt x="1919" y="1309" on="0"/>
        <pt x="2001" y="1457" on="0"/>
        <pt x="2071" y="1477" on="1"/>
        <pt x="2075" y="1330" on="0"/>
        <pt x="2161" y="1214" on="1"/>
        <pt x="2178" y="1191" on="0"/>
        <pt x="2259" y="1120" on="1"/>
        <pt x="2331" y="1058" on="0"/>
        <pt x="2344" y="1026" on="1"/>
        <pt x="2351" y="998" on="0"/>
      </contour>
      <contour>
        <pt x="2134" y="551" on="1"/>
        <pt x="2134" y="184" on="0"/>
        <pt x="1613" y="-335" on="0"/>
        <pt x="1246" y="-335" on="1"/>
        <pt x="880" y="-335" on="0"/>
        <pt x="359" y="184" on="0"/>
        <pt x="359" y="551" on="1"/>
        <pt x="359" y="906" on="0"/>
        <pt x="609" y="1163" on="1"/>
        <pt x="820" y="1380" on="0"/>
        <pt x="1062" y="1416" on="1"/>
        <pt x="1114" y="1424" on="0"/>
        <pt x="1155" y="1459" on="1"/>
        <pt x="1205" y="1500" on="0"/>
        <pt x="1205" y="1555" on="1"/>
        <pt x="1205" y="1613" on="0"/>
        <pt x="1120" y="1697" on="0"/>
        <pt x="1062" y="1697" on="1"/>
        <pt x="1005" y="1697" on="0"/>
        <pt x="918" y="1613" on="0"/>
        <pt x="918" y="1555" on="1"/>
        <pt x="918" y="1488" on="0"/>
        <pt x="972" y="1443" on="1"/>
        <pt x="862" y="1430" on="0"/>
        <pt x="729" y="1375" on="1"/>
        <pt x="639" y="1337" on="0"/>
        <pt x="571" y="1274" on="1"/>
        <pt x="527" y="1279" on="1"/>
        <pt x="589" y="1351" on="0"/>
        <pt x="723" y="1412" on="1"/>
        <pt x="788" y="1442" on="0"/>
        <pt x="910" y="1466" on="1"/>
        <pt x="882" y="1510" on="0"/>
        <pt x="882" y="1566" on="1"/>
        <pt x="882" y="1639" on="0"/>
        <pt x="939" y="1688" on="1"/>
        <pt x="993" y="1733" on="0"/>
        <pt x="1062" y="1733" on="1"/>
        <pt x="1135" y="1733" on="0"/>
        <pt x="1190" y="1685" on="1"/>
        <pt x="1246" y="1635" on="0"/>
        <pt x="1246" y="1562" on="1"/>
        <pt x="1246" y="1485" on="0"/>
        <pt x="1187" y="1434" on="1"/>
        <pt x="1209" y="1436" on="0"/>
        <pt x="1246" y="1436" on="1"/>
        <pt x="1286" y="1436" on="0"/>
        <pt x="1305" y="1434" on="1"/>
        <pt x="1246" y="1485" on="0"/>
        <pt x="1246" y="1562" on="1"/>
        <pt x="1246" y="1635" on="0"/>
        <pt x="1302" y="1685" on="1"/>
        <pt x="1357" y="1733" on="0"/>
        <pt x="1430" y="1733" on="1"/>
        <pt x="1500" y="1733" on="0"/>
        <pt x="1554" y="1688" on="1"/>
        <pt x="1613" y="1640" on="0"/>
        <pt x="1613" y="1566" on="1"/>
        <pt x="1613" y="1510" on="0"/>
        <pt x="1584" y="1466" on="1"/>
        <pt x="1702" y="1443" on="0"/>
        <pt x="1769" y="1412" on="1"/>
        <pt x="1902" y="1352" on="0"/>
        <pt x="1966" y="1279" on="1"/>
        <pt x="1923" y="1274" on="1"/>
        <pt x="1850" y="1339" on="0"/>
        <pt x="1764" y="1375" on="1"/>
        <pt x="1627" y="1431" on="0"/>
        <pt x="1520" y="1443" on="1"/>
        <pt x="1572" y="1486" on="0"/>
        <pt x="1572" y="1555" on="1"/>
        <pt x="1572" y="1613" on="0"/>
        <pt x="1488" y="1697" on="0"/>
        <pt x="1430" y="1697" on="1"/>
        <pt x="1373" y="1697" on="0"/>
        <pt x="1288" y="1613" on="0"/>
        <pt x="1288" y="1555" on="1"/>
        <pt x="1288" y="1500" on="0"/>
        <pt x="1337" y="1459" on="1"/>
        <pt x="1378" y="1424" on="0"/>
        <pt x="1430" y="1416" on="1"/>
        <pt x="1674" y="1380" on="0"/>
        <pt x="1885" y="1163" on="1"/>
        <pt x="2134" y="907" on="0"/>
      </contour>
      <contour>
        <pt x="567" y="1115" on="1"/>
        <pt x="512" y="1068" on="0"/>
        <pt x="514" y="1073" on="1"/>
        <pt x="534" y="1123" on="0"/>
        <pt x="534" y="1209" on="1"/>
        <pt x="534" y="1387" on="0"/>
        <pt x="453" y="1405" on="1"/>
        <pt x="446" y="1291" on="0"/>
        <pt x="370" y="1187" on="1"/>
        <pt x="353" y="1165" on="0"/>
        <pt x="212" y="1044" on="0"/>
        <pt x="194" y="1019" on="1"/>
        <pt x="181" y="994" on="0"/>
        <pt x="181" y="983" on="1"/>
        <pt x="143" y="1007" on="1"/>
        <pt x="143" y="1017" on="0"/>
        <pt x="150" y="1026" on="1"/>
        <pt x="163" y="1058" on="0"/>
        <pt x="235" y="1120" on="1"/>
        <pt x="317" y="1191" on="0"/>
        <pt x="334" y="1214" on="1"/>
        <pt x="417" y="1325" on="0"/>
        <pt x="423" y="1477" on="1"/>
        <pt x="493" y="1457" on="0"/>
        <pt x="575" y="1308" on="0"/>
        <pt x="575" y="1207" on="1"/>
        <pt x="575" y="1162" on="0"/>
      </contour>
      <contour>
        <pt x="2490" y="1068" on="1"/>
        <pt x="2424" y="970" on="0"/>
        <pt x="2431" y="789" on="1"/>
        <pt x="2433" y="754" on="0"/>
        <pt x="2476" y="610" on="0"/>
        <pt x="2478" y="580" on="1"/>
        <pt x="2479" y="544" on="0"/>
        <pt x="2418" y="473" on="0"/>
        <pt x="2386" y="473" on="1"/>
        <pt x="2338" y="473" on="0"/>
        <pt x="2317" y="496" on="1"/>
        <pt x="2317" y="53" on="0"/>
        <pt x="1691" y="-574" on="0"/>
        <pt x="1246" y="-574" on="1"/>
        <pt x="802" y="-574" on="0"/>
        <pt x="175" y="53" on="0"/>
        <pt x="175" y="496" on="1"/>
        <pt x="154" y="473" on="0"/>
        <pt x="108" y="473" on="1"/>
        <pt x="77" y="473" on="0"/>
        <pt x="13" y="544" on="0"/>
        <pt x="15" y="580" on="1"/>
        <pt x="17" y="611" on="0"/>
        <pt x="60" y="755" on="0"/>
        <pt x="62" y="789" on="1"/>
        <pt x="69" y="970" on="0"/>
        <pt x="2" y="1068" on="1"/>
        <pt x="198" y="1056" on="0"/>
        <pt x="257" y="911" on="1"/>
        <pt x="253" y="792" on="1"/>
        <pt x="248" y="863" on="0"/>
        <pt x="204" y="928" on="1"/>
        <pt x="150" y="1011" on="0"/>
        <pt x="65" y="1014" on="1"/>
        <pt x="103" y="958" on="0"/>
        <pt x="103" y="789" on="1"/>
        <pt x="103" y="758" on="0"/>
        <pt x="83" y="690" on="1"/>
        <pt x="61" y="618" on="0"/>
        <pt x="59" y="592" on="1"/>
        <pt x="57" y="518" on="0"/>
        <pt x="129" y="518" on="1"/>
        <pt x="167" y="518" on="0"/>
        <pt x="199" y="569" on="1"/>
        <pt x="209" y="582" on="0"/>
        <pt x="221" y="597" on="1"/>
        <pt x="215" y="537" on="0"/>
        <pt x="215" y="496" on="1"/>
        <pt x="215" y="76" on="0"/>
        <pt x="824" y="-521" on="0"/>
        <pt x="1246" y="-521" on="1"/>
        <pt x="1669" y="-521" on="0"/>
        <pt x="2279" y="76" on="0"/>
        <pt x="2279" y="496" on="1"/>
        <pt x="2279" y="537" on="0"/>
        <pt x="2274" y="597" on="1"/>
        <pt x="2285" y="583" on="0"/>
        <pt x="2295" y="569" on="1"/>
        <pt x="2328" y="518" on="0"/>
        <pt x="2364" y="518" on="1"/>
        <pt x="2438" y="518" on="0"/>
        <pt x="2435" y="592" on="1"/>
        <pt x="2433" y="619" on="0"/>
        <pt x="2410" y="690" on="1"/>
        <pt x="2389" y="758" on="0"/>
        <pt x="2389" y="789" on="1"/>
        <pt x="2389" y="955" on="0"/>
        <pt x="2429" y="1014" on="1"/>
        <pt x="2345" y="1011" on="0"/>
        <pt x="2288" y="928" on="1"/>
        <pt x="2245" y="863" on="0"/>
        <pt x="2240" y="792" on="1"/>
        <pt x="2238" y="911" on="1"/>
        <pt x="2297" y="1056" on="0"/>
      </contour>
      <contour>
        <pt x="2089" y="551" on="1"/>
        <pt x="2089" y="897" on="0"/>
        <pt x="1853" y="1135" on="1"/>
        <pt x="1671" y="1320" on="0"/>
        <pt x="1434" y="1375" on="1"/>
        <pt x="1355" y="1393" on="0"/>
        <pt x="1246" y="1393" on="1"/>
        <pt x="1139" y="1393" on="0"/>
        <pt x="1060" y="1375" on="1"/>
        <pt x="823" y="1320" on="0"/>
        <pt x="640" y="1135" on="1"/>
        <pt x="406" y="898" on="0"/>
        <pt x="406" y="551" on="1"/>
        <pt x="406" y="201" on="0"/>
        <pt x="897" y="-291" on="0"/>
        <pt x="1246" y="-291" on="1"/>
        <pt x="1597" y="-291" on="0"/>
        <pt x="2089" y="201" on="0"/>
      </contour>
      <contour>
        <pt x="1549" y="483" on="1"/>
        <pt x="1549" y="457" on="0"/>
        <pt x="1484" y="388" on="0"/>
        <pt x="1459" y="388" on="1"/>
        <pt x="1426" y="388" on="0"/>
        <pt x="1395" y="421" on="1"/>
        <pt x="1369" y="450" on="0"/>
        <pt x="1369" y="469" on="1"/>
        <pt x="1369" y="488" on="0"/>
        <pt x="1395" y="525" on="1"/>
        <pt x="1424" y="569" on="0"/>
        <pt x="1454" y="569" on="1"/>
        <pt x="1481" y="569" on="0"/>
        <pt x="1549" y="504" on="0"/>
      </contour>
      <contour>
        <pt x="1239" y="778" on="1"/>
        <pt x="1239" y="745" on="0"/>
        <pt x="1193" y="698" on="0"/>
        <pt x="1169" y="698" on="1"/>
        <pt x="1158" y="698" on="0"/>
        <pt x="1107" y="709" on="0"/>
        <pt x="1093" y="709" on="1"/>
        <pt x="1060" y="709" on="0"/>
        <pt x="1052" y="705" on="1"/>
        <pt x="1039" y="697" on="0"/>
        <pt x="1039" y="668" on="1"/>
        <pt x="1039" y="644" on="0"/>
        <pt x="1084" y="514" on="1"/>
        <pt x="1119" y="419" on="0"/>
        <pt x="1119" y="313" on="1"/>
        <pt x="1119" y="301" on="0"/>
        <pt x="1109" y="250" on="0"/>
        <pt x="1109" y="241" on="1"/>
        <pt x="1103" y="236" on="0"/>
        <pt x="1078" y="223" on="0"/>
        <pt x="1074" y="217" on="1"/>
        <pt x="1052" y="251" on="0"/>
        <pt x="984" y="452" on="1"/>
        <pt x="919" y="643" on="0"/>
        <pt x="919" y="653" on="1"/>
        <pt x="919" y="722" on="0"/>
        <pt x="1049" y="849" on="0"/>
        <pt x="1119" y="849" on="1"/>
        <pt x="1156" y="849" on="0"/>
        <pt x="1239" y="804" on="0"/>
      </contour>
    </TTGlyph>
    <TTGlyph name="irghizufinal" xMin="142" yMin="226" xMax="842" yMax="1588">
      <contour>
        <pt x="142" y="226" on="1"/>
        <pt x="142" y="1588" on="1"/>
        <pt x="842" y="1588" on="1"/>
        <pt x="842" y="226" on="1"/>
      </contour>
      <contour>
        <pt x="284" y="368" on="1"/>
        <pt x="700" y="368" on="1"/>
        <pt x="700" y="1447" on="1"/>
        <pt x="284" y="1447" on="1"/>
      </contour>
    </TTGlyph>
    <TTGlyph name="jehfinalarabic" xMin="142" yMin="226" xMax="842" yMax="1588">
      <contour>
        <pt x="142" y="226" on="1"/>
        <pt x="142" y="1588" on="1"/>
        <pt x="842" y="1588" on="1"/>
        <pt x="842" y="226" on="1"/>
      </contour>
      <contour>
        <pt x="284" y="368" on="1"/>
        <pt x="700" y="368" on="1"/>
        <pt x="700" y="1447" on="1"/>
        <pt x="284" y="1447" on="1"/>
      </contour>
    </TTGlyph>
    <TTGlyph name="kafringfinal" xMin="142" yMin="226" xMax="842" yMax="1588">
      <contour>
        <pt x="142" y="226" on="1"/>
        <pt x="142" y="1588" on="1"/>
        <pt x="842" y="1588" on="1"/>
        <pt x="842" y="226" on="1"/>
      </contour>
      <contour>
        <pt x="284" y="368" on="1"/>
        <pt x="700" y="368" on="1"/>
        <pt x="700" y="1447" on="1"/>
        <pt x="284" y="1447" on="1"/>
      </contour>
    </TTGlyph>
    <TTGlyph name="kafringinitial" xMin="142" yMin="226" xMax="842" yMax="1588">
      <contour>
        <pt x="142" y="226" on="1"/>
        <pt x="142" y="1588" on="1"/>
        <pt x="842" y="1588" on="1"/>
        <pt x="842" y="226" on="1"/>
      </contour>
      <contour>
        <pt x="284" y="368" on="1"/>
        <pt x="700" y="368" on="1"/>
        <pt x="700" y="1447" on="1"/>
        <pt x="284" y="1447" on="1"/>
      </contour>
    </TTGlyph>
    <TTGlyph name="kafringmedial" xMin="142" yMin="226" xMax="842" yMax="1588">
      <contour>
        <pt x="142" y="226" on="1"/>
        <pt x="142" y="1588" on="1"/>
        <pt x="842" y="1588" on="1"/>
        <pt x="842" y="226" on="1"/>
      </contour>
      <contour>
        <pt x="284" y="368" on="1"/>
        <pt x="700" y="368" on="1"/>
        <pt x="700" y="1447" on="1"/>
        <pt x="284" y="1447" on="1"/>
      </contour>
    </TTGlyph>
    <TTGlyph name="kashidaautoarabic" xMin="142" yMin="226" xMax="842" yMax="1588">
      <contour>
        <pt x="142" y="226" on="1"/>
        <pt x="142" y="1588" on="1"/>
        <pt x="842" y="1588" on="1"/>
        <pt x="842" y="226" on="1"/>
      </contour>
      <contour>
        <pt x="284" y="368" on="1"/>
        <pt x="700" y="368" on="1"/>
        <pt x="700" y="1447" on="1"/>
        <pt x="284" y="1447" on="1"/>
      </contour>
    </TTGlyph>
    <TTGlyph name="kashidaautonosidebearingarabic" xMin="142" yMin="226" xMax="842" yMax="1588">
      <contour>
        <pt x="142" y="226" on="1"/>
        <pt x="142" y="1588" on="1"/>
        <pt x="842" y="1588" on="1"/>
        <pt x="842" y="226" on="1"/>
      </contour>
      <contour>
        <pt x="284" y="368" on="1"/>
        <pt x="700" y="368" on="1"/>
        <pt x="700" y="1447" on="1"/>
        <pt x="284" y="1447" on="1"/>
      </contour>
    </TTGlyph>
    <TTGlyph name="kehehfinalarabic" xMin="142" yMin="226" xMax="842" yMax="1588">
      <contour>
        <pt x="142" y="226" on="1"/>
        <pt x="142" y="1588" on="1"/>
        <pt x="842" y="1588" on="1"/>
        <pt x="842" y="226" on="1"/>
      </contour>
      <contour>
        <pt x="284" y="368" on="1"/>
        <pt x="700" y="368" on="1"/>
        <pt x="700" y="1447" on="1"/>
        <pt x="284" y="1447" on="1"/>
      </contour>
    </TTGlyph>
    <TTGlyph name="kehehinitialarabic" xMin="142" yMin="226" xMax="842" yMax="1588">
      <contour>
        <pt x="142" y="226" on="1"/>
        <pt x="142" y="1588" on="1"/>
        <pt x="842" y="1588" on="1"/>
        <pt x="842" y="226" on="1"/>
      </contour>
      <contour>
        <pt x="284" y="368" on="1"/>
        <pt x="700" y="368" on="1"/>
        <pt x="700" y="1447" on="1"/>
        <pt x="284" y="1447" on="1"/>
      </contour>
    </TTGlyph>
    <TTGlyph name="kehehmedialarabic" xMin="142" yMin="226" xMax="842" yMax="1588">
      <contour>
        <pt x="142" y="226" on="1"/>
        <pt x="142" y="1588" on="1"/>
        <pt x="842" y="1588" on="1"/>
        <pt x="842" y="226" on="1"/>
      </contour>
      <contour>
        <pt x="284" y="368" on="1"/>
        <pt x="700" y="368" on="1"/>
        <pt x="700" y="1447" on="1"/>
        <pt x="284" y="1447" on="1"/>
      </contour>
    </TTGlyph>
    <TTGlyph name="kirghizyifinal" xMin="142" yMin="226" xMax="842" yMax="1588">
      <contour>
        <pt x="142" y="226" on="1"/>
        <pt x="142" y="1588" on="1"/>
        <pt x="842" y="1588" on="1"/>
        <pt x="842" y="226" on="1"/>
      </contour>
      <contour>
        <pt x="284" y="368" on="1"/>
        <pt x="700" y="368" on="1"/>
        <pt x="700" y="1447" on="1"/>
        <pt x="284" y="1447" on="1"/>
      </contour>
    </TTGlyph>
    <TTGlyph name="lammeemjeeminitialarabic" xMin="142" yMin="226" xMax="842" yMax="1588">
      <contour>
        <pt x="142" y="226" on="1"/>
        <pt x="142" y="1588" on="1"/>
        <pt x="842" y="1588" on="1"/>
        <pt x="842" y="226" on="1"/>
      </contour>
      <contour>
        <pt x="284" y="368" on="1"/>
        <pt x="700" y="368" on="1"/>
        <pt x="700" y="1447" on="1"/>
        <pt x="284" y="1447" on="1"/>
      </contour>
    </TTGlyph>
    <TTGlyph name="lammeemkhahinitialarabic" xMin="142" yMin="226" xMax="842" yMax="1588">
      <contour>
        <pt x="142" y="226" on="1"/>
        <pt x="142" y="1588" on="1"/>
        <pt x="842" y="1588" on="1"/>
        <pt x="842" y="226" on="1"/>
      </contour>
      <contour>
        <pt x="284" y="368" on="1"/>
        <pt x="700" y="368" on="1"/>
        <pt x="700" y="1447" on="1"/>
        <pt x="284" y="1447" on="1"/>
      </contour>
    </TTGlyph>
    <TTGlyph name="lamthreedotsabovefinal" xMin="142" yMin="226" xMax="842" yMax="1588">
      <contour>
        <pt x="142" y="226" on="1"/>
        <pt x="142" y="1588" on="1"/>
        <pt x="842" y="1588" on="1"/>
        <pt x="842" y="226" on="1"/>
      </contour>
      <contour>
        <pt x="284" y="368" on="1"/>
        <pt x="700" y="368" on="1"/>
        <pt x="700" y="1447" on="1"/>
        <pt x="284" y="1447" on="1"/>
      </contour>
    </TTGlyph>
    <TTGlyph name="lamthreedotsaboveinitial" xMin="142" yMin="226" xMax="842" yMax="1588">
      <contour>
        <pt x="142" y="226" on="1"/>
        <pt x="142" y="1588" on="1"/>
        <pt x="842" y="1588" on="1"/>
        <pt x="842" y="226" on="1"/>
      </contour>
      <contour>
        <pt x="284" y="368" on="1"/>
        <pt x="700" y="368" on="1"/>
        <pt x="700" y="1447" on="1"/>
        <pt x="284" y="1447" on="1"/>
      </contour>
    </TTGlyph>
    <TTGlyph name="lamthreedotsabovemedial" xMin="142" yMin="226" xMax="842" yMax="1588">
      <contour>
        <pt x="142" y="226" on="1"/>
        <pt x="142" y="1588" on="1"/>
        <pt x="842" y="1588" on="1"/>
        <pt x="842" y="226" on="1"/>
      </contour>
      <contour>
        <pt x="284" y="368" on="1"/>
        <pt x="700" y="368" on="1"/>
        <pt x="700" y="1447" on="1"/>
        <pt x="284" y="1447" on="1"/>
      </contour>
    </TTGlyph>
    <TTGlyph name="less" xMin="142" yMin="226" xMax="842" yMax="1588">
      <contour>
        <pt x="142" y="226" on="1"/>
        <pt x="142" y="1588" on="1"/>
        <pt x="842" y="1588" on="1"/>
        <pt x="842" y="226" on="1"/>
      </contour>
      <contour>
        <pt x="284" y="368" on="1"/>
        <pt x="700" y="368" on="1"/>
        <pt x="700" y="1447" on="1"/>
        <pt x="284" y="1447" on="1"/>
      </contour>
    </TTGlyph>
    <TTGlyph name="meemmeemisolatedarabic" xMin="142" yMin="226" xMax="842" yMax="1588">
      <contour>
        <pt x="142" y="226" on="1"/>
        <pt x="142" y="1588" on="1"/>
        <pt x="842" y="1588" on="1"/>
        <pt x="842" y="226" on="1"/>
      </contour>
      <contour>
        <pt x="284" y="368" on="1"/>
        <pt x="700" y="368" on="1"/>
        <pt x="700" y="1447" on="1"/>
        <pt x="284" y="1447" on="1"/>
      </contour>
    </TTGlyph>
    <TTGlyph name="multiply" xMin="142" yMin="226" xMax="842" yMax="1588">
      <contour>
        <pt x="142" y="226" on="1"/>
        <pt x="142" y="1588" on="1"/>
        <pt x="842" y="1588" on="1"/>
        <pt x="842" y="226" on="1"/>
      </contour>
      <contour>
        <pt x="284" y="368" on="1"/>
        <pt x="700" y="368" on="1"/>
        <pt x="700" y="1447" on="1"/>
        <pt x="284" y="1447" on="1"/>
      </contour>
    </TTGlyph>
    <TTGlyph name="noonghunnafinalarabic" xMin="142" yMin="226" xMax="842" yMax="1588">
      <contour>
        <pt x="142" y="226" on="1"/>
        <pt x="142" y="1588" on="1"/>
        <pt x="842" y="1588" on="1"/>
        <pt x="842" y="226" on="1"/>
      </contour>
      <contour>
        <pt x="284" y="368" on="1"/>
        <pt x="700" y="368" on="1"/>
        <pt x="700" y="1447" on="1"/>
        <pt x="284" y="1447" on="1"/>
      </contour>
    </TTGlyph>
    <TTGlyph name="noonjeemisolatedarabic" xMin="142" yMin="226" xMax="842" yMax="1588">
      <contour>
        <pt x="142" y="226" on="1"/>
        <pt x="142" y="1588" on="1"/>
        <pt x="842" y="1588" on="1"/>
        <pt x="842" y="226" on="1"/>
      </contour>
      <contour>
        <pt x="284" y="368" on="1"/>
        <pt x="700" y="368" on="1"/>
        <pt x="700" y="1447" on="1"/>
        <pt x="284" y="1447" on="1"/>
      </contour>
    </TTGlyph>
    <TTGlyph name="noonmeemisolatedarabic" xMin="142" yMin="226" xMax="842" yMax="1588">
      <contour>
        <pt x="142" y="226" on="1"/>
        <pt x="142" y="1588" on="1"/>
        <pt x="842" y="1588" on="1"/>
        <pt x="842" y="226" on="1"/>
      </contour>
      <contour>
        <pt x="284" y="368" on="1"/>
        <pt x="700" y="368" on="1"/>
        <pt x="700" y="1447" on="1"/>
        <pt x="284" y="1447" on="1"/>
      </contour>
    </TTGlyph>
    <TTGlyph name="noonringfinal" xMin="142" yMin="226" xMax="842" yMax="1588">
      <contour>
        <pt x="142" y="226" on="1"/>
        <pt x="142" y="1588" on="1"/>
        <pt x="842" y="1588" on="1"/>
        <pt x="842" y="226" on="1"/>
      </contour>
      <contour>
        <pt x="284" y="368" on="1"/>
        <pt x="700" y="368" on="1"/>
        <pt x="700" y="1447" on="1"/>
        <pt x="284" y="1447" on="1"/>
      </contour>
    </TTGlyph>
    <TTGlyph name="noonringinitial" xMin="142" yMin="226" xMax="842" yMax="1588">
      <contour>
        <pt x="142" y="226" on="1"/>
        <pt x="142" y="1588" on="1"/>
        <pt x="842" y="1588" on="1"/>
        <pt x="842" y="226" on="1"/>
      </contour>
      <contour>
        <pt x="284" y="368" on="1"/>
        <pt x="700" y="368" on="1"/>
        <pt x="700" y="1447" on="1"/>
        <pt x="284" y="1447" on="1"/>
      </contour>
    </TTGlyph>
    <TTGlyph name="noonringmedial" xMin="142" yMin="226" xMax="842" yMax="1588">
      <contour>
        <pt x="142" y="226" on="1"/>
        <pt x="142" y="1588" on="1"/>
        <pt x="842" y="1588" on="1"/>
        <pt x="842" y="226" on="1"/>
      </contour>
      <contour>
        <pt x="284" y="368" on="1"/>
        <pt x="700" y="368" on="1"/>
        <pt x="700" y="1447" on="1"/>
        <pt x="284" y="1447" on="1"/>
      </contour>
    </TTGlyph>
    <TTGlyph name="numbersign" xMin="142" yMin="226" xMax="842" yMax="1588">
      <contour>
        <pt x="142" y="226" on="1"/>
        <pt x="142" y="1588" on="1"/>
        <pt x="842" y="1588" on="1"/>
        <pt x="842" y="226" on="1"/>
      </contour>
      <contour>
        <pt x="284" y="368" on="1"/>
        <pt x="700" y="368" on="1"/>
        <pt x="700" y="1447" on="1"/>
        <pt x="284" y="1447" on="1"/>
      </contour>
    </TTGlyph>
    <TTGlyph name="parenleft" xMin="142" yMin="226" xMax="842" yMax="1588">
      <contour>
        <pt x="142" y="226" on="1"/>
        <pt x="142" y="1588" on="1"/>
        <pt x="842" y="1588" on="1"/>
        <pt x="842" y="226" on="1"/>
      </contour>
      <contour>
        <pt x="284" y="368" on="1"/>
        <pt x="700" y="368" on="1"/>
        <pt x="700" y="1447" on="1"/>
        <pt x="284" y="1447" on="1"/>
      </contour>
    </TTGlyph>
    <TTGlyph name="parenright" xMin="142" yMin="226" xMax="842" yMax="1588">
      <contour>
        <pt x="142" y="226" on="1"/>
        <pt x="142" y="1588" on="1"/>
        <pt x="842" y="1588" on="1"/>
        <pt x="842" y="226" on="1"/>
      </contour>
      <contour>
        <pt x="284" y="368" on="1"/>
        <pt x="700" y="368" on="1"/>
        <pt x="700" y="1447" on="1"/>
        <pt x="284" y="1447" on="1"/>
      </contour>
    </TTGlyph>
    <TTGlyph name="pashtoefinal" xMin="142" yMin="226" xMax="842" yMax="1588">
      <contour>
        <pt x="142" y="226" on="1"/>
        <pt x="142" y="1588" on="1"/>
        <pt x="842" y="1588" on="1"/>
        <pt x="842" y="226" on="1"/>
      </contour>
      <contour>
        <pt x="284" y="368" on="1"/>
        <pt x="700" y="368" on="1"/>
        <pt x="700" y="1447" on="1"/>
        <pt x="284" y="1447" on="1"/>
      </contour>
    </TTGlyph>
    <TTGlyph name="pashtoeinitial" xMin="142" yMin="226" xMax="842" yMax="1588">
      <contour>
        <pt x="142" y="226" on="1"/>
        <pt x="142" y="1588" on="1"/>
        <pt x="842" y="1588" on="1"/>
        <pt x="842" y="226" on="1"/>
      </contour>
      <contour>
        <pt x="284" y="368" on="1"/>
        <pt x="700" y="368" on="1"/>
        <pt x="700" y="1447" on="1"/>
        <pt x="284" y="1447" on="1"/>
      </contour>
    </TTGlyph>
    <TTGlyph name="pashtoemedial" xMin="142" yMin="226" xMax="842" yMax="1588">
      <contour>
        <pt x="142" y="226" on="1"/>
        <pt x="142" y="1588" on="1"/>
        <pt x="842" y="1588" on="1"/>
        <pt x="842" y="226" on="1"/>
      </contour>
      <contour>
        <pt x="284" y="368" on="1"/>
        <pt x="700" y="368" on="1"/>
        <pt x="700" y="1447" on="1"/>
        <pt x="284" y="1447" on="1"/>
      </contour>
    </TTGlyph>
    <TTGlyph name="pehfinalarabic" xMin="142" yMin="226" xMax="842" yMax="1588">
      <contour>
        <pt x="142" y="226" on="1"/>
        <pt x="142" y="1588" on="1"/>
        <pt x="842" y="1588" on="1"/>
        <pt x="842" y="226" on="1"/>
      </contour>
      <contour>
        <pt x="284" y="368" on="1"/>
        <pt x="700" y="368" on="1"/>
        <pt x="700" y="1447" on="1"/>
        <pt x="284" y="1447" on="1"/>
      </contour>
    </TTGlyph>
    <TTGlyph name="pehinitialarabic" xMin="142" yMin="226" xMax="842" yMax="1588">
      <contour>
        <pt x="142" y="226" on="1"/>
        <pt x="142" y="1588" on="1"/>
        <pt x="842" y="1588" on="1"/>
        <pt x="842" y="226" on="1"/>
      </contour>
      <contour>
        <pt x="284" y="368" on="1"/>
        <pt x="700" y="368" on="1"/>
        <pt x="700" y="1447" on="1"/>
        <pt x="284" y="1447" on="1"/>
      </contour>
    </TTGlyph>
    <TTGlyph name="pehmedialarabic" xMin="142" yMin="226" xMax="842" yMax="1588">
      <contour>
        <pt x="142" y="226" on="1"/>
        <pt x="142" y="1588" on="1"/>
        <pt x="842" y="1588" on="1"/>
        <pt x="842" y="226" on="1"/>
      </contour>
      <contour>
        <pt x="284" y="368" on="1"/>
        <pt x="700" y="368" on="1"/>
        <pt x="700" y="1447" on="1"/>
        <pt x="284" y="1447" on="1"/>
      </contour>
    </TTGlyph>
    <TTGlyph name="percent" xMin="142" yMin="226" xMax="842" yMax="1588">
      <contour>
        <pt x="142" y="226" on="1"/>
        <pt x="142" y="1588" on="1"/>
        <pt x="842" y="1588" on="1"/>
        <pt x="842" y="226" on="1"/>
      </contour>
      <contour>
        <pt x="284" y="368" on="1"/>
        <pt x="700" y="368" on="1"/>
        <pt x="700" y="1447" on="1"/>
        <pt x="284" y="1447" on="1"/>
      </contour>
    </TTGlyph>
    <TTGlyph name="period" xMin="142" yMin="226" xMax="842" yMax="1588">
      <contour>
        <pt x="142" y="226" on="1"/>
        <pt x="142" y="1588" on="1"/>
        <pt x="842" y="1588" on="1"/>
        <pt x="842" y="226" on="1"/>
      </contour>
      <contour>
        <pt x="284" y="368" on="1"/>
        <pt x="700" y="368" on="1"/>
        <pt x="700" y="1447" on="1"/>
        <pt x="284" y="1447" on="1"/>
      </contour>
    </TTGlyph>
    <TTGlyph name="plus" xMin="142" yMin="226" xMax="842" yMax="1588">
      <contour>
        <pt x="142" y="226" on="1"/>
        <pt x="142" y="1588" on="1"/>
        <pt x="842" y="1588" on="1"/>
        <pt x="842" y="226" on="1"/>
      </contour>
      <contour>
        <pt x="284" y="368" on="1"/>
        <pt x="700" y="368" on="1"/>
        <pt x="700" y="1447" on="1"/>
        <pt x="284" y="1447" on="1"/>
      </contour>
    </TTGlyph>
    <TTGlyph name="quotedbl" xMin="142" yMin="226" xMax="842" yMax="1588">
      <contour>
        <pt x="142" y="226" on="1"/>
        <pt x="142" y="1588" on="1"/>
        <pt x="842" y="1588" on="1"/>
        <pt x="842" y="226" on="1"/>
      </contour>
      <contour>
        <pt x="284" y="368" on="1"/>
        <pt x="700" y="368" on="1"/>
        <pt x="700" y="1447" on="1"/>
        <pt x="284" y="1447" on="1"/>
      </contour>
    </TTGlyph>
    <TTGlyph name="quotesingle" xMin="142" yMin="226" xMax="842" yMax="1588">
      <contour>
        <pt x="142" y="226" on="1"/>
        <pt x="142" y="1588" on="1"/>
        <pt x="842" y="1588" on="1"/>
        <pt x="842" y="226" on="1"/>
      </contour>
      <contour>
        <pt x="284" y="368" on="1"/>
        <pt x="700" y="368" on="1"/>
        <pt x="700" y="1447" on="1"/>
        <pt x="284" y="1447" on="1"/>
      </contour>
    </TTGlyph>
    <TTGlyph name="rehdotbelowdotabovefinal" xMin="142" yMin="226" xMax="842" yMax="1588">
      <contour>
        <pt x="142" y="226" on="1"/>
        <pt x="142" y="1588" on="1"/>
        <pt x="842" y="1588" on="1"/>
        <pt x="842" y="226" on="1"/>
      </contour>
      <contour>
        <pt x="284" y="368" on="1"/>
        <pt x="700" y="368" on="1"/>
        <pt x="700" y="1447" on="1"/>
        <pt x="284" y="1447" on="1"/>
      </contour>
    </TTGlyph>
    <TTGlyph name="rehringfinal" xMin="142" yMin="226" xMax="842" yMax="1588">
      <contour>
        <pt x="142" y="226" on="1"/>
        <pt x="142" y="1588" on="1"/>
        <pt x="842" y="1588" on="1"/>
        <pt x="842" y="226" on="1"/>
      </contour>
      <contour>
        <pt x="284" y="368" on="1"/>
        <pt x="700" y="368" on="1"/>
        <pt x="700" y="1447" on="1"/>
        <pt x="284" y="1447" on="1"/>
      </contour>
    </TTGlyph>
    <TTGlyph name="rrehfinalarabic" xMin="142" yMin="226" xMax="842" yMax="1588">
      <contour>
        <pt x="142" y="226" on="1"/>
        <pt x="142" y="1588" on="1"/>
        <pt x="842" y="1588" on="1"/>
        <pt x="842" y="226" on="1"/>
      </contour>
      <contour>
        <pt x="284" y="368" on="1"/>
        <pt x="700" y="368" on="1"/>
        <pt x="700" y="1447" on="1"/>
        <pt x="284" y="1447" on="1"/>
      </contour>
    </TTGlyph>
    <TTGlyph name="seendotbelowdotabovefinal" xMin="142" yMin="226" xMax="842" yMax="1588">
      <contour>
        <pt x="142" y="226" on="1"/>
        <pt x="142" y="1588" on="1"/>
        <pt x="842" y="1588" on="1"/>
        <pt x="842" y="226" on="1"/>
      </contour>
      <contour>
        <pt x="284" y="368" on="1"/>
        <pt x="700" y="368" on="1"/>
        <pt x="700" y="1447" on="1"/>
        <pt x="284" y="1447" on="1"/>
      </contour>
    </TTGlyph>
    <TTGlyph name="seendotbelowdotaboveinitial" xMin="142" yMin="226" xMax="842" yMax="1588">
      <contour>
        <pt x="142" y="226" on="1"/>
        <pt x="142" y="1588" on="1"/>
        <pt x="842" y="1588" on="1"/>
        <pt x="842" y="226" on="1"/>
      </contour>
      <contour>
        <pt x="284" y="368" on="1"/>
        <pt x="700" y="368" on="1"/>
        <pt x="700" y="1447" on="1"/>
        <pt x="284" y="1447" on="1"/>
      </contour>
    </TTGlyph>
    <TTGlyph name="seendotbelowdotabovemedial" xMin="142" yMin="226" xMax="842" yMax="1588">
      <contour>
        <pt x="142" y="226" on="1"/>
        <pt x="142" y="1588" on="1"/>
        <pt x="842" y="1588" on="1"/>
        <pt x="842" y="226" on="1"/>
      </contour>
      <contour>
        <pt x="284" y="368" on="1"/>
        <pt x="700" y="368" on="1"/>
        <pt x="700" y="1447" on="1"/>
        <pt x="284" y="1447" on="1"/>
      </contour>
    </TTGlyph>
    <TTGlyph name="shaddadammaarabic" xMin="142" yMin="226" xMax="842" yMax="1588">
      <contour>
        <pt x="142" y="226" on="1"/>
        <pt x="142" y="1588" on="1"/>
        <pt x="842" y="1588" on="1"/>
        <pt x="842" y="226" on="1"/>
      </contour>
      <contour>
        <pt x="284" y="368" on="1"/>
        <pt x="700" y="368" on="1"/>
        <pt x="700" y="1447" on="1"/>
        <pt x="284" y="1447" on="1"/>
      </contour>
    </TTGlyph>
    <TTGlyph name="shaddadammatanarabic" xMin="142" yMin="226" xMax="842" yMax="1588">
      <contour>
        <pt x="142" y="226" on="1"/>
        <pt x="142" y="1588" on="1"/>
        <pt x="842" y="1588" on="1"/>
        <pt x="842" y="226" on="1"/>
      </contour>
      <contour>
        <pt x="284" y="368" on="1"/>
        <pt x="700" y="368" on="1"/>
        <pt x="700" y="1447" on="1"/>
        <pt x="284" y="1447" on="1"/>
      </contour>
    </TTGlyph>
    <TTGlyph name="shaddafathaarabic" xMin="142" yMin="226" xMax="842" yMax="1588">
      <contour>
        <pt x="142" y="226" on="1"/>
        <pt x="142" y="1588" on="1"/>
        <pt x="842" y="1588" on="1"/>
        <pt x="842" y="226" on="1"/>
      </contour>
      <contour>
        <pt x="284" y="368" on="1"/>
        <pt x="700" y="368" on="1"/>
        <pt x="700" y="1447" on="1"/>
        <pt x="284" y="1447" on="1"/>
      </contour>
    </TTGlyph>
    <TTGlyph name="shaddakasraarabic" xMin="142" yMin="226" xMax="842" yMax="1588">
      <contour>
        <pt x="142" y="226" on="1"/>
        <pt x="142" y="1588" on="1"/>
        <pt x="842" y="1588" on="1"/>
        <pt x="842" y="226" on="1"/>
      </contour>
      <contour>
        <pt x="284" y="368" on="1"/>
        <pt x="700" y="368" on="1"/>
        <pt x="700" y="1447" on="1"/>
        <pt x="284" y="1447" on="1"/>
      </contour>
    </TTGlyph>
    <TTGlyph name="shaddakasratanarabic" xMin="142" yMin="226" xMax="842" yMax="1588">
      <contour>
        <pt x="142" y="226" on="1"/>
        <pt x="142" y="1588" on="1"/>
        <pt x="842" y="1588" on="1"/>
        <pt x="842" y="226" on="1"/>
      </contour>
      <contour>
        <pt x="284" y="368" on="1"/>
        <pt x="700" y="368" on="1"/>
        <pt x="700" y="1447" on="1"/>
        <pt x="284" y="1447" on="1"/>
      </contour>
    </TTGlyph>
    <TTGlyph name="slash" xMin="142" yMin="226" xMax="842" yMax="1588">
      <contour>
        <pt x="142" y="226" on="1"/>
        <pt x="142" y="1588" on="1"/>
        <pt x="842" y="1588" on="1"/>
        <pt x="842" y="226" on="1"/>
      </contour>
      <contour>
        <pt x="284" y="368" on="1"/>
        <pt x="700" y="368" on="1"/>
        <pt x="700" y="1447" on="1"/>
        <pt x="284" y="1447" on="1"/>
      </contour>
    </TTGlyph>
    <TTGlyph name="space" xMin="142" yMin="226" xMax="842" yMax="1588">
      <contour>
        <pt x="142" y="226" on="1"/>
        <pt x="142" y="1588" on="1"/>
        <pt x="842" y="1588" on="1"/>
        <pt x="842" y="226" on="1"/>
      </contour>
      <contour>
        <pt x="284" y="368" on="1"/>
        <pt x="700" y="368" on="1"/>
        <pt x="700" y="1447" on="1"/>
        <pt x="284" y="1447" on="1"/>
      </contour>
    </TTGlyph>
    <TTGlyph name="tchehfinalarabic" xMin="142" yMin="226" xMax="842" yMax="1588">
      <contour>
        <pt x="142" y="226" on="1"/>
        <pt x="142" y="1588" on="1"/>
        <pt x="842" y="1588" on="1"/>
        <pt x="842" y="226" on="1"/>
      </contour>
      <contour>
        <pt x="284" y="368" on="1"/>
        <pt x="700" y="368" on="1"/>
        <pt x="700" y="1447" on="1"/>
        <pt x="284" y="1447" on="1"/>
      </contour>
    </TTGlyph>
    <TTGlyph name="tchehinitialarabic" xMin="142" yMin="226" xMax="842" yMax="1588">
      <contour>
        <pt x="142" y="226" on="1"/>
        <pt x="142" y="1588" on="1"/>
        <pt x="842" y="1588" on="1"/>
        <pt x="842" y="226" on="1"/>
      </contour>
      <contour>
        <pt x="284" y="368" on="1"/>
        <pt x="700" y="368" on="1"/>
        <pt x="700" y="1447" on="1"/>
        <pt x="284" y="1447" on="1"/>
      </contour>
    </TTGlyph>
    <TTGlyph name="tchehmedialarabic" xMin="142" yMin="226" xMax="842" yMax="1588">
      <contour>
        <pt x="142" y="226" on="1"/>
        <pt x="142" y="1588" on="1"/>
        <pt x="842" y="1588" on="1"/>
        <pt x="842" y="226" on="1"/>
      </contour>
      <contour>
        <pt x="284" y="368" on="1"/>
        <pt x="700" y="368" on="1"/>
        <pt x="700" y="1447" on="1"/>
        <pt x="284" y="1447" on="1"/>
      </contour>
    </TTGlyph>
    <TTGlyph name="tehhahisolatedarabic" xMin="142" yMin="226" xMax="842" yMax="1588">
      <contour>
        <pt x="142" y="226" on="1"/>
        <pt x="142" y="1588" on="1"/>
        <pt x="842" y="1588" on="1"/>
        <pt x="842" y="226" on="1"/>
      </contour>
      <contour>
        <pt x="284" y="368" on="1"/>
        <pt x="700" y="368" on="1"/>
        <pt x="700" y="1447" on="1"/>
        <pt x="284" y="1447" on="1"/>
      </contour>
    </TTGlyph>
    <TTGlyph name="tehjeemisolatedarabic" xMin="142" yMin="226" xMax="842" yMax="1588">
      <contour>
        <pt x="142" y="226" on="1"/>
        <pt x="142" y="1588" on="1"/>
        <pt x="842" y="1588" on="1"/>
        <pt x="842" y="226" on="1"/>
      </contour>
      <contour>
        <pt x="284" y="368" on="1"/>
        <pt x="700" y="368" on="1"/>
        <pt x="700" y="1447" on="1"/>
        <pt x="284" y="1447" on="1"/>
      </contour>
    </TTGlyph>
    <TTGlyph name="tehmeemisolatedarabic" xMin="142" yMin="226" xMax="842" yMax="1588">
      <contour>
        <pt x="142" y="226" on="1"/>
        <pt x="142" y="1588" on="1"/>
        <pt x="842" y="1588" on="1"/>
        <pt x="842" y="226" on="1"/>
      </contour>
      <contour>
        <pt x="284" y="368" on="1"/>
        <pt x="700" y="368" on="1"/>
        <pt x="700" y="1447" on="1"/>
        <pt x="284" y="1447" on="1"/>
      </contour>
    </TTGlyph>
    <TTGlyph name="tehnoonfinalarabic" xMin="142" yMin="226" xMax="842" yMax="1588">
      <contour>
        <pt x="142" y="226" on="1"/>
        <pt x="142" y="1588" on="1"/>
        <pt x="842" y="1588" on="1"/>
        <pt x="842" y="226" on="1"/>
      </contour>
      <contour>
        <pt x="284" y="368" on="1"/>
        <pt x="700" y="368" on="1"/>
        <pt x="700" y="1447" on="1"/>
        <pt x="284" y="1447" on="1"/>
      </contour>
    </TTGlyph>
    <TTGlyph name="tehringfinal" xMin="142" yMin="226" xMax="842" yMax="1588">
      <contour>
        <pt x="142" y="226" on="1"/>
        <pt x="142" y="1588" on="1"/>
        <pt x="842" y="1588" on="1"/>
        <pt x="842" y="226" on="1"/>
      </contour>
      <contour>
        <pt x="284" y="368" on="1"/>
        <pt x="700" y="368" on="1"/>
        <pt x="700" y="1447" on="1"/>
        <pt x="284" y="1447" on="1"/>
      </contour>
    </TTGlyph>
    <TTGlyph name="tehringinitial" xMin="142" yMin="226" xMax="842" yMax="1588">
      <contour>
        <pt x="142" y="226" on="1"/>
        <pt x="142" y="1588" on="1"/>
        <pt x="842" y="1588" on="1"/>
        <pt x="842" y="226" on="1"/>
      </contour>
      <contour>
        <pt x="284" y="368" on="1"/>
        <pt x="700" y="368" on="1"/>
        <pt x="700" y="1447" on="1"/>
        <pt x="284" y="1447" on="1"/>
      </contour>
    </TTGlyph>
    <TTGlyph name="tehringmedial" xMin="142" yMin="226" xMax="842" yMax="1588">
      <contour>
        <pt x="142" y="226" on="1"/>
        <pt x="142" y="1588" on="1"/>
        <pt x="842" y="1588" on="1"/>
        <pt x="842" y="226" on="1"/>
      </contour>
      <contour>
        <pt x="284" y="368" on="1"/>
        <pt x="700" y="368" on="1"/>
        <pt x="700" y="1447" on="1"/>
        <pt x="284" y="1447" on="1"/>
      </contour>
    </TTGlyph>
    <TTGlyph name="ttehfinalarabic" xMin="142" yMin="226" xMax="842" yMax="1588">
      <contour>
        <pt x="142" y="226" on="1"/>
        <pt x="142" y="1588" on="1"/>
        <pt x="842" y="1588" on="1"/>
        <pt x="842" y="226" on="1"/>
      </contour>
      <contour>
        <pt x="284" y="368" on="1"/>
        <pt x="700" y="368" on="1"/>
        <pt x="700" y="1447" on="1"/>
        <pt x="284" y="1447" on="1"/>
      </contour>
    </TTGlyph>
    <TTGlyph name="ttehinitialarabic" xMin="142" yMin="226" xMax="842" yMax="1588">
      <contour>
        <pt x="142" y="226" on="1"/>
        <pt x="142" y="1588" on="1"/>
        <pt x="842" y="1588" on="1"/>
        <pt x="842" y="226" on="1"/>
      </contour>
      <contour>
        <pt x="284" y="368" on="1"/>
        <pt x="700" y="368" on="1"/>
        <pt x="700" y="1447" on="1"/>
        <pt x="284" y="1447" on="1"/>
      </contour>
    </TTGlyph>
    <TTGlyph name="ttehmedialarabic" xMin="142" yMin="226" xMax="842" yMax="1588">
      <contour>
        <pt x="142" y="226" on="1"/>
        <pt x="142" y="1588" on="1"/>
        <pt x="842" y="1588" on="1"/>
        <pt x="842" y="226" on="1"/>
      </contour>
      <contour>
        <pt x="284" y="368" on="1"/>
        <pt x="700" y="368" on="1"/>
        <pt x="700" y="1447" on="1"/>
        <pt x="284" y="1447" on="1"/>
      </contour>
    </TTGlyph>
    <TTGlyph name="uni000D" xMin="142" yMin="226" xMax="842" yMax="1588">
      <contour>
        <pt x="142" y="226" on="1"/>
        <pt x="142" y="1588" on="1"/>
        <pt x="842" y="1588" on="1"/>
        <pt x="842" y="226" on="1"/>
      </contour>
      <contour>
        <pt x="284" y="368" on="1"/>
        <pt x="700" y="368" on="1"/>
        <pt x="700" y="1447" on="1"/>
        <pt x="284" y="1447" on="1"/>
      </contour>
    </TTGlyph>
    <TTGlyph name="uni00A0" xMin="142" yMin="226" xMax="842" yMax="1588">
      <contour>
        <pt x="142" y="226" on="1"/>
        <pt x="142" y="1588" on="1"/>
        <pt x="842" y="1588" on="1"/>
        <pt x="842" y="226" on="1"/>
      </contour>
      <contour>
        <pt x="284" y="368" on="1"/>
        <pt x="700" y="368" on="1"/>
        <pt x="700" y="1447" on="1"/>
        <pt x="284" y="1447" on="1"/>
      </contour>
    </TTGlyph>
    <TTGlyph name="uni00AD" xMin="142" yMin="226" xMax="842" yMax="1588">
      <contour>
        <pt x="142" y="226" on="1"/>
        <pt x="142" y="1588" on="1"/>
        <pt x="842" y="1588" on="1"/>
        <pt x="842" y="226" on="1"/>
      </contour>
      <contour>
        <pt x="284" y="368" on="1"/>
        <pt x="700" y="368" on="1"/>
        <pt x="700" y="1447" on="1"/>
        <pt x="284" y="1447" on="1"/>
      </contour>
    </TTGlyph>
    <TTGlyph name="uni0653" xMin="142" yMin="226" xMax="842" yMax="1588">
      <contour>
        <pt x="142" y="226" on="1"/>
        <pt x="142" y="1588" on="1"/>
        <pt x="842" y="1588" on="1"/>
        <pt x="842" y="226" on="1"/>
      </contour>
      <contour>
        <pt x="284" y="368" on="1"/>
        <pt x="700" y="368" on="1"/>
        <pt x="700" y="1447" on="1"/>
        <pt x="284" y="1447" on="1"/>
      </contour>
    </TTGlyph>
    <TTGlyph name="uni0654" xMin="142" yMin="226" xMax="842" yMax="1588">
      <contour>
        <pt x="142" y="226" on="1"/>
        <pt x="142" y="1588" on="1"/>
        <pt x="842" y="1588" on="1"/>
        <pt x="842" y="226" on="1"/>
      </contour>
      <contour>
        <pt x="284" y="368" on="1"/>
        <pt x="700" y="368" on="1"/>
        <pt x="700" y="1447" on="1"/>
        <pt x="284" y="1447" on="1"/>
      </contour>
    </TTGlyph>
    <TTGlyph name="uni0655" xMin="142" yMin="226" xMax="842" yMax="1588">
      <contour>
        <pt x="142" y="226" on="1"/>
        <pt x="142" y="1588" on="1"/>
        <pt x="842" y="1588" on="1"/>
        <pt x="842" y="226" on="1"/>
      </contour>
      <contour>
        <pt x="284" y="368" on="1"/>
        <pt x="700" y="368" on="1"/>
        <pt x="700" y="1447" on="1"/>
        <pt x="284" y="1447" on="1"/>
      </contour>
    </TTGlyph>
    <TTGlyph name="uni066B" xMin="142" yMin="226" xMax="842" yMax="1588">
      <contour>
        <pt x="142" y="226" on="1"/>
        <pt x="142" y="1588" on="1"/>
        <pt x="842" y="1588" on="1"/>
        <pt x="842" y="226" on="1"/>
      </contour>
      <contour>
        <pt x="284" y="368" on="1"/>
        <pt x="700" y="368" on="1"/>
        <pt x="700" y="1447" on="1"/>
        <pt x="284" y="1447" on="1"/>
      </contour>
    </TTGlyph>
    <TTGlyph name="uni066C" xMin="142" yMin="226" xMax="842" yMax="1588">
      <contour>
        <pt x="142" y="226" on="1"/>
        <pt x="142" y="1588" on="1"/>
        <pt x="842" y="1588" on="1"/>
        <pt x="842" y="226" on="1"/>
      </contour>
      <contour>
        <pt x="284" y="368" on="1"/>
        <pt x="700" y="368" on="1"/>
        <pt x="700" y="1447" on="1"/>
        <pt x="284" y="1447" on="1"/>
      </contour>
    </TTGlyph>
    <TTGlyph name="uni0671" xMin="142" yMin="226" xMax="842" yMax="1588">
      <contour>
        <pt x="142" y="226" on="1"/>
        <pt x="142" y="1588" on="1"/>
        <pt x="842" y="1588" on="1"/>
        <pt x="842" y="226" on="1"/>
      </contour>
      <contour>
        <pt x="284" y="368" on="1"/>
        <pt x="700" y="368" on="1"/>
        <pt x="700" y="1447" on="1"/>
        <pt x="284" y="1447" on="1"/>
      </contour>
    </TTGlyph>
    <TTGlyph name="uni067C" xMin="142" yMin="226" xMax="842" yMax="1588">
      <contour>
        <pt x="142" y="226" on="1"/>
        <pt x="142" y="1588" on="1"/>
        <pt x="842" y="1588" on="1"/>
        <pt x="842" y="226" on="1"/>
      </contour>
      <contour>
        <pt x="284" y="368" on="1"/>
        <pt x="700" y="368" on="1"/>
        <pt x="700" y="1447" on="1"/>
        <pt x="284" y="1447" on="1"/>
      </contour>
    </TTGlyph>
    <TTGlyph name="uni0681" xMin="142" yMin="226" xMax="842" yMax="1588">
      <contour>
        <pt x="142" y="226" on="1"/>
        <pt x="142" y="1588" on="1"/>
        <pt x="842" y="1588" on="1"/>
        <pt x="842" y="226" on="1"/>
      </contour>
      <contour>
        <pt x="284" y="368" on="1"/>
        <pt x="700" y="368" on="1"/>
        <pt x="700" y="1447" on="1"/>
        <pt x="284" y="1447" on="1"/>
      </contour>
    </TTGlyph>
    <TTGlyph name="uni0685" xMin="142" yMin="226" xMax="842" yMax="1588">
      <contour>
        <pt x="142" y="226" on="1"/>
        <pt x="142" y="1588" on="1"/>
        <pt x="842" y="1588" on="1"/>
        <pt x="842" y="226" on="1"/>
      </contour>
      <contour>
        <pt x="284" y="368" on="1"/>
        <pt x="700" y="368" on="1"/>
        <pt x="700" y="1447" on="1"/>
        <pt x="284" y="1447" on="1"/>
      </contour>
    </TTGlyph>
    <TTGlyph name="uni0689" xMin="142" yMin="226" xMax="842" yMax="1588">
      <contour>
        <pt x="142" y="226" on="1"/>
        <pt x="142" y="1588" on="1"/>
        <pt x="842" y="1588" on="1"/>
        <pt x="842" y="226" on="1"/>
      </contour>
      <contour>
        <pt x="284" y="368" on="1"/>
        <pt x="700" y="368" on="1"/>
        <pt x="700" y="1447" on="1"/>
        <pt x="284" y="1447" on="1"/>
      </contour>
    </TTGlyph>
    <TTGlyph name="uni0693" xMin="142" yMin="226" xMax="842" yMax="1588">
      <contour>
        <pt x="142" y="226" on="1"/>
        <pt x="142" y="1588" on="1"/>
        <pt x="842" y="1588" on="1"/>
        <pt x="842" y="226" on="1"/>
      </contour>
      <contour>
        <pt x="284" y="368" on="1"/>
        <pt x="700" y="368" on="1"/>
        <pt x="700" y="1447" on="1"/>
        <pt x="284" y="1447" on="1"/>
      </contour>
    </TTGlyph>
    <TTGlyph name="uni0696" xMin="142" yMin="226" xMax="842" yMax="1588">
      <contour>
        <pt x="142" y="226" on="1"/>
        <pt x="142" y="1588" on="1"/>
        <pt x="842" y="1588" on="1"/>
        <pt x="842" y="226" on="1"/>
      </contour>
      <contour>
        <pt x="284" y="368" on="1"/>
        <pt x="700" y="368" on="1"/>
        <pt x="700" y="1447" on="1"/>
        <pt x="284" y="1447" on="1"/>
      </contour>
    </TTGlyph>
    <TTGlyph name="uni069A" xMin="142" yMin="226" xMax="842" yMax="1588">
      <contour>
        <pt x="142" y="226" on="1"/>
        <pt x="142" y="1588" on="1"/>
        <pt x="842" y="1588" on="1"/>
        <pt x="842" y="226" on="1"/>
      </contour>
      <contour>
        <pt x="284" y="368" on="1"/>
        <pt x="700" y="368" on="1"/>
        <pt x="700" y="1447" on="1"/>
        <pt x="284" y="1447" on="1"/>
      </contour>
    </TTGlyph>
    <TTGlyph name="uni06A9" xMin="142" yMin="226" xMax="842" yMax="1588">
      <contour>
        <pt x="142" y="226" on="1"/>
        <pt x="142" y="1588" on="1"/>
        <pt x="842" y="1588" on="1"/>
        <pt x="842" y="226" on="1"/>
      </contour>
      <contour>
        <pt x="284" y="368" on="1"/>
        <pt x="700" y="368" on="1"/>
        <pt x="700" y="1447" on="1"/>
        <pt x="284" y="1447" on="1"/>
      </contour>
    </TTGlyph>
    <TTGlyph name="uni06AB" xMin="142" yMin="226" xMax="842" yMax="1588">
      <contour>
        <pt x="142" y="226" on="1"/>
        <pt x="142" y="1588" on="1"/>
        <pt x="842" y="1588" on="1"/>
        <pt x="842" y="226" on="1"/>
      </contour>
      <contour>
        <pt x="284" y="368" on="1"/>
        <pt x="700" y="368" on="1"/>
        <pt x="700" y="1447" on="1"/>
        <pt x="284" y="1447" on="1"/>
      </contour>
    </TTGlyph>
    <TTGlyph name="uni06B7" xMin="142" yMin="226" xMax="842" yMax="1588">
      <contour>
        <pt x="142" y="226" on="1"/>
        <pt x="142" y="1588" on="1"/>
        <pt x="842" y="1588" on="1"/>
        <pt x="842" y="226" on="1"/>
      </contour>
      <contour>
        <pt x="284" y="368" on="1"/>
        <pt x="700" y="368" on="1"/>
        <pt x="700" y="1447" on="1"/>
        <pt x="284" y="1447" on="1"/>
      </contour>
    </TTGlyph>
    <TTGlyph name="uni06BC" xMin="142" yMin="226" xMax="842" yMax="1588">
      <contour>
        <pt x="142" y="226" on="1"/>
        <pt x="142" y="1588" on="1"/>
        <pt x="842" y="1588" on="1"/>
        <pt x="842" y="226" on="1"/>
      </contour>
      <contour>
        <pt x="284" y="368" on="1"/>
        <pt x="700" y="368" on="1"/>
        <pt x="700" y="1447" on="1"/>
        <pt x="284" y="1447" on="1"/>
      </contour>
    </TTGlyph>
    <TTGlyph name="uni06BE" xMin="142" yMin="226" xMax="842" yMax="1588">
      <contour>
        <pt x="142" y="226" on="1"/>
        <pt x="142" y="1588" on="1"/>
        <pt x="842" y="1588" on="1"/>
        <pt x="842" y="226" on="1"/>
      </contour>
      <contour>
        <pt x="284" y="368" on="1"/>
        <pt x="700" y="368" on="1"/>
        <pt x="700" y="1447" on="1"/>
        <pt x="284" y="1447" on="1"/>
      </contour>
    </TTGlyph>
    <TTGlyph name="uni06C2" xMin="142" yMin="226" xMax="842" yMax="1588">
      <contour>
        <pt x="142" y="226" on="1"/>
        <pt x="142" y="1588" on="1"/>
        <pt x="842" y="1588" on="1"/>
        <pt x="842" y="226" on="1"/>
      </contour>
      <contour>
        <pt x="284" y="368" on="1"/>
        <pt x="700" y="368" on="1"/>
        <pt x="700" y="1447" on="1"/>
        <pt x="284" y="1447" on="1"/>
      </contour>
    </TTGlyph>
    <TTGlyph name="uni06C7" xMin="142" yMin="226" xMax="842" yMax="1588">
      <contour>
        <pt x="142" y="226" on="1"/>
        <pt x="142" y="1588" on="1"/>
        <pt x="842" y="1588" on="1"/>
        <pt x="842" y="226" on="1"/>
      </contour>
      <contour>
        <pt x="284" y="368" on="1"/>
        <pt x="700" y="368" on="1"/>
        <pt x="700" y="1447" on="1"/>
        <pt x="284" y="1447" on="1"/>
      </contour>
    </TTGlyph>
    <TTGlyph name="uni06C9" xMin="142" yMin="226" xMax="842" yMax="1588">
      <contour>
        <pt x="142" y="226" on="1"/>
        <pt x="142" y="1588" on="1"/>
        <pt x="842" y="1588" on="1"/>
        <pt x="842" y="226" on="1"/>
      </contour>
      <contour>
        <pt x="284" y="368" on="1"/>
        <pt x="700" y="368" on="1"/>
        <pt x="700" y="1447" on="1"/>
        <pt x="284" y="1447" on="1"/>
      </contour>
    </TTGlyph>
    <TTGlyph name="uni06CC" xMin="142" yMin="226" xMax="842" yMax="1588">
      <contour>
        <pt x="142" y="226" on="1"/>
        <pt x="142" y="1588" on="1"/>
        <pt x="842" y="1588" on="1"/>
        <pt x="842" y="226" on="1"/>
      </contour>
      <contour>
        <pt x="284" y="368" on="1"/>
        <pt x="700" y="368" on="1"/>
        <pt x="700" y="1447" on="1"/>
        <pt x="284" y="1447" on="1"/>
      </contour>
    </TTGlyph>
    <TTGlyph name="uni06CD" xMin="142" yMin="226" xMax="842" yMax="1588">
      <contour>
        <pt x="142" y="226" on="1"/>
        <pt x="142" y="1588" on="1"/>
        <pt x="842" y="1588" on="1"/>
        <pt x="842" y="226" on="1"/>
      </contour>
      <contour>
        <pt x="284" y="368" on="1"/>
        <pt x="700" y="368" on="1"/>
        <pt x="700" y="1447" on="1"/>
        <pt x="284" y="1447" on="1"/>
      </contour>
    </TTGlyph>
    <TTGlyph name="uni06D0" xMin="142" yMin="226" xMax="842" yMax="1588">
      <contour>
        <pt x="142" y="226" on="1"/>
        <pt x="142" y="1588" on="1"/>
        <pt x="842" y="1588" on="1"/>
        <pt x="842" y="226" on="1"/>
      </contour>
      <contour>
        <pt x="284" y="368" on="1"/>
        <pt x="700" y="368" on="1"/>
        <pt x="700" y="1447" on="1"/>
        <pt x="284" y="1447" on="1"/>
      </contour>
    </TTGlyph>
    <TTGlyph name="uni06D1" xMin="142" yMin="226" xMax="842" yMax="1588">
      <contour>
        <pt x="142" y="226" on="1"/>
        <pt x="142" y="1588" on="1"/>
        <pt x="842" y="1588" on="1"/>
        <pt x="842" y="226" on="1"/>
      </contour>
      <contour>
        <pt x="284" y="368" on="1"/>
        <pt x="700" y="368" on="1"/>
        <pt x="700" y="1447" on="1"/>
        <pt x="284" y="1447" on="1"/>
      </contour>
    </TTGlyph>
    <TTGlyph name="uni06D3" xMin="142" yMin="226" xMax="842" yMax="1588">
      <contour>
        <pt x="142" y="226" on="1"/>
        <pt x="142" y="1588" on="1"/>
        <pt x="842" y="1588" on="1"/>
        <pt x="842" y="226" on="1"/>
      </contour>
      <contour>
        <pt x="284" y="368" on="1"/>
        <pt x="700" y="368" on="1"/>
        <pt x="700" y="1447" on="1"/>
        <pt x="284" y="1447" on="1"/>
      </contour>
    </TTGlyph>
    <TTGlyph name="uni06D4" xMin="142" yMin="226" xMax="842" yMax="1588">
      <contour>
        <pt x="142" y="226" on="1"/>
        <pt x="142" y="1588" on="1"/>
        <pt x="842" y="1588" on="1"/>
        <pt x="842" y="226" on="1"/>
      </contour>
      <contour>
        <pt x="284" y="368" on="1"/>
        <pt x="700" y="368" on="1"/>
        <pt x="700" y="1447" on="1"/>
        <pt x="284" y="1447" on="1"/>
      </contour>
    </TTGlyph>
    <TTGlyph name="uni06F0" xMin="142" yMin="226" xMax="842" yMax="1588">
      <contour>
        <pt x="142" y="226" on="1"/>
        <pt x="142" y="1588" on="1"/>
        <pt x="842" y="1588" on="1"/>
        <pt x="842" y="226" on="1"/>
      </contour>
      <contour>
        <pt x="284" y="368" on="1"/>
        <pt x="700" y="368" on="1"/>
        <pt x="700" y="1447" on="1"/>
        <pt x="284" y="1447" on="1"/>
      </contour>
    </TTGlyph>
    <TTGlyph name="uni06F1" xMin="142" yMin="226" xMax="842" yMax="1588">
      <contour>
        <pt x="142" y="226" on="1"/>
        <pt x="142" y="1588" on="1"/>
        <pt x="842" y="1588" on="1"/>
        <pt x="842" y="226" on="1"/>
      </contour>
      <contour>
        <pt x="284" y="368" on="1"/>
        <pt x="700" y="368" on="1"/>
        <pt x="700" y="1447" on="1"/>
        <pt x="284" y="1447" on="1"/>
      </contour>
    </TTGlyph>
    <TTGlyph name="uni06F2" xMin="142" yMin="226" xMax="842" yMax="1588">
      <contour>
        <pt x="142" y="226" on="1"/>
        <pt x="142" y="1588" on="1"/>
        <pt x="842" y="1588" on="1"/>
        <pt x="842" y="226" on="1"/>
      </contour>
      <contour>
        <pt x="284" y="368" on="1"/>
        <pt x="700" y="368" on="1"/>
        <pt x="700" y="1447" on="1"/>
        <pt x="284" y="1447" on="1"/>
      </contour>
    </TTGlyph>
    <TTGlyph name="uni06F3" xMin="142" yMin="226" xMax="842" yMax="1588">
      <contour>
        <pt x="142" y="226" on="1"/>
        <pt x="142" y="1588" on="1"/>
        <pt x="842" y="1588" on="1"/>
        <pt x="842" y="226" on="1"/>
      </contour>
      <contour>
        <pt x="284" y="368" on="1"/>
        <pt x="700" y="368" on="1"/>
        <pt x="700" y="1447" on="1"/>
        <pt x="284" y="1447" on="1"/>
      </contour>
    </TTGlyph>
    <TTGlyph name="uni06F4" xMin="142" yMin="226" xMax="842" yMax="1588">
      <contour>
        <pt x="142" y="226" on="1"/>
        <pt x="142" y="1588" on="1"/>
        <pt x="842" y="1588" on="1"/>
        <pt x="842" y="226" on="1"/>
      </contour>
      <contour>
        <pt x="284" y="368" on="1"/>
        <pt x="700" y="368" on="1"/>
        <pt x="700" y="1447" on="1"/>
        <pt x="284" y="1447" on="1"/>
      </contour>
    </TTGlyph>
    <TTGlyph name="uni06F5" xMin="142" yMin="226" xMax="842" yMax="1588">
      <contour>
        <pt x="142" y="226" on="1"/>
        <pt x="142" y="1588" on="1"/>
        <pt x="842" y="1588" on="1"/>
        <pt x="842" y="226" on="1"/>
      </contour>
      <contour>
        <pt x="284" y="368" on="1"/>
        <pt x="700" y="368" on="1"/>
        <pt x="700" y="1447" on="1"/>
        <pt x="284" y="1447" on="1"/>
      </contour>
    </TTGlyph>
    <TTGlyph name="uni06F6" xMin="142" yMin="226" xMax="842" yMax="1588">
      <contour>
        <pt x="142" y="226" on="1"/>
        <pt x="142" y="1588" on="1"/>
        <pt x="842" y="1588" on="1"/>
        <pt x="842" y="226" on="1"/>
      </contour>
      <contour>
        <pt x="284" y="368" on="1"/>
        <pt x="700" y="368" on="1"/>
        <pt x="700" y="1447" on="1"/>
        <pt x="284" y="1447" on="1"/>
      </contour>
    </TTGlyph>
    <TTGlyph name="uni06F7" xMin="142" yMin="226" xMax="842" yMax="1588">
      <contour>
        <pt x="142" y="226" on="1"/>
        <pt x="142" y="1588" on="1"/>
        <pt x="842" y="1588" on="1"/>
        <pt x="842" y="226" on="1"/>
      </contour>
      <contour>
        <pt x="284" y="368" on="1"/>
        <pt x="700" y="368" on="1"/>
        <pt x="700" y="1447" on="1"/>
        <pt x="284" y="1447" on="1"/>
      </contour>
    </TTGlyph>
    <TTGlyph name="uni06F8" xMin="142" yMin="226" xMax="842" yMax="1588">
      <contour>
        <pt x="142" y="226" on="1"/>
        <pt x="142" y="1588" on="1"/>
        <pt x="842" y="1588" on="1"/>
        <pt x="842" y="226" on="1"/>
      </contour>
      <contour>
        <pt x="284" y="368" on="1"/>
        <pt x="700" y="368" on="1"/>
        <pt x="700" y="1447" on="1"/>
        <pt x="284" y="1447" on="1"/>
      </contour>
    </TTGlyph>
    <TTGlyph name="uni06F9" xMin="142" yMin="226" xMax="842" yMax="1588">
      <contour>
        <pt x="142" y="226" on="1"/>
        <pt x="142" y="1588" on="1"/>
        <pt x="842" y="1588" on="1"/>
        <pt x="842" y="226" on="1"/>
      </contour>
      <contour>
        <pt x="284" y="368" on="1"/>
        <pt x="700" y="368" on="1"/>
        <pt x="700" y="1447" on="1"/>
        <pt x="284" y="1447" on="1"/>
      </contour>
    </TTGlyph>
    <TTGlyph name="uni2010" xMin="2" yMin="-574" xMax="2490" yMax="1733">
      <contour>
        <pt x="2351" y="1007" on="1"/>
        <pt x="2312" y="983" on="1"/>
        <pt x="2312" y="994" on="0"/>
        <pt x="2299" y="1019" on="1"/>
        <pt x="2281" y="1044" on="0"/>
        <pt x="2141" y="1165" on="0"/>
        <pt x="2125" y="1187" on="1"/>
        <pt x="2048" y="1294" on="0"/>
        <pt x="2041" y="1405" on="1"/>
        <pt x="1959" y="1387" on="0"/>
        <pt x="1959" y="1208" on="1"/>
        <pt x="1959" y="1122" on="0"/>
        <pt x="1978" y="1073" on="1"/>
        <pt x="1953" y="1094" on="0"/>
        <pt x="1927" y="1115" on="1"/>
        <pt x="1919" y="1162" on="0"/>
        <pt x="1919" y="1208" on="1"/>
        <pt x="1919" y="1309" on="0"/>
        <pt x="2001" y="1457" on="0"/>
        <pt x="2071" y="1477" on="1"/>
        <pt x="2075" y="1330" on="0"/>
        <pt x="2161" y="1214" on="1"/>
        <pt x="2178" y="1191" on="0"/>
        <pt x="2259" y="1120" on="1"/>
        <pt x="2331" y="1058" on="0"/>
        <pt x="2344" y="1026" on="1"/>
        <pt x="2351" y="998" on="0"/>
      </contour>
      <contour>
        <pt x="2134" y="551" on="1"/>
        <pt x="2134" y="184" on="0"/>
        <pt x="1613" y="-335" on="0"/>
        <pt x="1246" y="-335" on="1"/>
        <pt x="880" y="-335" on="0"/>
        <pt x="359" y="184" on="0"/>
        <pt x="359" y="551" on="1"/>
        <pt x="359" y="906" on="0"/>
        <pt x="609" y="1163" on="1"/>
        <pt x="820" y="1380" on="0"/>
        <pt x="1062" y="1416" on="1"/>
        <pt x="1114" y="1424" on="0"/>
        <pt x="1155" y="1459" on="1"/>
        <pt x="1205" y="1500" on="0"/>
        <pt x="1205" y="1555" on="1"/>
        <pt x="1205" y="1613" on="0"/>
        <pt x="1120" y="1697" on="0"/>
        <pt x="1062" y="1697" on="1"/>
        <pt x="1005" y="1697" on="0"/>
        <pt x="918" y="1613" on="0"/>
        <pt x="918" y="1555" on="1"/>
        <pt x="918" y="1488" on="0"/>
        <pt x="972" y="1443" on="1"/>
        <pt x="862" y="1430" on="0"/>
        <pt x="729" y="1375" on="1"/>
        <pt x="639" y="1337" on="0"/>
        <pt x="571" y="1274" on="1"/>
        <pt x="527" y="1279" on="1"/>
        <pt x="589" y="1351" on="0"/>
        <pt x="723" y="1412" on="1"/>
        <pt x="788" y="1442" on="0"/>
        <pt x="910" y="1466" on="1"/>
        <pt x="882" y="1510" on="0"/>
        <pt x="882" y="1566" on="1"/>
        <pt x="882" y="1639" on="0"/>
        <pt x="939" y="1688" on="1"/>
        <pt x="993" y="1733" on="0"/>
        <pt x="1062" y="1733" on="1"/>
        <pt x="1135" y="1733" on="0"/>
        <pt x="1190" y="1685" on="1"/>
        <pt x="1246" y="1635" on="0"/>
        <pt x="1246" y="1562" on="1"/>
        <pt x="1246" y="1485" on="0"/>
        <pt x="1187" y="1434" on="1"/>
        <pt x="1209" y="1436" on="0"/>
        <pt x="1246" y="1436" on="1"/>
        <pt x="1286" y="1436" on="0"/>
        <pt x="1305" y="1434" on="1"/>
        <pt x="1246" y="1485" on="0"/>
        <pt x="1246" y="1562" on="1"/>
        <pt x="1246" y="1635" on="0"/>
        <pt x="1302" y="1685" on="1"/>
        <pt x="1357" y="1733" on="0"/>
        <pt x="1430" y="1733" on="1"/>
        <pt x="1500" y="1733" on="0"/>
        <pt x="1554" y="1688" on="1"/>
        <pt x="1613" y="1640" on="0"/>
        <pt x="1613" y="1566" on="1"/>
        <pt x="1613" y="1510" on="0"/>
        <pt x="1584" y="1466" on="1"/>
        <pt x="1702" y="1443" on="0"/>
        <pt x="1769" y="1412" on="1"/>
        <pt x="1902" y="1352" on="0"/>
        <pt x="1966" y="1279" on="1"/>
        <pt x="1923" y="1274" on="1"/>
        <pt x="1850" y="1339" on="0"/>
        <pt x="1764" y="1375" on="1"/>
        <pt x="1627" y="1431" on="0"/>
        <pt x="1520" y="1443" on="1"/>
        <pt x="1572" y="1486" on="0"/>
        <pt x="1572" y="1555" on="1"/>
        <pt x="1572" y="1613" on="0"/>
        <pt x="1488" y="1697" on="0"/>
        <pt x="1430" y="1697" on="1"/>
        <pt x="1373" y="1697" on="0"/>
        <pt x="1288" y="1613" on="0"/>
        <pt x="1288" y="1555" on="1"/>
        <pt x="1288" y="1500" on="0"/>
        <pt x="1337" y="1459" on="1"/>
        <pt x="1378" y="1424" on="0"/>
        <pt x="1430" y="1416" on="1"/>
        <pt x="1674" y="1380" on="0"/>
        <pt x="1885" y="1163" on="1"/>
        <pt x="2134" y="907" on="0"/>
      </contour>
      <contour>
        <pt x="567" y="1115" on="1"/>
        <pt x="512" y="1068" on="0"/>
        <pt x="514" y="1073" on="1"/>
        <pt x="534" y="1123" on="0"/>
        <pt x="534" y="1209" on="1"/>
        <pt x="534" y="1387" on="0"/>
        <pt x="453" y="1405" on="1"/>
        <pt x="446" y="1291" on="0"/>
        <pt x="370" y="1187" on="1"/>
        <pt x="353" y="1165" on="0"/>
        <pt x="212" y="1044" on="0"/>
        <pt x="194" y="1019" on="1"/>
        <pt x="181" y="994" on="0"/>
        <pt x="181" y="983" on="1"/>
        <pt x="143" y="1007" on="1"/>
        <pt x="143" y="1017" on="0"/>
        <pt x="150" y="1026" on="1"/>
        <pt x="163" y="1058" on="0"/>
        <pt x="235" y="1120" on="1"/>
        <pt x="317" y="1191" on="0"/>
        <pt x="334" y="1214" on="1"/>
        <pt x="417" y="1325" on="0"/>
        <pt x="423" y="1477" on="1"/>
        <pt x="493" y="1457" on="0"/>
        <pt x="575" y="1308" on="0"/>
        <pt x="575" y="1207" on="1"/>
        <pt x="575" y="1162" on="0"/>
      </contour>
      <contour>
        <pt x="2490" y="1068" on="1"/>
        <pt x="2424" y="970" on="0"/>
        <pt x="2431" y="789" on="1"/>
        <pt x="2433" y="754" on="0"/>
        <pt x="2476" y="610" on="0"/>
        <pt x="2478" y="580" on="1"/>
        <pt x="2479" y="544" on="0"/>
        <pt x="2418" y="473" on="0"/>
        <pt x="2386" y="473" on="1"/>
        <pt x="2338" y="473" on="0"/>
        <pt x="2317" y="496" on="1"/>
        <pt x="2317" y="53" on="0"/>
        <pt x="1691" y="-574" on="0"/>
        <pt x="1246" y="-574" on="1"/>
        <pt x="802" y="-574" on="0"/>
        <pt x="175" y="53" on="0"/>
        <pt x="175" y="496" on="1"/>
        <pt x="154" y="473" on="0"/>
        <pt x="108" y="473" on="1"/>
        <pt x="77" y="473" on="0"/>
        <pt x="13" y="544" on="0"/>
        <pt x="15" y="580" on="1"/>
        <pt x="17" y="611" on="0"/>
        <pt x="60" y="755" on="0"/>
        <pt x="62" y="789" on="1"/>
        <pt x="69" y="970" on="0"/>
        <pt x="2" y="1068" on="1"/>
        <pt x="198" y="1056" on="0"/>
        <pt x="257" y="911" on="1"/>
        <pt x="253" y="792" on="1"/>
        <pt x="248" y="863" on="0"/>
        <pt x="204" y="928" on="1"/>
        <pt x="150" y="1011" on="0"/>
        <pt x="65" y="1014" on="1"/>
        <pt x="103" y="958" on="0"/>
        <pt x="103" y="789" on="1"/>
        <pt x="103" y="758" on="0"/>
        <pt x="83" y="690" on="1"/>
        <pt x="61" y="618" on="0"/>
        <pt x="59" y="592" on="1"/>
        <pt x="57" y="518" on="0"/>
        <pt x="129" y="518" on="1"/>
        <pt x="167" y="518" on="0"/>
        <pt x="199" y="569" on="1"/>
        <pt x="209" y="582" on="0"/>
        <pt x="221" y="597" on="1"/>
        <pt x="215" y="537" on="0"/>
        <pt x="215" y="496" on="1"/>
        <pt x="215" y="76" on="0"/>
        <pt x="824" y="-521" on="0"/>
        <pt x="1246" y="-521" on="1"/>
        <pt x="1669" y="-521" on="0"/>
        <pt x="2279" y="76" on="0"/>
        <pt x="2279" y="496" on="1"/>
        <pt x="2279" y="537" on="0"/>
        <pt x="2274" y="597" on="1"/>
        <pt x="2285" y="583" on="0"/>
        <pt x="2295" y="569" on="1"/>
        <pt x="2328" y="518" on="0"/>
        <pt x="2364" y="518" on="1"/>
        <pt x="2438" y="518" on="0"/>
        <pt x="2435" y="592" on="1"/>
        <pt x="2433" y="619" on="0"/>
        <pt x="2410" y="690" on="1"/>
        <pt x="2389" y="758" on="0"/>
        <pt x="2389" y="789" on="1"/>
        <pt x="2389" y="955" on="0"/>
        <pt x="2429" y="1014" on="1"/>
        <pt x="2345" y="1011" on="0"/>
        <pt x="2288" y="928" on="1"/>
        <pt x="2245" y="863" on="0"/>
        <pt x="2240" y="792" on="1"/>
        <pt x="2238" y="911" on="1"/>
        <pt x="2297" y="1056" on="0"/>
      </contour>
      <contour>
        <pt x="2089" y="551" on="1"/>
        <pt x="2089" y="897" on="0"/>
        <pt x="1853" y="1135" on="1"/>
        <pt x="1671" y="1320" on="0"/>
        <pt x="1434" y="1375" on="1"/>
        <pt x="1355" y="1393" on="0"/>
        <pt x="1246" y="1393" on="1"/>
        <pt x="1139" y="1393" on="0"/>
        <pt x="1060" y="1375" on="1"/>
        <pt x="823" y="1320" on="0"/>
        <pt x="640" y="1135" on="1"/>
        <pt x="406" y="898" on="0"/>
        <pt x="406" y="551" on="1"/>
        <pt x="406" y="201" on="0"/>
        <pt x="897" y="-291" on="0"/>
        <pt x="1246" y="-291" on="1"/>
        <pt x="1597" y="-291" on="0"/>
        <pt x="2089" y="201" on="0"/>
      </contour>
      <contour>
        <pt x="1549" y="483" on="1"/>
        <pt x="1549" y="457" on="0"/>
        <pt x="1484" y="388" on="0"/>
        <pt x="1459" y="388" on="1"/>
        <pt x="1426" y="388" on="0"/>
        <pt x="1395" y="421" on="1"/>
        <pt x="1369" y="450" on="0"/>
        <pt x="1369" y="469" on="1"/>
        <pt x="1369" y="488" on="0"/>
        <pt x="1395" y="525" on="1"/>
        <pt x="1424" y="569" on="0"/>
        <pt x="1454" y="569" on="1"/>
        <pt x="1481" y="569" on="0"/>
        <pt x="1549" y="504" on="0"/>
      </contour>
      <contour>
        <pt x="1239" y="778" on="1"/>
        <pt x="1239" y="745" on="0"/>
        <pt x="1193" y="698" on="0"/>
        <pt x="1169" y="698" on="1"/>
        <pt x="1158" y="698" on="0"/>
        <pt x="1107" y="709" on="0"/>
        <pt x="1093" y="709" on="1"/>
        <pt x="1060" y="709" on="0"/>
        <pt x="1052" y="705" on="1"/>
        <pt x="1039" y="697" on="0"/>
        <pt x="1039" y="668" on="1"/>
        <pt x="1039" y="644" on="0"/>
        <pt x="1084" y="514" on="1"/>
        <pt x="1119" y="419" on="0"/>
        <pt x="1119" y="313" on="1"/>
        <pt x="1119" y="301" on="0"/>
        <pt x="1109" y="250" on="0"/>
        <pt x="1109" y="241" on="1"/>
        <pt x="1103" y="236" on="0"/>
        <pt x="1078" y="223" on="0"/>
        <pt x="1074" y="217" on="1"/>
        <pt x="1052" y="251" on="0"/>
        <pt x="984" y="452" on="1"/>
        <pt x="919" y="643" on="0"/>
        <pt x="919" y="653" on="1"/>
        <pt x="919" y="722" on="0"/>
        <pt x="1049" y="849" on="0"/>
        <pt x="1119" y="849" on="1"/>
        <pt x="1156" y="849" on="0"/>
        <pt x="1239" y="804" on="0"/>
      </contour>
    </TTGlyph>
    <TTGlyph name="uni2011" xMin="2" yMin="-574" xMax="2490" yMax="1733">
      <contour>
        <pt x="2351" y="1007" on="1"/>
        <pt x="2312" y="983" on="1"/>
        <pt x="2312" y="994" on="0"/>
        <pt x="2299" y="1019" on="1"/>
        <pt x="2281" y="1044" on="0"/>
        <pt x="2141" y="1165" on="0"/>
        <pt x="2125" y="1187" on="1"/>
        <pt x="2048" y="1294" on="0"/>
        <pt x="2041" y="1405" on="1"/>
        <pt x="1959" y="1387" on="0"/>
        <pt x="1959" y="1208" on="1"/>
        <pt x="1959" y="1122" on="0"/>
        <pt x="1978" y="1073" on="1"/>
        <pt x="1953" y="1094" on="0"/>
        <pt x="1927" y="1115" on="1"/>
        <pt x="1919" y="1162" on="0"/>
        <pt x="1919" y="1208" on="1"/>
        <pt x="1919" y="1309" on="0"/>
        <pt x="2001" y="1457" on="0"/>
        <pt x="2071" y="1477" on="1"/>
        <pt x="2075" y="1330" on="0"/>
        <pt x="2161" y="1214" on="1"/>
        <pt x="2178" y="1191" on="0"/>
        <pt x="2259" y="1120" on="1"/>
        <pt x="2331" y="1058" on="0"/>
        <pt x="2344" y="1026" on="1"/>
        <pt x="2351" y="998" on="0"/>
      </contour>
      <contour>
        <pt x="2134" y="551" on="1"/>
        <pt x="2134" y="184" on="0"/>
        <pt x="1613" y="-335" on="0"/>
        <pt x="1246" y="-335" on="1"/>
        <pt x="880" y="-335" on="0"/>
        <pt x="359" y="184" on="0"/>
        <pt x="359" y="551" on="1"/>
        <pt x="359" y="906" on="0"/>
        <pt x="609" y="1163" on="1"/>
        <pt x="820" y="1380" on="0"/>
        <pt x="1062" y="1416" on="1"/>
        <pt x="1114" y="1424" on="0"/>
        <pt x="1155" y="1459" on="1"/>
        <pt x="1205" y="1500" on="0"/>
        <pt x="1205" y="1555" on="1"/>
        <pt x="1205" y="1613" on="0"/>
        <pt x="1120" y="1697" on="0"/>
        <pt x="1062" y="1697" on="1"/>
        <pt x="1005" y="1697" on="0"/>
        <pt x="918" y="1613" on="0"/>
        <pt x="918" y="1555" on="1"/>
        <pt x="918" y="1488" on="0"/>
        <pt x="972" y="1443" on="1"/>
        <pt x="862" y="1430" on="0"/>
        <pt x="729" y="1375" on="1"/>
        <pt x="639" y="1337" on="0"/>
        <pt x="571" y="1274" on="1"/>
        <pt x="527" y="1279" on="1"/>
        <pt x="589" y="1351" on="0"/>
        <pt x="723" y="1412" on="1"/>
        <pt x="788" y="1442" on="0"/>
        <pt x="910" y="1466" on="1"/>
        <pt x="882" y="1510" on="0"/>
        <pt x="882" y="1566" on="1"/>
        <pt x="882" y="1639" on="0"/>
        <pt x="939" y="1688" on="1"/>
        <pt x="993" y="1733" on="0"/>
        <pt x="1062" y="1733" on="1"/>
        <pt x="1135" y="1733" on="0"/>
        <pt x="1190" y="1685" on="1"/>
        <pt x="1246" y="1635" on="0"/>
        <pt x="1246" y="1562" on="1"/>
        <pt x="1246" y="1485" on="0"/>
        <pt x="1187" y="1434" on="1"/>
        <pt x="1209" y="1436" on="0"/>
        <pt x="1246" y="1436" on="1"/>
        <pt x="1286" y="1436" on="0"/>
        <pt x="1305" y="1434" on="1"/>
        <pt x="1246" y="1485" on="0"/>
        <pt x="1246" y="1562" on="1"/>
        <pt x="1246" y="1635" on="0"/>
        <pt x="1302" y="1685" on="1"/>
        <pt x="1357" y="1733" on="0"/>
        <pt x="1430" y="1733" on="1"/>
        <pt x="1500" y="1733" on="0"/>
        <pt x="1554" y="1688" on="1"/>
        <pt x="1613" y="1640" on="0"/>
        <pt x="1613" y="1566" on="1"/>
        <pt x="1613" y="1510" on="0"/>
        <pt x="1584" y="1466" on="1"/>
        <pt x="1702" y="1443" on="0"/>
        <pt x="1769" y="1412" on="1"/>
        <pt x="1902" y="1352" on="0"/>
        <pt x="1966" y="1279" on="1"/>
        <pt x="1923" y="1274" on="1"/>
        <pt x="1850" y="1339" on="0"/>
        <pt x="1764" y="1375" on="1"/>
        <pt x="1627" y="1431" on="0"/>
        <pt x="1520" y="1443" on="1"/>
        <pt x="1572" y="1486" on="0"/>
        <pt x="1572" y="1555" on="1"/>
        <pt x="1572" y="1613" on="0"/>
        <pt x="1488" y="1697" on="0"/>
        <pt x="1430" y="1697" on="1"/>
        <pt x="1373" y="1697" on="0"/>
        <pt x="1288" y="1613" on="0"/>
        <pt x="1288" y="1555" on="1"/>
        <pt x="1288" y="1500" on="0"/>
        <pt x="1337" y="1459" on="1"/>
        <pt x="1378" y="1424" on="0"/>
        <pt x="1430" y="1416" on="1"/>
        <pt x="1674" y="1380" on="0"/>
        <pt x="1885" y="1163" on="1"/>
        <pt x="2134" y="907" on="0"/>
      </contour>
      <contour>
        <pt x="567" y="1115" on="1"/>
        <pt x="512" y="1068" on="0"/>
        <pt x="514" y="1073" on="1"/>
        <pt x="534" y="1123" on="0"/>
        <pt x="534" y="1209" on="1"/>
        <pt x="534" y="1387" on="0"/>
        <pt x="453" y="1405" on="1"/>
        <pt x="446" y="1291" on="0"/>
        <pt x="370" y="1187" on="1"/>
        <pt x="353" y="1165" on="0"/>
        <pt x="212" y="1044" on="0"/>
        <pt x="194" y="1019" on="1"/>
        <pt x="181" y="994" on="0"/>
        <pt x="181" y="983" on="1"/>
        <pt x="143" y="1007" on="1"/>
        <pt x="143" y="1017" on="0"/>
        <pt x="150" y="1026" on="1"/>
        <pt x="163" y="1058" on="0"/>
        <pt x="235" y="1120" on="1"/>
        <pt x="317" y="1191" on="0"/>
        <pt x="334" y="1214" on="1"/>
        <pt x="417" y="1325" on="0"/>
        <pt x="423" y="1477" on="1"/>
        <pt x="493" y="1457" on="0"/>
        <pt x="575" y="1308" on="0"/>
        <pt x="575" y="1207" on="1"/>
        <pt x="575" y="1162" on="0"/>
      </contour>
      <contour>
        <pt x="2490" y="1068" on="1"/>
        <pt x="2424" y="970" on="0"/>
        <pt x="2431" y="789" on="1"/>
        <pt x="2433" y="754" on="0"/>
        <pt x="2476" y="610" on="0"/>
        <pt x="2478" y="580" on="1"/>
        <pt x="2479" y="544" on="0"/>
        <pt x="2418" y="473" on="0"/>
        <pt x="2386" y="473" on="1"/>
        <pt x="2338" y="473" on="0"/>
        <pt x="2317" y="496" on="1"/>
        <pt x="2317" y="53" on="0"/>
        <pt x="1691" y="-574" on="0"/>
        <pt x="1246" y="-574" on="1"/>
        <pt x="802" y="-574" on="0"/>
        <pt x="175" y="53" on="0"/>
        <pt x="175" y="496" on="1"/>
        <pt x="154" y="473" on="0"/>
        <pt x="108" y="473" on="1"/>
        <pt x="77" y="473" on="0"/>
        <pt x="13" y="544" on="0"/>
        <pt x="15" y="580" on="1"/>
        <pt x="17" y="611" on="0"/>
        <pt x="60" y="755" on="0"/>
        <pt x="62" y="789" on="1"/>
        <pt x="69" y="970" on="0"/>
        <pt x="2" y="1068" on="1"/>
        <pt x="198" y="1056" on="0"/>
        <pt x="257" y="911" on="1"/>
        <pt x="253" y="792" on="1"/>
        <pt x="248" y="863" on="0"/>
        <pt x="204" y="928" on="1"/>
        <pt x="150" y="1011" on="0"/>
        <pt x="65" y="1014" on="1"/>
        <pt x="103" y="958" on="0"/>
        <pt x="103" y="789" on="1"/>
        <pt x="103" y="758" on="0"/>
        <pt x="83" y="690" on="1"/>
        <pt x="61" y="618" on="0"/>
        <pt x="59" y="592" on="1"/>
        <pt x="57" y="518" on="0"/>
        <pt x="129" y="518" on="1"/>
        <pt x="167" y="518" on="0"/>
        <pt x="199" y="569" on="1"/>
        <pt x="209" y="582" on="0"/>
        <pt x="221" y="597" on="1"/>
        <pt x="215" y="537" on="0"/>
        <pt x="215" y="496" on="1"/>
        <pt x="215" y="76" on="0"/>
        <pt x="824" y="-521" on="0"/>
        <pt x="1246" y="-521" on="1"/>
        <pt x="1669" y="-521" on="0"/>
        <pt x="2279" y="76" on="0"/>
        <pt x="2279" y="496" on="1"/>
        <pt x="2279" y="537" on="0"/>
        <pt x="2274" y="597" on="1"/>
        <pt x="2285" y="583" on="0"/>
        <pt x="2295" y="569" on="1"/>
        <pt x="2328" y="518" on="0"/>
        <pt x="2364" y="518" on="1"/>
        <pt x="2438" y="518" on="0"/>
        <pt x="2435" y="592" on="1"/>
        <pt x="2433" y="619" on="0"/>
        <pt x="2410" y="690" on="1"/>
        <pt x="2389" y="758" on="0"/>
        <pt x="2389" y="789" on="1"/>
        <pt x="2389" y="955" on="0"/>
        <pt x="2429" y="1014" on="1"/>
        <pt x="2345" y="1011" on="0"/>
        <pt x="2288" y="928" on="1"/>
        <pt x="2245" y="863" on="0"/>
        <pt x="2240" y="792" on="1"/>
        <pt x="2238" y="911" on="1"/>
        <pt x="2297" y="1056" on="0"/>
      </contour>
      <contour>
        <pt x="2089" y="551" on="1"/>
        <pt x="2089" y="897" on="0"/>
        <pt x="1853" y="1135" on="1"/>
        <pt x="1671" y="1320" on="0"/>
        <pt x="1434" y="1375" on="1"/>
        <pt x="1355" y="1393" on="0"/>
        <pt x="1246" y="1393" on="1"/>
        <pt x="1139" y="1393" on="0"/>
        <pt x="1060" y="1375" on="1"/>
        <pt x="823" y="1320" on="0"/>
        <pt x="640" y="1135" on="1"/>
        <pt x="406" y="898" on="0"/>
        <pt x="406" y="551" on="1"/>
        <pt x="406" y="201" on="0"/>
        <pt x="897" y="-291" on="0"/>
        <pt x="1246" y="-291" on="1"/>
        <pt x="1597" y="-291" on="0"/>
        <pt x="2089" y="201" on="0"/>
      </contour>
      <contour>
        <pt x="1549" y="483" on="1"/>
        <pt x="1549" y="457" on="0"/>
        <pt x="1484" y="388" on="0"/>
        <pt x="1459" y="388" on="1"/>
        <pt x="1426" y="388" on="0"/>
        <pt x="1395" y="421" on="1"/>
        <pt x="1369" y="450" on="0"/>
        <pt x="1369" y="469" on="1"/>
        <pt x="1369" y="488" on="0"/>
        <pt x="1395" y="525" on="1"/>
        <pt x="1424" y="569" on="0"/>
        <pt x="1454" y="569" on="1"/>
        <pt x="1481" y="569" on="0"/>
        <pt x="1549" y="504" on="0"/>
      </contour>
      <contour>
        <pt x="1239" y="778" on="1"/>
        <pt x="1239" y="745" on="0"/>
        <pt x="1193" y="698" on="0"/>
        <pt x="1169" y="698" on="1"/>
        <pt x="1158" y="698" on="0"/>
        <pt x="1107" y="709" on="0"/>
        <pt x="1093" y="709" on="1"/>
        <pt x="1060" y="709" on="0"/>
        <pt x="1052" y="705" on="1"/>
        <pt x="1039" y="697" on="0"/>
        <pt x="1039" y="668" on="1"/>
        <pt x="1039" y="644" on="0"/>
        <pt x="1084" y="514" on="1"/>
        <pt x="1119" y="419" on="0"/>
        <pt x="1119" y="313" on="1"/>
        <pt x="1119" y="301" on="0"/>
        <pt x="1109" y="250" on="0"/>
        <pt x="1109" y="241" on="1"/>
        <pt x="1103" y="236" on="0"/>
        <pt x="1078" y="223" on="0"/>
        <pt x="1074" y="217" on="1"/>
        <pt x="1052" y="251" on="0"/>
        <pt x="984" y="452" on="1"/>
        <pt x="919" y="643" on="0"/>
        <pt x="919" y="653" on="1"/>
        <pt x="919" y="722" on="0"/>
        <pt x="1049" y="849" on="0"/>
        <pt x="1119" y="849" on="1"/>
        <pt x="1156" y="849" on="0"/>
        <pt x="1239" y="804" on="0"/>
      </contour>
    </TTGlyph>
    <TTGlyph name="uniE000" xMin="0" yMin="0" xMax="1610" yMax="1610">
      <contour>
        <pt x="0" y="1610" on="1"/>
        <pt x="1610" y="1610" on="1"/>
        <pt x="1610" y="0" on="1"/>
        <pt x="0" y="0" on="1"/>
      </contour>
    </TTGlyph>
    <TTGlyph name="uniFB51" xMin="65" yMin="-602" xMax="1893" yMax="1597">
      <contour>
        <pt x="1412" y="1572" on="1"/>
        <pt x="1373" y="1498" on="0"/>
        <pt x="1244" y="1434" on="1"/>
        <pt x="1137" y="1383" on="0"/>
        <pt x="1029" y="1331" on="1"/>
        <pt x="995" y="1331" on="1"/>
        <pt x="982" y="1344" on="0"/>
        <pt x="982" y="1366" on="1"/>
        <pt x="982" y="1413" on="0"/>
        <pt x="1166" y="1503" on="1"/>
        <pt x="1294" y="1565" on="0"/>
        <pt x="1387" y="1597" on="1"/>
      </contour>
      <contour>
        <pt x="1330" y="1152" on="1"/>
        <pt x="1330" y="1080" on="0"/>
        <pt x="1223" y="957" on="0"/>
        <pt x="1151" y="948" on="1"/>
        <pt x="1144" y="947" on="0"/>
        <pt x="1095" y="922" on="0"/>
        <pt x="1079" y="922" on="1"/>
        <pt x="1042" y="922" on="0"/>
        <pt x="1019" y="954" on="1"/>
        <pt x="1002" y="980" on="0"/>
        <pt x="1002" y="1004" on="1"/>
        <pt x="1002" y="1040" on="0"/>
        <pt x="1058" y="1095" on="1"/>
        <pt x="1120" y="1064" on="0"/>
        <pt x="1118" y="1064" on="1"/>
        <pt x="1118" y="1064" on="0"/>
        <pt x="1162" y="1117" on="1"/>
        <pt x="1186" y="1147" on="0"/>
        <pt x="1202" y="1147" on="1"/>
        <pt x="1214" y="1147" on="0"/>
        <pt x="1230" y="1136" on="0"/>
        <pt x="1243" y="1136" on="1"/>
        <pt x="1254" y="1136" on="0"/>
        <pt x="1273" y="1158" on="1"/>
        <pt x="1296" y="1183" on="0"/>
        <pt x="1305" y="1187" on="1"/>
        <pt x="1330" y="1162" on="0"/>
      </contour>
      <contour>
        <pt x="1667" y="164" on="1"/>
        <pt x="1667" y="-20" on="0"/>
        <pt x="1599" y="-40" on="1"/>
        <pt x="1473" y="917" on="1"/>
        <pt x="1490" y="973" on="0"/>
        <pt x="1517" y="1013" on="1"/>
        <pt x="1553" y="1013" on="1"/>
        <pt x="1590" y="813" on="0"/>
        <pt x="1627" y="614" on="1"/>
        <pt x="1667" y="384" on="0"/>
      </contour>
      <contour>
        <pt x="1299" y="635" on="1"/>
        <pt x="1299" y="605" on="0"/>
        <pt x="1266" y="578" on="1"/>
        <pt x="1236" y="553" on="0"/>
        <pt x="1217" y="553" on="1"/>
        <pt x="1191" y="553" on="0"/>
        <pt x="1159" y="574" on="1"/>
        <pt x="1125" y="598" on="0"/>
        <pt x="1125" y="624" on="1"/>
        <pt x="1125" y="657" on="0"/>
        <pt x="1176" y="706" on="0"/>
        <pt x="1207" y="706" on="1"/>
        <pt x="1232" y="706" on="0"/>
        <pt x="1299" y="653" on="0"/>
      </contour>
      <contour>
        <pt x="838" y="1078" on="1"/>
        <pt x="824" y="1065" on="0"/>
        <pt x="797" y="1065" on="1"/>
        <pt x="784" y="1065" on="0"/>
        <pt x="708" y="1106" on="0"/>
        <pt x="695" y="1106" on="1"/>
        <pt x="681" y="1106" on="0"/>
        <pt x="575" y="1033" on="1"/>
        <pt x="445" y="945" on="0"/>
        <pt x="404" y="922" on="1"/>
        <pt x="360" y="922" on="1"/>
        <pt x="348" y="934" on="1"/>
        <pt x="348" y="961" on="1"/>
        <pt x="490" y="1061" on="0"/>
        <pt x="593" y="1152" on="1"/>
        <pt x="531" y="1235" on="0"/>
        <pt x="531" y="1259" on="1"/>
        <pt x="531" y="1318" on="0"/>
        <pt x="634" y="1443" on="0"/>
        <pt x="690" y="1443" on="1"/>
        <pt x="756" y="1443" on="0"/>
        <pt x="756" y="1363" on="1"/>
        <pt x="756" y="1343" on="0"/>
        <pt x="747" y="1272" on="0"/>
        <pt x="747" y="1261" on="1"/>
        <pt x="747" y="1251" on="0"/>
        <pt x="748" y="1245" on="1"/>
        <pt x="751" y="1237" on="0"/>
        <pt x="838" y="1144" on="1"/>
      </contour>
      <contour>
        <pt x="1800" y="-303" on="1"/>
        <pt x="1794" y="-330" on="0"/>
        <pt x="1723" y="-348" on="1"/>
        <pt x="1658" y="-365" on="0"/>
        <pt x="1593" y="-382" on="1"/>
        <pt x="1585" y="-385" on="0"/>
        <pt x="1540" y="-409" on="1"/>
        <pt x="1502" y="-430" on="0"/>
        <pt x="1487" y="-430" on="1"/>
        <pt x="1437" y="-420" on="1"/>
        <pt x="1449" y="-420" on="0"/>
        <pt x="1449" y="-397" on="1"/>
        <pt x="1449" y="-362" on="0"/>
        <pt x="1449" y="-362" on="1"/>
        <pt x="1452" y="-349" on="0"/>
        <pt x="1435" y="-303" on="1"/>
        <pt x="1435" y="-304" on="0"/>
        <pt x="1434" y="-304" on="1"/>
        <pt x="1433" y="-305" on="0"/>
        <pt x="1432" y="-298" on="0"/>
        <pt x="1432" y="-286" on="1"/>
        <pt x="1432" y="-236" on="0"/>
        <pt x="1507" y="-172" on="1"/>
        <pt x="1576" y="-113" on="0"/>
        <pt x="1612" y="-113" on="1"/>
        <pt x="1686" y="-113" on="0"/>
        <pt x="1686" y="-175" on="1"/>
        <pt x="1686" y="-199" on="0"/>
        <pt x="1677" y="-238" on="1"/>
        <pt x="1718" y="-243" on="0"/>
        <pt x="1800" y="-268" on="1"/>
      </contour>
      <contour>
        <pt x="1412" y="169" on="1"/>
        <pt x="1412" y="116" on="0"/>
        <pt x="1366" y="34" on="1"/>
        <pt x="1329" y="-35" on="0"/>
        <pt x="1213" y="-58" on="1"/>
        <pt x="1150" y="-72" on="0"/>
        <pt x="1023" y="-72" on="1"/>
        <pt x="945" y="-72" on="0"/>
        <pt x="894" y="-31" on="1"/>
        <pt x="869" y="-12" on="0"/>
        <pt x="831" y="42" on="1"/>
        <pt x="803" y="82" on="0"/>
        <pt x="782" y="82" on="1"/>
        <pt x="771" y="82" on="0"/>
        <pt x="733" y="57" on="1"/>
        <pt x="692" y="29" on="0"/>
        <pt x="670" y="23" on="1"/>
        <pt x="621" y="10" on="0"/>
        <pt x="583" y="10" on="1"/>
        <pt x="529" y="10" on="0"/>
        <pt x="472" y="34" on="1"/>
        <pt x="461" y="44" on="0"/>
        <pt x="439" y="63" on="1"/>
        <pt x="438" y="167" on="0"/>
        <pt x="584" y="282" on="1"/>
        <pt x="597" y="291" on="0"/>
        <pt x="664" y="322" on="1"/>
        <pt x="715" y="346" on="0"/>
        <pt x="751" y="408" on="0"/>
        <pt x="754" y="471" on="1"/>
        <pt x="756" y="562" on="0"/>
        <pt x="758" y="572" on="1"/>
        <pt x="795" y="572" on="1"/>
        <pt x="817" y="523" on="0"/>
        <pt x="839" y="369" on="1"/>
        <pt x="860" y="229" on="0"/>
        <pt x="897" y="171" on="1"/>
        <pt x="955" y="82" on="0"/>
        <pt x="1089" y="82" on="1"/>
        <pt x="1136" y="82" on="0"/>
        <pt x="1275" y="120" on="0"/>
        <pt x="1300" y="139" on="1"/>
        <pt x="1299" y="158" on="0"/>
        <pt x="1227" y="285" on="0"/>
        <pt x="1227" y="307" on="1"/>
        <pt x="1227" y="321" on="0"/>
        <pt x="1260" y="388" on="1"/>
        <pt x="1295" y="388" on="1"/>
        <pt x="1340" y="366" on="0"/>
        <pt x="1377" y="288" on="1"/>
        <pt x="1412" y="217" on="0"/>
      </contour>
      <contour>
        <pt x="1893" y="-439" on="1"/>
        <pt x="1876" y="-454" on="0"/>
        <pt x="1849" y="-478" on="1"/>
        <pt x="1648" y="-530" on="0"/>
        <pt x="1445" y="-602" on="1"/>
        <pt x="1445" y="-600" on="0"/>
        <pt x="1432" y="-583" on="0"/>
        <pt x="1432" y="-568" on="1"/>
        <pt x="1432" y="-526" on="0"/>
        <pt x="1608" y="-450" on="1"/>
        <pt x="1771" y="-379" on="0"/>
        <pt x="1817" y="-379" on="1"/>
        <pt x="1880" y="-379" on="1"/>
        <pt x="1893" y="-391" on="1"/>
      </contour>
      <contour>
        <pt x="351" y="102" on="1"/>
        <pt x="351" y="18" on="0"/>
        <pt x="223" y="-122" on="0"/>
        <pt x="146" y="-122" on="1"/>
        <pt x="136" y="-122" on="0"/>
        <pt x="93" y="-111" on="0"/>
        <pt x="76" y="-111" on="1"/>
        <pt x="76" y="-108" on="0"/>
        <pt x="65" y="-71" on="0"/>
        <pt x="65" y="-53" on="1"/>
        <pt x="108" y="-48" on="0"/>
        <pt x="149" y="-43" on="1"/>
        <pt x="203" y="-32" on="0"/>
        <pt x="228" y="16" on="1"/>
        <pt x="225" y="23" on="0"/>
        <pt x="190" y="79" on="1"/>
        <pt x="167" y="118" on="0"/>
        <pt x="167" y="133" on="1"/>
        <pt x="167" y="165" on="0"/>
        <pt x="237" y="266" on="0"/>
        <pt x="264" y="266" on="1"/>
        <pt x="305" y="266" on="0"/>
        <pt x="330" y="203" on="1"/>
        <pt x="351" y="152" on="0"/>
      </contour>
      <contour>
        <pt x="756" y="186" on="1"/>
        <pt x="756" y="223" on="1"/>
        <pt x="699" y="235" on="1"/>
        <pt x="638" y="197" on="0"/>
        <pt x="625" y="166" on="1"/>
        <pt x="634" y="166" on="0"/>
        <pt x="647" y="153" on="1"/>
        <pt x="688" y="153" on="1"/>
        <pt x="690" y="153" on="0"/>
      </contour>
      <contour>
        <pt x="674" y="1280" on="1"/>
        <pt x="674" y="1298" on="0"/>
        <pt x="653" y="1321" on="1"/>
        <pt x="642" y="1321" on="0"/>
        <pt x="616" y="1294" on="1"/>
      </contour>
    </TTGlyph>
    <TTGlyph name="uniFB52" xMin="-94" yMin="-491" xMax="1984" yMax="1904">
      <contour>
        <pt x="1861" y="1213" on="1"/>
        <pt x="1861" y="1172" on="0"/>
        <pt x="1807" y="1140" on="1"/>
        <pt x="1723" y="1088" on="0"/>
        <pt x="1600" y="1026" on="1"/>
        <pt x="1474" y="963" on="0"/>
        <pt x="1455" y="963" on="1"/>
        <pt x="1413" y="963" on="1"/>
        <pt x="1400" y="964" on="0"/>
        <pt x="1400" y="988" on="1"/>
        <pt x="1400" y="1028" on="0"/>
        <pt x="1585" y="1127" on="1"/>
        <pt x="1694" y="1183" on="0"/>
        <pt x="1803" y="1238" on="1"/>
        <pt x="1849" y="1238" on="1"/>
        <pt x="1861" y="1237" on="0"/>
      </contour>
      <contour>
        <pt x="1093" y="1874" on="1"/>
        <pt x="1093" y="1825" on="0"/>
        <pt x="916" y="1715" on="1"/>
        <pt x="798" y="1646" on="0"/>
        <pt x="680" y="1577" on="1"/>
        <pt x="645" y="1577" on="1"/>
        <pt x="633" y="1579" on="0"/>
        <pt x="633" y="1602" on="1"/>
        <pt x="633" y="1648" on="0"/>
        <pt x="676" y="1674" on="1"/>
        <pt x="898" y="1807" on="0"/>
        <pt x="1079" y="1904" on="1"/>
        <pt x="1093" y="1890" on="0"/>
      </contour>
      <contour>
        <pt x="1800" y="747" on="1"/>
        <pt x="1800" y="717" on="0"/>
        <pt x="1737" y="665" on="0"/>
        <pt x="1713" y="665" on="1"/>
        <pt x="1684" y="665" on="0"/>
        <pt x="1648" y="699" on="1"/>
        <pt x="1616" y="730" on="0"/>
        <pt x="1616" y="747" on="1"/>
        <pt x="1616" y="767" on="0"/>
        <pt x="1679" y="840" on="0"/>
        <pt x="1698" y="840" on="1"/>
        <pt x="1729" y="840" on="0"/>
        <pt x="1767" y="795" on="1"/>
        <pt x="1800" y="758" on="0"/>
      </contour>
      <contour>
        <pt x="1042" y="1516" on="1"/>
        <pt x="1042" y="1490" on="0"/>
        <pt x="1020" y="1438" on="1"/>
        <pt x="995" y="1378" on="0"/>
        <pt x="968" y="1365" on="1"/>
        <pt x="929" y="1353" on="0"/>
        <pt x="865" y="1328" on="1"/>
        <pt x="817" y="1300" on="0"/>
        <pt x="796" y="1300" on="1"/>
        <pt x="724" y="1300" on="0"/>
        <pt x="724" y="1377" on="1"/>
        <pt x="724" y="1395" on="0"/>
        <pt x="741" y="1431" on="1"/>
        <pt x="760" y="1472" on="0"/>
        <pt x="779" y="1484" on="1"/>
        <pt x="808" y="1484" on="0"/>
        <pt x="824" y="1453" on="1"/>
        <pt x="839" y="1464" on="0"/>
        <pt x="889" y="1515" on="0"/>
        <pt x="905" y="1525" on="1"/>
        <pt x="921" y="1515" on="0"/>
        <pt x="955" y="1484" on="1"/>
        <pt x="976" y="1516" on="0"/>
        <pt x="1027" y="1566" on="1"/>
        <pt x="1042" y="1552" on="0"/>
      </contour>
      <contour>
        <pt x="1984" y="215" on="1"/>
        <pt x="1984" y="85" on="0"/>
        <pt x="1868" y="20" on="1"/>
        <pt x="1775" y="-31" on="0"/>
        <pt x="1636" y="-31" on="1"/>
        <pt x="1495" y="-31" on="0"/>
        <pt x="1417" y="23" on="1"/>
        <pt x="1287" y="133" on="0"/>
        <pt x="1157" y="243" on="1"/>
        <pt x="1115" y="277" on="0"/>
        <pt x="1091" y="277" on="1"/>
        <pt x="1082" y="254" on="0"/>
        <pt x="1082" y="222" on="1"/>
        <pt x="1082" y="208" on="0"/>
        <pt x="1086" y="155" on="0"/>
        <pt x="1086" y="142" on="1"/>
        <pt x="1086" y="91" on="0"/>
        <pt x="1050" y="65" on="1"/>
        <pt x="966" y="5" on="0"/>
        <pt x="802" y="-18" on="1"/>
        <pt x="758" y="-18" on="0"/>
        <pt x="714" y="-19" on="1"/>
        <pt x="660" y="-20" on="0"/>
        <pt x="631" y="-44" on="1"/>
        <pt x="610" y="-59" on="0"/>
        <pt x="585" y="-128" on="1"/>
        <pt x="552" y="-222" on="0"/>
        <pt x="547" y="-232" on="1"/>
        <pt x="517" y="-291" on="0"/>
        <pt x="491" y="-329" on="1"/>
        <pt x="441" y="-402" on="0"/>
        <pt x="384" y="-437" on="1"/>
        <pt x="296" y="-491" on="0"/>
        <pt x="162" y="-491" on="1"/>
        <pt x="119" y="-491" on="0"/>
        <pt x="28" y="-462" on="1"/>
        <pt x="-67" y="-431" on="0"/>
        <pt x="-94" y="-404" on="1"/>
        <pt x="-82" y="-387" on="0"/>
        <pt x="-48" y="-384" on="1"/>
        <pt x="-26" y="-380" on="0"/>
        <pt x="15" y="-385" on="1"/>
        <pt x="65" y="-389" on="0"/>
        <pt x="70" y="-389" on="1"/>
        <pt x="227" y="-389" on="0"/>
        <pt x="377" y="-260" on="1"/>
        <pt x="520" y="-138" on="0"/>
        <pt x="520" y="-27" on="1"/>
        <pt x="461" y="16" on="0"/>
        <pt x="454" y="27" on="1"/>
        <pt x="448" y="35" on="0"/>
        <pt x="448" y="77" on="1"/>
        <pt x="448" y="153" on="0"/>
        <pt x="505" y="153" on="1"/>
        <pt x="517" y="153" on="0"/>
        <pt x="687" y="133" on="0"/>
        <pt x="699" y="133" on="1"/>
        <pt x="807" y="133" on="0"/>
        <pt x="824" y="136" on="1"/>
        <pt x="863" y="143" on="0"/>
        <pt x="982" y="192" on="1"/>
        <pt x="984" y="198" on="0"/>
        <pt x="984" y="207" on="1"/>
        <pt x="984" y="283" on="0"/>
        <pt x="865" y="421" on="1"/>
        <pt x="756" y="530" on="0"/>
        <pt x="534" y="769" on="1"/>
        <pt x="520" y="786" on="0"/>
        <pt x="520" y="840" on="1"/>
        <pt x="520" y="1019" on="0"/>
        <pt x="891" y="1180" on="1"/>
        <pt x="979" y="1223" on="0"/>
        <pt x="1148" y="1303" on="1"/>
        <pt x="1346" y="1391" on="0"/>
        <pt x="1804" y="1587" on="1"/>
        <pt x="1838" y="1587" on="1"/>
        <pt x="1851" y="1573" on="0"/>
        <pt x="1851" y="1551" on="1"/>
        <pt x="1851" y="1470" on="0"/>
        <pt x="1653" y="1399" on="1"/>
        <pt x="1602" y="1374" on="0"/>
        <pt x="1499" y="1327" on="1"/>
        <pt x="1389" y="1272" on="0"/>
        <pt x="1141" y="1160" on="1"/>
        <pt x="987" y="1095" on="0"/>
        <pt x="833" y="1031" on="1"/>
        <pt x="612" y="930" on="0"/>
        <pt x="612" y="886" on="1"/>
        <pt x="612" y="848" on="0"/>
        <pt x="1419" y="196" on="1"/>
        <pt x="1509" y="123" on="0"/>
        <pt x="1666" y="123" on="1"/>
        <pt x="1820" y="123" on="0"/>
        <pt x="1871" y="184" on="1"/>
        <pt x="1870" y="187" on="0"/>
        <pt x="1867" y="200" on="1"/>
        <pt x="1866" y="205" on="0"/>
        <pt x="1851" y="205" on="1"/>
        <pt x="1840" y="205" on="0"/>
        <pt x="1768" y="174" on="0"/>
        <pt x="1753" y="174" on="1"/>
        <pt x="1703" y="174" on="0"/>
        <pt x="1662" y="228" on="1"/>
        <pt x="1626" y="276" on="0"/>
        <pt x="1626" y="322" on="1"/>
        <pt x="1626" y="365" on="0"/>
        <pt x="1666" y="457" on="1"/>
        <pt x="1716" y="573" on="0"/>
        <pt x="1774" y="573" on="1"/>
        <pt x="1838" y="573" on="0"/>
        <pt x="1916" y="408" on="1"/>
        <pt x="1984" y="265" on="0"/>
      </contour>
      <contour>
        <pt x="479" y="1130" on="1"/>
        <pt x="479" y="1104" on="0"/>
        <pt x="340" y="1018" on="1"/>
        <pt x="244" y="959" on="0"/>
        <pt x="148" y="901" on="1"/>
        <pt x="113" y="901" on="1"/>
        <pt x="100" y="914" on="0"/>
        <pt x="100" y="931" on="1"/>
        <pt x="100" y="976" on="0"/>
        <pt x="255" y="1068" on="1"/>
        <pt x="343" y="1117" on="0"/>
        <pt x="431" y="1166" on="1"/>
        <pt x="479" y="1166" on="1"/>
      </contour>
      <contour>
        <pt x="1800" y="363" on="1"/>
        <pt x="1775" y="387" on="0"/>
        <pt x="1740" y="387" on="1"/>
        <pt x="1740" y="373" on="0"/>
        <pt x="1767" y="338" on="0"/>
        <pt x="1776" y="338" on="1"/>
      </contour>
    </TTGlyph>
    <TTGlyph name="uniFB53" xMin="-190" yMin="-360" xMax="2236" yMax="1666">
      <contour>
        <pt x="2236" y="1390" on="1"/>
        <pt x="2236" y="1309" on="0"/>
        <pt x="1853" y="1115" on="1"/>
        <pt x="1806" y="1115" on="1"/>
        <pt x="1806" y="1172" on="1"/>
        <pt x="2075" y="1367" on="0"/>
        <pt x="2222" y="1420" on="1"/>
        <pt x="2236" y="1407" on="0"/>
      </contour>
      <contour>
        <pt x="1713" y="1527" on="1"/>
        <pt x="1713" y="1502" on="0"/>
        <pt x="1632" y="1449" on="1"/>
        <pt x="1590" y="1423" on="0"/>
        <pt x="1548" y="1398" on="1"/>
        <pt x="1427" y="1302" on="0"/>
        <pt x="1308" y="1257" on="1"/>
        <pt x="1294" y="1270" on="1"/>
        <pt x="1294" y="1327" on="1"/>
        <pt x="1425" y="1425" on="0"/>
        <pt x="1666" y="1563" on="1"/>
        <pt x="1713" y="1563" on="1"/>
      </contour>
      <contour>
        <pt x="1140" y="1631" on="1"/>
        <pt x="1140" y="1597" on="0"/>
        <pt x="966" y="1493" on="1"/>
        <pt x="831" y="1416" on="0"/>
        <pt x="696" y="1339" on="1"/>
        <pt x="662" y="1339" on="1"/>
        <pt x="649" y="1352" on="0"/>
        <pt x="649" y="1370" on="1"/>
        <pt x="649" y="1411" on="0"/>
        <pt x="674" y="1426" on="1"/>
        <pt x="780" y="1489" on="0"/>
        <pt x="886" y="1552" on="1"/>
        <pt x="1031" y="1634" on="0"/>
        <pt x="1126" y="1666" on="1"/>
        <pt x="1140" y="1652" on="0"/>
      </contour>
      <contour>
        <pt x="1580" y="971" on="1"/>
        <pt x="1580" y="940" on="0"/>
        <pt x="1516" y="878" on="0"/>
        <pt x="1493" y="878" on="1"/>
        <pt x="1483" y="878" on="0"/>
        <pt x="1456" y="889" on="0"/>
        <pt x="1442" y="889" on="1"/>
        <pt x="1430" y="889" on="0"/>
        <pt x="1353" y="848" on="0"/>
        <pt x="1339" y="848" on="1"/>
        <pt x="1318" y="848" on="0"/>
        <pt x="1287" y="873" on="1"/>
        <pt x="1253" y="900" on="0"/>
        <pt x="1253" y="924" on="1"/>
        <pt x="1253" y="958" on="0"/>
        <pt x="1285" y="986" on="1"/>
        <pt x="1315" y="1012" on="0"/>
        <pt x="1339" y="1012" on="1"/>
        <pt x="1353" y="1012" on="0"/>
        <pt x="1389" y="991" on="0"/>
        <pt x="1401" y="991" on="1"/>
        <pt x="1414" y="991" on="0"/>
        <pt x="1480" y="1032" on="0"/>
        <pt x="1493" y="1032" on="1"/>
        <pt x="1518" y="1032" on="0"/>
        <pt x="1548" y="1013" on="1"/>
        <pt x="1580" y="994" on="0"/>
      </contour>
      <contour>
        <pt x="1109" y="1206" on="1"/>
        <pt x="1109" y="1121" on="0"/>
        <pt x="1036" y="1066" on="1"/>
        <pt x="947" y="1001" on="0"/>
        <pt x="879" y="1001" on="1"/>
        <pt x="847" y="1001" on="0"/>
        <pt x="827" y="1035" on="1"/>
        <pt x="813" y="1060" on="0"/>
        <pt x="813" y="1083" on="1"/>
        <pt x="813" y="1147" on="0"/>
        <pt x="869" y="1185" on="1"/>
        <pt x="910" y="1144" on="1"/>
        <pt x="931" y="1176" on="0"/>
        <pt x="982" y="1226" on="1"/>
        <pt x="1022" y="1185" on="1"/>
        <pt x="1044" y="1216" on="0"/>
        <pt x="1095" y="1257" on="1"/>
        <pt x="1109" y="1243" on="0"/>
      </contour>
      <contour>
        <pt x="2205" y="182" on="1"/>
        <pt x="2205" y="13" on="0"/>
        <pt x="2075" y="-163" on="1"/>
        <pt x="1932" y="-360" on="0"/>
        <pt x="1749" y="-360" on="1"/>
        <pt x="1771" y="-360" on="0"/>
        <pt x="1480" y="-328" on="1"/>
        <pt x="1480" y="-322" on="0"/>
        <pt x="1469" y="-285" on="0"/>
        <pt x="1469" y="-280" on="1"/>
        <pt x="1548" y="-277" on="0"/>
        <pt x="1697" y="-266" on="1"/>
        <pt x="1801" y="-252" on="0"/>
        <pt x="2051" y="-45" on="0"/>
        <pt x="2092" y="66" on="1"/>
        <pt x="2092" y="93" on="1"/>
        <pt x="2079" y="98" on="0"/>
        <pt x="2047" y="90" on="1"/>
        <pt x="2009" y="79" on="0"/>
        <pt x="2000" y="79" on="1"/>
        <pt x="1942" y="79" on="0"/>
        <pt x="1901" y="134" on="1"/>
        <pt x="1867" y="179" on="0"/>
        <pt x="1867" y="223" on="1"/>
        <pt x="1867" y="279" on="0"/>
        <pt x="1901" y="369" on="1"/>
        <pt x="1946" y="489" on="0"/>
        <pt x="2010" y="489" on="1"/>
        <pt x="2050" y="489" on="0"/>
        <pt x="2122" y="388" on="1"/>
        <pt x="2183" y="301" on="0"/>
        <pt x="2191" y="270" on="1"/>
        <pt x="2205" y="214" on="0"/>
      </contour>
      <contour>
        <pt x="474" y="1543" on="1"/>
        <pt x="470" y="1509" on="0"/>
        <pt x="448" y="1463" on="1"/>
        <pt x="289" y="1357" on="0"/>
        <pt x="8" y="1217" on="1"/>
        <pt x="-2" y="1222" on="0"/>
        <pt x="-13" y="1228" on="1"/>
        <pt x="-26" y="1236" on="0"/>
        <pt x="-26" y="1252" on="1"/>
        <pt x="-26" y="1289" on="0"/>
        <pt x="56" y="1341" on="1"/>
        <pt x="102" y="1366" on="0"/>
        <pt x="149" y="1392" on="1"/>
        <pt x="237" y="1437" on="0"/>
        <pt x="417" y="1543" on="1"/>
      </contour>
      <contour>
        <pt x="1652" y="238" on="1"/>
        <pt x="1652" y="220" on="0"/>
        <pt x="1613" y="93" on="1"/>
        <pt x="1569" y="-53" on="0"/>
        <pt x="1371" y="-53" on="1"/>
        <pt x="1215" y="-53" on="0"/>
        <pt x="1103" y="131" on="1"/>
        <pt x="1087" y="127" on="0"/>
        <pt x="1042" y="86" on="1"/>
        <pt x="991" y="41" on="0"/>
        <pt x="973" y="32" on="1"/>
        <pt x="853" y="-32" on="0"/>
        <pt x="741" y="-32" on="1"/>
        <pt x="608" y="-32" on="0"/>
        <pt x="608" y="79" on="1"/>
        <pt x="608" y="172" on="0"/>
        <pt x="659" y="172" on="1"/>
        <pt x="669" y="172" on="0"/>
        <pt x="716" y="135" on="0"/>
        <pt x="737" y="131" on="0"/>
        <pt x="792" y="131" on="1"/>
        <pt x="876" y="131" on="0"/>
        <pt x="956" y="167" on="1"/>
        <pt x="1056" y="212" on="0"/>
        <pt x="1068" y="289" on="1"/>
        <pt x="1007" y="591" on="1"/>
        <pt x="1007" y="633" on="0"/>
        <pt x="1040" y="683" on="1"/>
        <pt x="1070" y="683" on="0"/>
        <pt x="1085" y="660" on="1"/>
        <pt x="1123" y="485" on="0"/>
        <pt x="1162" y="310" on="1"/>
        <pt x="1223" y="111" on="0"/>
        <pt x="1391" y="111" on="1"/>
        <pt x="1483" y="111" on="0"/>
        <pt x="1560" y="179" on="1"/>
        <pt x="1560" y="206" on="1"/>
        <pt x="1553" y="213" on="0"/>
        <pt x="1539" y="213" on="1"/>
        <pt x="1526" y="213" on="0"/>
        <pt x="1439" y="172" on="0"/>
        <pt x="1427" y="172" on="1"/>
        <pt x="1304" y="172" on="0"/>
        <pt x="1304" y="315" on="1"/>
        <pt x="1304" y="369" on="0"/>
        <pt x="1344" y="456" on="1"/>
        <pt x="1392" y="561" on="0"/>
        <pt x="1448" y="561" on="1"/>
        <pt x="1525" y="561" on="0"/>
        <pt x="1595" y="419" on="1"/>
        <pt x="1652" y="301" on="0"/>
      </contour>
      <contour>
        <pt x="485" y="279" on="1"/>
        <pt x="485" y="86" on="0"/>
        <pt x="362" y="-60" on="1"/>
        <pt x="231" y="-217" on="0"/>
        <pt x="34" y="-217" on="1"/>
        <pt x="-94" y="-217" on="0"/>
        <pt x="-190" y="-173" on="1"/>
        <pt x="-190" y="-136" on="1"/>
        <pt x="-141" y="-123" on="0"/>
        <pt x="19" y="-122" on="1"/>
        <pt x="123" y="-122" on="0"/>
        <pt x="413" y="154" on="0"/>
        <pt x="413" y="254" on="1"/>
        <pt x="413" y="286" on="0"/>
        <pt x="369" y="333" on="1"/>
        <pt x="300" y="406" on="0"/>
        <pt x="283" y="431" on="1"/>
        <pt x="280" y="443" on="0"/>
        <pt x="280" y="469" on="1"/>
        <pt x="280" y="523" on="0"/>
        <pt x="315" y="541" on="1"/>
        <pt x="404" y="513" on="0"/>
        <pt x="450" y="421" on="1"/>
        <pt x="485" y="351" on="0"/>
      </contour>
      <contour>
        <pt x="2019" y="304" on="1"/>
        <pt x="1982" y="304" on="1"/>
        <pt x="1970" y="266" on="1"/>
        <pt x="2017" y="254" on="1"/>
        <pt x="2018" y="255" on="0"/>
        <pt x="2019" y="257" on="0"/>
      </contour>
      <contour>
        <pt x="1466" y="337" on="1"/>
        <pt x="1466" y="342" on="0"/>
        <pt x="1457" y="380" on="0"/>
        <pt x="1457" y="386" on="1"/>
        <pt x="1419" y="386" on="1"/>
        <pt x="1407" y="348" on="1"/>
      </contour>
    </TTGlyph>
    <TTGlyph name="uniFB54" xMin="2" yMin="-574" xMax="2546" yMax="1785">
      <contour>
        <pt x="2404" y="1042" on="1"/>
        <pt x="2364" y="1018" on="1"/>
        <pt x="2364" y="1029" on="0"/>
        <pt x="2351" y="1055" on="1"/>
        <pt x="2332" y="1080" on="0"/>
        <pt x="2188" y="1203" on="0"/>
        <pt x="2172" y="1226" on="1"/>
        <pt x="2094" y="1335" on="0"/>
        <pt x="2087" y="1449" on="1"/>
        <pt x="2002" y="1431" on="0"/>
        <pt x="2002" y="1248" on="1"/>
        <pt x="2002" y="1160" on="0"/>
        <pt x="2022" y="1110" on="1"/>
        <pt x="1997" y="1131" on="0"/>
        <pt x="1971" y="1153" on="1"/>
        <pt x="1962" y="1201" on="0"/>
        <pt x="1962" y="1248" on="1"/>
        <pt x="1962" y="1351" on="0"/>
        <pt x="2046" y="1502" on="0"/>
        <pt x="2118" y="1523" on="1"/>
        <pt x="2121" y="1372" on="0"/>
        <pt x="2209" y="1254" on="1"/>
        <pt x="2226" y="1230" on="0"/>
        <pt x="2310" y="1158" on="1"/>
        <pt x="2383" y="1094" on="0"/>
        <pt x="2397" y="1063" on="1"/>
        <pt x="2404" y="1033" on="0"/>
      </contour>
      <contour>
        <pt x="2181" y="576" on="1"/>
        <pt x="2181" y="202" on="0"/>
        <pt x="1649" y="-330" on="0"/>
        <pt x="1274" y="-330" on="1"/>
        <pt x="900" y="-330" on="0"/>
        <pt x="367" y="202" on="0"/>
        <pt x="367" y="576" on="1"/>
        <pt x="367" y="939" on="0"/>
        <pt x="623" y="1202" on="1"/>
        <pt x="838" y="1423" on="0"/>
        <pt x="1086" y="1461" on="1"/>
        <pt x="1139" y="1469" on="0"/>
        <pt x="1182" y="1505" on="1"/>
        <pt x="1232" y="1547" on="0"/>
        <pt x="1232" y="1602" on="1"/>
        <pt x="1232" y="1662" on="0"/>
        <pt x="1146" y="1748" on="0"/>
        <pt x="1086" y="1748" on="1"/>
        <pt x="1027" y="1748" on="0"/>
        <pt x="938" y="1662" on="0"/>
        <pt x="938" y="1602" on="1"/>
        <pt x="938" y="1534" on="0"/>
        <pt x="994" y="1488" on="1"/>
        <pt x="882" y="1475" on="0"/>
        <pt x="745" y="1418" on="1"/>
        <pt x="652" y="1380" on="0"/>
        <pt x="584" y="1315" on="1"/>
        <pt x="539" y="1321" on="1"/>
        <pt x="602" y="1394" on="0"/>
        <pt x="739" y="1457" on="1"/>
        <pt x="806" y="1487" on="0"/>
        <pt x="931" y="1512" on="1"/>
        <pt x="901" y="1556" on="0"/>
        <pt x="901" y="1614" on="1"/>
        <pt x="901" y="1688" on="0"/>
        <pt x="960" y="1738" on="1"/>
        <pt x="1015" y="1785" on="0"/>
        <pt x="1086" y="1785" on="1"/>
        <pt x="1160" y="1785" on="0"/>
        <pt x="1216" y="1736" on="1"/>
        <pt x="1274" y="1684" on="0"/>
        <pt x="1274" y="1610" on="1"/>
        <pt x="1274" y="1531" on="0"/>
        <pt x="1214" y="1479" on="1"/>
        <pt x="1236" y="1481" on="0"/>
        <pt x="1274" y="1481" on="1"/>
        <pt x="1314" y="1481" on="0"/>
        <pt x="1335" y="1479" on="1"/>
        <pt x="1274" y="1531" on="0"/>
        <pt x="1274" y="1610" on="1"/>
        <pt x="1274" y="1684" on="0"/>
        <pt x="1332" y="1736" on="1"/>
        <pt x="1387" y="1785" on="0"/>
        <pt x="1462" y="1785" on="1"/>
        <pt x="1534" y="1785" on="0"/>
        <pt x="1589" y="1738" on="1"/>
        <pt x="1649" y="1689" on="0"/>
        <pt x="1649" y="1614" on="1"/>
        <pt x="1649" y="1556" on="0"/>
        <pt x="1619" y="1512" on="1"/>
        <pt x="1740" y="1488" on="0"/>
        <pt x="1808" y="1457" on="1"/>
        <pt x="1944" y="1396" on="0"/>
        <pt x="2010" y="1321" on="1"/>
        <pt x="1966" y="1315" on="1"/>
        <pt x="1892" y="1382" on="0"/>
        <pt x="1803" y="1418" on="1"/>
        <pt x="1663" y="1476" on="0"/>
        <pt x="1554" y="1488" on="1"/>
        <pt x="1608" y="1532" on="0"/>
        <pt x="1608" y="1602" on="1"/>
        <pt x="1608" y="1662" on="0"/>
        <pt x="1522" y="1748" on="0"/>
        <pt x="1462" y="1748" on="1"/>
        <pt x="1403" y="1748" on="0"/>
        <pt x="1317" y="1662" on="0"/>
        <pt x="1317" y="1602" on="1"/>
        <pt x="1317" y="1547" on="0"/>
        <pt x="1367" y="1505" on="1"/>
        <pt x="1409" y="1469" on="0"/>
        <pt x="1462" y="1461" on="1"/>
        <pt x="1712" y="1423" on="0"/>
        <pt x="1926" y="1202" on="1"/>
        <pt x="2181" y="940" on="0"/>
      </contour>
      <contour>
        <pt x="580" y="1153" on="1"/>
        <pt x="524" y="1105" on="0"/>
        <pt x="525" y="1110" on="1"/>
        <pt x="546" y="1161" on="0"/>
        <pt x="546" y="1249" on="1"/>
        <pt x="546" y="1431" on="0"/>
        <pt x="463" y="1449" on="1"/>
        <pt x="456" y="1333" on="0"/>
        <pt x="378" y="1226" on="1"/>
        <pt x="362" y="1203" on="0"/>
        <pt x="217" y="1081" on="0"/>
        <pt x="198" y="1055" on="1"/>
        <pt x="185" y="1029" on="0"/>
        <pt x="185" y="1018" on="1"/>
        <pt x="146" y="1042" on="1"/>
        <pt x="146" y="1053" on="0"/>
        <pt x="154" y="1063" on="1"/>
        <pt x="167" y="1094" on="0"/>
        <pt x="240" y="1158" on="1"/>
        <pt x="324" y="1230" on="0"/>
        <pt x="341" y="1254" on="1"/>
        <pt x="426" y="1368" on="0"/>
        <pt x="432" y="1523" on="1"/>
        <pt x="503" y="1502" on="0"/>
        <pt x="589" y="1350" on="0"/>
        <pt x="589" y="1247" on="1"/>
        <pt x="589" y="1200" on="0"/>
      </contour>
      <contour>
        <pt x="2546" y="1105" on="1"/>
        <pt x="2478" y="1004" on="0"/>
        <pt x="2485" y="819" on="1"/>
        <pt x="2487" y="784" on="0"/>
        <pt x="2532" y="637" on="0"/>
        <pt x="2533" y="605" on="1"/>
        <pt x="2535" y="569" on="0"/>
        <pt x="2472" y="496" on="0"/>
        <pt x="2439" y="496" on="1"/>
        <pt x="2391" y="496" on="0"/>
        <pt x="2369" y="520" on="1"/>
        <pt x="2369" y="67" on="0"/>
        <pt x="1729" y="-574" on="0"/>
        <pt x="1274" y="-574" on="1"/>
        <pt x="820" y="-574" on="0"/>
        <pt x="179" y="67" on="0"/>
        <pt x="179" y="520" on="1"/>
        <pt x="158" y="496" on="0"/>
        <pt x="111" y="496" on="1"/>
        <pt x="78" y="496" on="0"/>
        <pt x="13" y="569" on="0"/>
        <pt x="15" y="605" on="1"/>
        <pt x="17" y="637" on="0"/>
        <pt x="62" y="785" on="0"/>
        <pt x="63" y="819" on="1"/>
        <pt x="71" y="1004" on="0"/>
        <pt x="2" y="1105" on="1"/>
        <pt x="202" y="1092" on="0"/>
        <pt x="263" y="945" on="1"/>
        <pt x="258" y="822" on="1"/>
        <pt x="253" y="895" on="0"/>
        <pt x="209" y="962" on="1"/>
        <pt x="154" y="1046" on="0"/>
        <pt x="67" y="1049" on="1"/>
        <pt x="105" y="992" on="0"/>
        <pt x="105" y="819" on="1"/>
        <pt x="105" y="787" on="0"/>
        <pt x="85" y="718" on="1"/>
        <pt x="63" y="646" on="0"/>
        <pt x="61" y="618" on="1"/>
        <pt x="58" y="542" on="0"/>
        <pt x="131" y="542" on="1"/>
        <pt x="170" y="542" on="0"/>
        <pt x="204" y="594" on="1"/>
        <pt x="214" y="609" on="0"/>
        <pt x="226" y="623" on="1"/>
        <pt x="220" y="561" on="0"/>
        <pt x="220" y="520" on="1"/>
        <pt x="220" y="91" on="0"/>
        <pt x="842" y="-521" on="0"/>
        <pt x="1274" y="-521" on="1"/>
        <pt x="1707" y="-521" on="0"/>
        <pt x="2330" y="91" on="0"/>
        <pt x="2330" y="520" on="1"/>
        <pt x="2330" y="561" on="0"/>
        <pt x="2324" y="623" on="1"/>
        <pt x="2336" y="609" on="0"/>
        <pt x="2347" y="595" on="1"/>
        <pt x="2380" y="542" on="0"/>
        <pt x="2417" y="542" on="1"/>
        <pt x="2493" y="542" on="0"/>
        <pt x="2489" y="618" on="1"/>
        <pt x="2487" y="646" on="0"/>
        <pt x="2465" y="718" on="1"/>
        <pt x="2442" y="787" on="0"/>
        <pt x="2442" y="819" on="1"/>
        <pt x="2442" y="990" on="0"/>
        <pt x="2483" y="1049" on="1"/>
        <pt x="2397" y="1046" on="0"/>
        <pt x="2340" y="962" on="1"/>
        <pt x="2295" y="895" on="0"/>
        <pt x="2290" y="822" on="1"/>
        <pt x="2288" y="945" on="1"/>
        <pt x="2348" y="1092" on="0"/>
      </contour>
      <contour>
        <pt x="2135" y="576" on="1"/>
        <pt x="2135" y="930" on="0"/>
        <pt x="1895" y="1173" on="1"/>
        <pt x="1708" y="1362" on="0"/>
        <pt x="1466" y="1418" on="1"/>
        <pt x="1386" y="1437" on="0"/>
        <pt x="1274" y="1437" on="1"/>
        <pt x="1164" y="1437" on="0"/>
        <pt x="1084" y="1418" on="1"/>
        <pt x="841" y="1362" on="0"/>
        <pt x="654" y="1173" on="1"/>
        <pt x="415" y="931" on="0"/>
        <pt x="415" y="576" on="1"/>
        <pt x="415" y="218" on="0"/>
        <pt x="916" y="-285" on="0"/>
        <pt x="1274" y="-285" on="1"/>
        <pt x="1633" y="-285" on="0"/>
        <pt x="2135" y="218" on="0"/>
      </contour>
      <contour>
        <pt x="1654" y="299" on="1"/>
        <pt x="1654" y="274" on="0"/>
        <pt x="1631" y="228" on="1"/>
        <pt x="1628" y="228" on="0"/>
        <pt x="1613" y="217" on="0"/>
        <pt x="1598" y="217" on="1"/>
        <pt x="1563" y="217" on="0"/>
        <pt x="1494" y="342" on="1"/>
        <pt x="1454" y="417" on="0"/>
        <pt x="1413" y="493" on="1"/>
        <pt x="1373" y="464" on="0"/>
        <pt x="1330" y="361" on="1"/>
        <pt x="1281" y="243" on="0"/>
        <pt x="1251" y="207" on="1"/>
        <pt x="1244" y="207" on="0"/>
        <pt x="1227" y="210" on="1"/>
        <pt x="1215" y="219" on="0"/>
        <pt x="1173" y="309" on="0"/>
        <pt x="1173" y="324" on="1"/>
        <pt x="1173" y="336" on="0"/>
        <pt x="1231" y="448" on="1"/>
        <pt x="1302" y="585" on="0"/>
        <pt x="1323" y="633" on="1"/>
        <pt x="1344" y="696" on="0"/>
        <pt x="1401" y="841" on="1"/>
        <pt x="1432" y="824" on="0"/>
        <pt x="1450" y="775" on="1"/>
        <pt x="1460" y="735" on="0"/>
        <pt x="1472" y="695" on="1"/>
        <pt x="1497" y="621" on="0"/>
        <pt x="1580" y="456" on="1"/>
        <pt x="1654" y="310" on="0"/>
      </contour>
      <contour>
        <pt x="1070" y="361" on="1"/>
        <pt x="1070" y="354" on="0"/>
        <pt x="1068" y="254" on="0"/>
        <pt x="1068" y="229" on="1"/>
        <pt x="1001" y="229" on="1"/>
        <pt x="990" y="330" on="0"/>
        <pt x="933" y="487" on="1"/>
        <pt x="922" y="519" on="0"/>
        <pt x="870" y="628" on="1"/>
        <pt x="824" y="723" on="0"/>
        <pt x="824" y="734" on="1"/>
        <pt x="824" y="759" on="0"/>
        <pt x="847" y="798" on="1"/>
        <pt x="873" y="841" on="0"/>
        <pt x="897" y="841" on="1"/>
        <pt x="958" y="841" on="0"/>
        <pt x="1019" y="618" on="1"/>
        <pt x="1070" y="432" on="0"/>
      </contour>
    </TTGlyph>
    <TTGlyph name="uniFB55" xMin="130" yMin="-446" xMax="2443" yMax="1663">
      <contour>
        <pt x="2443" y="1400" on="1"/>
        <pt x="2443" y="1371" on="0"/>
        <pt x="2256" y="1261" on="1"/>
        <pt x="2149" y="1201" on="0"/>
        <pt x="2041" y="1141" on="1"/>
        <pt x="2006" y="1141" on="1"/>
        <pt x="1994" y="1142" on="0"/>
        <pt x="1994" y="1166" on="1"/>
        <pt x="1994" y="1220" on="0"/>
        <pt x="2194" y="1334" on="1"/>
        <pt x="2345" y="1420" on="0"/>
        <pt x="2419" y="1448" on="1"/>
        <pt x="2433" y="1436" on="0"/>
        <pt x="2443" y="1436" on="1"/>
      </contour>
      <contour>
        <pt x="1901" y="1378" on="1"/>
        <pt x="1871" y="1345" on="0"/>
        <pt x="1845" y="1345" on="1"/>
        <pt x="1834" y="1345" on="0"/>
        <pt x="1791" y="1356" on="0"/>
        <pt x="1778" y="1356" on="1"/>
        <pt x="1774" y="1356" on="0"/>
        <pt x="1504" y="1140" on="0"/>
        <pt x="1465" y="1140" on="1"/>
        <pt x="1424" y="1140" on="1"/>
        <pt x="1410" y="1153" on="1"/>
        <pt x="1410" y="1190" on="1"/>
        <pt x="1470" y="1227" on="0"/>
        <pt x="1530" y="1265" on="1"/>
        <pt x="1611" y="1315" on="0"/>
        <pt x="1666" y="1382" on="1"/>
        <pt x="1649" y="1402" on="0"/>
        <pt x="1618" y="1439" on="1"/>
        <pt x="1605" y="1457" on="0"/>
        <pt x="1605" y="1499" on="1"/>
        <pt x="1605" y="1545" on="0"/>
        <pt x="1641" y="1599" on="1"/>
        <pt x="1682" y="1663" on="0"/>
        <pt x="1737" y="1663" on="1"/>
        <pt x="1762" y="1663" on="0"/>
        <pt x="1794" y="1640" on="1"/>
        <pt x="1798" y="1633" on="0"/>
        <pt x="1815" y="1532" on="1"/>
        <pt x="1825" y="1472" on="0"/>
        <pt x="1901" y="1425" on="1"/>
      </contour>
      <contour>
        <pt x="2260" y="890" on="1"/>
        <pt x="2260" y="866" on="0"/>
        <pt x="2216" y="833" on="1"/>
        <pt x="2176" y="803" on="0"/>
        <pt x="2158" y="803" on="1"/>
        <pt x="2133" y="803" on="0"/>
        <pt x="2065" y="868" on="0"/>
        <pt x="2065" y="885" on="1"/>
        <pt x="2065" y="908" on="0"/>
        <pt x="2134" y="976" on="0"/>
        <pt x="2158" y="976" on="1"/>
        <pt x="2202" y="976" on="0"/>
      </contour>
      <contour>
        <pt x="1799" y="866" on="1"/>
        <pt x="1742" y="813" on="0"/>
        <pt x="1717" y="813" on="1"/>
        <pt x="1705" y="813" on="0"/>
        <pt x="1664" y="833" on="0"/>
        <pt x="1650" y="833" on="1"/>
        <pt x="1640" y="833" on="0"/>
        <pt x="1573" y="792" on="0"/>
        <pt x="1559" y="792" on="1"/>
        <pt x="1537" y="792" on="0"/>
        <pt x="1472" y="845" on="0"/>
        <pt x="1472" y="869" on="1"/>
        <pt x="1472" y="889" on="0"/>
        <pt x="1526" y="946" on="0"/>
        <pt x="1548" y="946" on="1"/>
        <pt x="1560" y="946" on="0"/>
        <pt x="1618" y="926" on="0"/>
        <pt x="1630" y="926" on="1"/>
        <pt x="1643" y="926" on="0"/>
        <pt x="1705" y="967" on="0"/>
        <pt x="1717" y="967" on="1"/>
        <pt x="1732" y="967" on="0"/>
        <pt x="1759" y="949" on="1"/>
        <pt x="1795" y="926" on="0"/>
        <pt x="1799" y="924" on="1"/>
      </contour>
      <contour>
        <pt x="888" y="1330" on="1"/>
        <pt x="888" y="1266" on="0"/>
        <pt x="485" y="1059" on="1"/>
        <pt x="450" y="1059" on="1"/>
        <pt x="437" y="1072" on="0"/>
        <pt x="437" y="1090" on="1"/>
        <pt x="437" y="1134" on="0"/>
        <pt x="516" y="1180" on="1"/>
        <pt x="581" y="1212" on="0"/>
        <pt x="644" y="1244" on="1"/>
        <pt x="712" y="1286" on="0"/>
        <pt x="841" y="1355" on="1"/>
        <pt x="875" y="1355" on="1"/>
        <pt x="888" y="1353" on="0"/>
      </contour>
      <contour>
        <pt x="1288" y="623" on="1"/>
        <pt x="1288" y="627" on="0"/>
        <pt x="1259" y="552" on="1"/>
        <pt x="1283" y="497" on="0"/>
        <pt x="1273" y="468" on="1"/>
        <pt x="1246" y="393" on="0"/>
        <pt x="1200" y="393" on="1"/>
        <pt x="1175" y="393" on="0"/>
        <pt x="1137" y="437" on="1"/>
        <pt x="1134" y="489" on="0"/>
        <pt x="1161" y="550" on="1"/>
        <pt x="1158" y="560" on="0"/>
        <pt x="1140" y="584" on="1"/>
        <pt x="1124" y="606" on="0"/>
        <pt x="1124" y="618" on="1"/>
        <pt x="1124" y="637" on="0"/>
        <pt x="1186" y="700" on="0"/>
        <pt x="1206" y="700" on="1"/>
        <pt x="1237" y="700" on="0"/>
        <pt x="1265" y="667" on="1"/>
        <pt x="1288" y="640" on="0"/>
      </contour>
      <contour>
        <pt x="2424" y="250" on="1"/>
        <pt x="2424" y="89" on="0"/>
        <pt x="2357" y="39" on="1"/>
        <pt x="2308" y="2" on="0"/>
        <pt x="2198" y="-20" on="1"/>
        <pt x="2117" y="-36" on="0"/>
        <pt x="2076" y="-36" on="1"/>
        <pt x="2062" y="-36" on="0"/>
        <pt x="1730" y="34" on="0"/>
        <pt x="1717" y="34" on="1"/>
        <pt x="1707" y="34" on="0"/>
        <pt x="1492" y="-27" on="0"/>
        <pt x="1477" y="-27" on="1"/>
        <pt x="1424" y="-27" on="0"/>
        <pt x="1299" y="34" on="0"/>
        <pt x="1297" y="34" on="1"/>
        <pt x="1297" y="34" on="0"/>
        <pt x="1147" y="-47" on="0"/>
        <pt x="1072" y="-47" on="1"/>
        <pt x="973" y="-47" on="0"/>
        <pt x="903" y="4" on="1"/>
        <pt x="878" y="-4" on="0"/>
        <pt x="872" y="-42" on="1"/>
        <pt x="867" y="-73" on="0"/>
        <pt x="863" y="-104" on="1"/>
        <pt x="821" y="-235" on="0"/>
        <pt x="743" y="-299" on="1"/>
        <pt x="713" y="-323" on="0"/>
        <pt x="609" y="-362" on="1"/>
        <pt x="490" y="-405" on="0"/>
        <pt x="422" y="-405" on="1"/>
        <pt x="343" y="-405" on="0"/>
        <pt x="242" y="-328" on="1"/>
        <pt x="130" y="-242" on="0"/>
        <pt x="130" y="-144" on="1"/>
        <pt x="130" y="-104" on="0"/>
        <pt x="181" y="-19" on="1"/>
        <pt x="220" y="46" on="0"/>
        <pt x="246" y="75" on="1"/>
        <pt x="283" y="75" on="1"/>
        <pt x="283" y="29" on="1"/>
        <pt x="283" y="21" on="0"/>
        <pt x="243" y="-49" on="0"/>
        <pt x="243" y="-67" on="1"/>
        <pt x="243" y="-154" on="0"/>
        <pt x="343" y="-205" on="1"/>
        <pt x="414" y="-241" on="0"/>
        <pt x="468" y="-241" on="1"/>
        <pt x="567" y="-241" on="0"/>
        <pt x="666" y="-200" on="1"/>
        <pt x="796" y="-146" on="0"/>
        <pt x="796" y="-52" on="1"/>
        <pt x="735" y="782" on="1"/>
        <pt x="735" y="908" on="0"/>
        <pt x="778" y="996" on="1"/>
        <pt x="815" y="996" on="1"/>
        <pt x="815" y="986" on="0"/>
        <pt x="816" y="928" on="0"/>
        <pt x="816" y="904" on="0"/>
        <pt x="828" y="863" on="1"/>
        <pt x="840" y="818" on="0"/>
        <pt x="843" y="798" on="1"/>
        <pt x="853" y="649" on="0"/>
        <pt x="864" y="500" on="1"/>
        <pt x="879" y="322" on="0"/>
        <pt x="941" y="185" on="1"/>
        <pt x="955" y="155" on="0"/>
        <pt x="1016" y="129" on="1"/>
        <pt x="1070" y="106" on="0"/>
        <pt x="1103" y="106" on="1"/>
        <pt x="1151" y="106" on="0"/>
        <pt x="1316" y="188" on="0"/>
        <pt x="1328" y="188" on="1"/>
        <pt x="1341" y="188" on="0"/>
        <pt x="1484" y="137" on="0"/>
        <pt x="1497" y="137" on="1"/>
        <pt x="1558" y="137" on="0"/>
        <pt x="1591" y="165" on="1"/>
        <pt x="1587" y="183" on="0"/>
        <pt x="1587" y="203" on="1"/>
        <pt x="1587" y="313" on="0"/>
        <pt x="1747" y="546" on="0"/>
        <pt x="1819" y="546" on="1"/>
        <pt x="1876" y="546" on="0"/>
        <pt x="1908" y="470" on="1"/>
        <pt x="1932" y="411" on="0"/>
        <pt x="1932" y="347" on="1"/>
        <pt x="1932" y="299" on="0"/>
        <pt x="1891" y="173" on="1"/>
        <pt x="1899" y="165" on="0"/>
        <pt x="1919" y="149" on="1"/>
        <pt x="2027" y="127" on="0"/>
        <pt x="2117" y="127" on="1"/>
        <pt x="2285" y="127" on="0"/>
        <pt x="2332" y="195" on="1"/>
        <pt x="2335" y="229" on="0"/>
        <pt x="2306" y="229" on="1"/>
        <pt x="2293" y="229" on="0"/>
        <pt x="2221" y="188" on="0"/>
        <pt x="2208" y="188" on="1"/>
        <pt x="2146" y="188" on="0"/>
        <pt x="2112" y="242" on="1"/>
        <pt x="2085" y="283" on="0"/>
        <pt x="2085" y="332" on="1"/>
        <pt x="2085" y="385" on="0"/>
        <pt x="2132" y="476" on="1"/>
        <pt x="2185" y="578" on="0"/>
        <pt x="2235" y="578" on="1"/>
        <pt x="2310" y="578" on="0"/>
        <pt x="2373" y="435" on="1"/>
        <pt x="2424" y="319" on="0"/>
      </contour>
      <contour>
        <pt x="1513" y="-226" on="1"/>
        <pt x="1513" y="-243" on="0"/>
        <pt x="1470" y="-301" on="0"/>
        <pt x="1448" y="-310" on="1"/>
        <pt x="1127" y="-446" on="0"/>
        <pt x="1106" y="-446" on="1"/>
        <pt x="1065" y="-446" on="1"/>
        <pt x="1052" y="-432" on="0"/>
        <pt x="1052" y="-410" on="1"/>
        <pt x="1052" y="-372" on="0"/>
        <pt x="1078" y="-358" on="1"/>
        <pt x="1162" y="-314" on="0"/>
        <pt x="1301" y="-256" on="1"/>
        <pt x="1437" y="-200" on="0"/>
        <pt x="1457" y="-201" on="1"/>
        <pt x="1500" y="-201" on="1"/>
        <pt x="1513" y="-202" on="0"/>
      </contour>
      <contour>
        <pt x="2260" y="377" on="1"/>
        <pt x="2242" y="412" on="0"/>
        <pt x="2210" y="412" on="1"/>
        <pt x="2210" y="353" on="1"/>
        <pt x="2236" y="353" on="0"/>
      </contour>
      <contour>
        <pt x="1840" y="311" on="1"/>
        <pt x="1840" y="383" on="0"/>
        <pt x="1784" y="383" on="1"/>
        <pt x="1754" y="383" on="0"/>
        <pt x="1686" y="319" on="0"/>
        <pt x="1686" y="291" on="1"/>
        <pt x="1686" y="271" on="0"/>
        <pt x="1739" y="229" on="0"/>
        <pt x="1758" y="229" on="1"/>
        <pt x="1781" y="229" on="0"/>
        <pt x="1807" y="249" on="1"/>
        <pt x="1840" y="274" on="0"/>
      </contour>
      <contour>
        <pt x="1743" y="1508" on="1"/>
        <pt x="1743" y="1526" on="0"/>
        <pt x="1722" y="1548" on="1"/>
        <pt x="1710" y="1548" on="0"/>
        <pt x="1684" y="1521" on="1"/>
      </contour>
    </TTGlyph>
</ttFont>
